<svg width="18" height="17" viewBox="0 0 18 17" fill="none" xmlns="http://www.w3.org/2000/svg">
    <path d="M18 8.5L16.0364 6.23333L16.2818 3.2381L13.3364 2.59048L11.7818 0L9 1.21429L6.21818 0L4.66364 2.59048L1.71818 3.2381L1.96364 6.23333L0 8.5L1.96364 10.7667L1.71818 13.7619L4.66364 14.4095L6.21818 17L9 15.7857L11.7818 17L13.3364 14.4095L16.2818 13.7619L16.0364 10.7667L18 8.5ZM14.4818 12.4667L12.2727 12.9524L11.1273 14.8952L9 14.0048L6.87273 14.8952L5.72727 12.9524L3.51818 12.4667L3.68182 10.2L2.20909 8.5L3.68182 6.8L3.51818 4.53333L5.72727 4.04762L6.87273 2.10476L9 2.99524L11.1273 2.10476L12.2727 4.04762L14.4818 4.53333L14.3182 6.8L15.7909 8.5L14.3182 10.2L14.4818 12.4667ZM12.7636 4.9381L13.9091 6.07143L7.36364 12.5476L4.09091 9.30952L5.23636 8.17619L7.36364 10.281L12.7636 4.9381Z" fill="#323759" />
</svg>