<svg width="24" height="24" viewBox="0 0 24 24" fill="none" xmlns="http://www.w3.org/2000/svg">
<path fill-rule="evenodd" clip-rule="evenodd" d="M20.0928 9.05192C19.9361 8.71528 19.5985 8.5 19.2273 8.5H13.9661L17.4871 2.96701C17.6742 2.67307 17.6862 2.30061 17.5186 1.99522C17.3509 1.68983 17.0302 1.5 16.6818 1.5H10.9545C10.6139 1.5 10.2991 1.68149 10.1285 1.97625L3.12847 14.0672C2.95748 14.3625 2.95717 14.7266 3.12758 15.0222C3.29807 15.3179 3.61332 15.5 3.95454 15.5H9.70478L8.1245 21.2943C8.00658 21.7266 8.20526 22.1826 8.60203 22.3907C8.74254 22.4644 8.8945 22.5 9.045 22.5C9.31947 22.5 9.58922 22.3816 9.77555 22.1602L19.9574 10.0693C20.1966 9.78539 20.2494 9.38849 20.0928 9.05192ZM11.1058 17.6163L11.8747 14.7969C11.953 14.5099 11.893 14.2028 11.7124 13.9663C11.5318 13.7299 11.2512 13.5912 10.9537 13.5912H5.60938L11.5041 3.40938H14.9422L11.4212 8.94237C11.2342 9.2363 11.2221 9.60877 11.3897 9.91422C11.5574 10.2195 11.8781 10.4094 12.2265 10.4094H17.1748L11.1058 17.6163Z" fill="#FBFBFE"/>
</svg>
