<svg width="16" height="16" viewBox="0 0 16 16" fill="none" xmlns="http://www.w3.org/2000/svg">
    <path fill-rule="evenodd" clip-rule="evenodd" d="M14.9999 8.00063C14.9999 7.86802 14.9472 7.74085 14.8535 7.64708C14.7597 7.55331 14.6325 7.50063 14.4999 7.50063H2.70692L5.85392 4.35463C5.9004 4.30814 5.93728 4.25295 5.96244 4.19222C5.9876 4.13148 6.00055 4.06638 6.00055 4.00063C6.00055 3.93489 5.9876 3.86979 5.96244 3.80905C5.93728 3.74831 5.9004 3.69312 5.85392 3.64663C5.80743 3.60014 5.75224 3.56327 5.6915 3.53811C5.63076 3.51295 5.56566 3.5 5.49992 3.5C5.43417 3.5 5.36907 3.51295 5.30833 3.53811C5.24759 3.56327 5.1924 3.60014 5.14592 3.64663L1.14592 7.64663C1.09935 7.69308 1.06241 7.74825 1.0372 7.809C1.012 7.86974 0.999023 7.93486 0.999023 8.00063C0.999023 8.0664 1.012 8.13152 1.0372 8.19226C1.06241 8.25301 1.09935 8.30819 1.14592 8.35463L5.14592 12.3546C5.1924 12.4011 5.24759 12.438 5.30833 12.4632C5.36907 12.4883 5.43417 12.5013 5.49992 12.5013C5.56566 12.5013 5.63076 12.4883 5.6915 12.4632C5.75224 12.438 5.80743 12.4011 5.85392 12.3546C5.9004 12.3081 5.93728 12.253 5.96244 12.1922C5.9876 12.1315 6.00055 12.0664 6.00055 12.0006C6.00055 11.9349 5.9876 11.8698 5.96244 11.809C5.93728 11.7483 5.9004 11.6931 5.85392 11.6466L2.70692 8.50063H14.4999C14.6325 8.50063 14.7597 8.44795 14.8535 8.35419C14.9472 8.26042 14.9999 8.13324 14.9999 8.00063Z" fill="#544CA6"/>
    </svg>
    