<svg width="20" height="20" viewBox="0 0 20 20" fill="none" xmlns="http://www.w3.org/2000/svg">
<path d="M18.9652 13.5798L14.2052 8.81983C13.8852 8.49983 13.3852 8.49983 13.0652 8.81983L11.5052 10.3798L9.62515 8.49981L11.1852 6.9398C11.5052 6.6198 11.5052 6.11981 11.1852 5.79981L6.42515 1.03979C6.10515 0.719795 5.60516 0.719795 5.28516 1.03979L1.02515 5.29981C0.865151 5.45981 0.785161 5.65981 0.785161 5.85982C0.785161 6.07981 0.865151 6.27982 1.02515 6.41982L5.78516 11.1798C5.94516 11.3398 6.14515 11.4198 6.34515 11.4198C6.54515 11.4198 6.74516 11.3398 6.90516 11.1798L8.46517 9.61983L10.3451 11.4998L8.78516 13.0598C8.46516 13.3798 8.46516 13.8798 8.78516 14.1998L13.5451 18.9598C13.7051 19.1198 13.9052 19.1998 14.1052 19.1998C14.3252 19.1998 14.5252 19.1198 14.6652 18.9598L18.9252 14.6998C19.2852 14.3998 19.2852 13.8798 18.9652 13.5798ZM6.36517 9.47979L2.74515 5.85982L5.86517 2.7398L9.48516 6.35982L8.48516 7.35982L7.88516 6.75982C7.56516 6.43982 7.06515 6.43982 6.74515 6.75982C6.42515 7.07981 6.42515 7.57981 6.74515 7.89981L7.34515 8.49981L6.36517 9.47979ZM14.1451 17.2598L10.5252 13.6398L11.5252 12.6398L12.1252 13.2398C12.2852 13.3998 12.4852 13.4798 12.6852 13.4798C12.8852 13.4798 13.0851 13.3998 13.2451 13.2398C13.5651 12.9198 13.5651 12.4198 13.2451 12.0998L12.6451 11.4998L13.6451 10.4998L17.2652 14.1198L14.1451 17.2598Z" fill="currentColor"/>
</svg>
