<svg width="23" height="25" viewBox="0 0 23 25" fill="none" xmlns="http://www.w3.org/2000/svg">
<path d="M19.6055 11.0387H14.2344V6.35122H12.4766C13.0207 5.62486 13.313 4.74085 13.3093 3.8333C13.3093 2.48369 12.6707 1.21558 11.6426 0.523926L11.2065 0.230469L10.7704 0.523926C9.74219 1.21567 9.10376 2.48374 9.10376 3.8333C9.1001 4.74086 9.39254 5.62485 9.93672 6.35117H7.98438V11.0387H3.39453C2.64369 11.0395 1.92385 11.3382 1.39292 11.8691C0.862001 12.4 0.563353 13.1199 0.5625 13.8707V22.6565C0.562965 23.0708 0.727735 23.468 1.02066 23.7609C1.31358 24.0538 1.71074 24.2186 2.125 24.219H20.875C21.2893 24.2186 21.6864 24.0538 21.9793 23.7609C22.2723 23.468 22.437 23.0708 22.4375 22.6565V13.8708C22.4366 13.1199 22.138 12.4001 21.6071 11.8691C21.0762 11.3382 20.3563 11.0396 19.6055 11.0387ZM11.2065 2.22402C11.5478 2.64805 11.7468 3.22334 11.7468 3.83335C11.7468 4.44336 11.5478 5.0187 11.2065 5.44268C10.8652 5.0187 10.6663 4.44336 10.6663 3.8333C10.6663 3.22324 10.8652 2.64805 11.2065 2.22402ZM9.54688 7.91372H12.6719V11.0387H9.54688V7.91372ZM2.125 13.8708C2.12539 13.5342 2.25927 13.2115 2.49727 12.9735C2.73526 12.7355 3.05795 12.6016 3.39453 12.6012H19.6055C19.9421 12.6016 20.2647 12.7355 20.5027 12.9735C20.7407 13.2115 20.8746 13.5342 20.875 13.8708V15.4126L19.8203 15.878C19.614 15.9687 19.3912 16.0156 19.1658 16.0156C18.9404 16.0156 18.7176 15.9687 18.5113 15.878L16.6758 15.0681L14.8398 15.8779C14.6336 15.9687 14.4107 16.0156 14.1853 16.0156C13.9599 16.0156 13.737 15.9687 13.5308 15.8779L11.6953 15.068L9.85938 15.8779C9.6531 15.9687 9.4302 16.0155 9.20483 16.0155C8.97947 16.0155 8.75657 15.9687 8.55029 15.8779L6.71484 15.0681L4.87925 15.8779C4.67297 15.9687 4.45007 16.0155 4.22471 16.0155C3.99934 16.0155 3.77644 15.9687 3.57017 15.8779L2.125 15.2404V13.8708ZM20.875 22.6565H2.125V16.9482L2.93936 17.3075C3.3444 17.4857 3.78209 17.5777 4.22461 17.5777C4.66713 17.5777 5.10482 17.4857 5.50986 17.3075L6.71484 16.7758L7.91987 17.3075C8.32491 17.4857 8.76259 17.5777 9.2051 17.5777C9.64762 17.5777 10.0853 17.4857 10.4903 17.3075L11.6953 16.7758L12.9002 17.3075C13.3053 17.4857 13.7429 17.5777 14.1854 17.5777C14.628 17.5777 15.0656 17.4857 15.4707 17.3075L16.6758 16.7758L17.8808 17.3075C18.2858 17.4857 18.7234 17.5778 19.1659 17.5778C19.6084 17.5778 20.0461 17.4857 20.4511 17.3075L20.8756 17.1203L20.876 22.6565H20.875Z" fill="#544CA6"/>
</svg>
