<svg width="31" height="31" viewBox="0 0 31 31" fill="none" xmlns="http://www.w3.org/2000/svg">
<circle cx="15.5" cy="15.5" r="15.5" fill="#DFE0F0"/>
<path d="M23 15C23 14.0807 22.8189 13.1705 22.4672 12.3212C22.1154 11.472 21.5998 10.7002 20.9498 10.0503C20.2997 9.40017 19.5281 8.88457 18.6788 8.53286C17.8295 8.18098 16.9193 8 16 8V9.4C16.7354 9.4 17.4636 9.54492 18.143 9.82622C18.8225 10.1077 19.4398 10.5202 19.9598 11.0403C20.4798 11.5602 20.8923 12.1776 21.1737 12.8569C21.4551 13.5364 21.6 14.2646 21.6 15H23Z" fill="#544CA6"/>
<path d="M9 13.6V10.1C9 9.71343 9.31341 9.4 9.7 9.4H13.2C13.5866 9.4 13.9 9.71343 13.9 10.1V12.9C13.9 13.2866 13.5866 13.6 13.2 13.6H11.8C11.8 16.6927 14.3072 19.2 17.4 19.2V17.8C17.4 17.4134 17.7134 17.1 18.1 17.1H20.9C21.2866 17.1 21.6 17.4134 21.6 17.8V21.3C21.6 21.6866 21.2866 22 20.9 22H17.4C12.7608 22 9 18.2392 9 13.6Z" fill="#544CA6"/>
<path d="M19.8803 13.3927C20.0914 13.9023 20.2 14.4485 20.2 15H18.94C18.94 14.6139 18.864 14.2316 18.7162 13.875C18.5685 13.5181 18.3519 13.1941 18.0789 12.9212C17.8059 12.6481 17.4818 12.4316 17.1251 12.2837C16.7684 12.1361 16.3861 12.06 16 12.06V10.8C16.5516 10.8 17.0977 10.9087 17.6073 11.1198C18.1168 11.3308 18.5798 11.6401 18.9699 12.0301C19.3599 12.4201 19.6692 12.8831 19.8803 13.3927Z" fill="#544CA6"/>
</svg>
