<svg width="12" height="12" viewBox="0 0 12 12" fill="none" xmlns="http://www.w3.org/2000/svg">
<path d="M7.42184 5.99843L11.7078 1.71249C12.0974 1.32286 12.0974 0.681854 11.7078 0.292223C11.3181 -0.0974077 10.6771 -0.0974077 10.2875 0.292223L6.00157 4.57816L1.71563 0.292223C1.326 -0.0974077 0.684996 -0.0974077 0.295365 0.292223C0.10055 0.487038 0 0.744698 0 1.00236C0 1.26002 0.10055 1.51768 0.295365 1.71249L4.5813 5.99843L0.295365 10.2844C0.10055 10.4792 0 10.7368 0 10.9945C0 11.2522 0.10055 11.5098 0.295365 11.7046C0.684996 12.0943 1.326 12.0943 1.71563 11.7046L6.00157 7.4187L10.2875 11.7046C10.6771 12.0943 11.3181 12.0943 11.7078 11.7046C12.0974 11.315 12.0974 10.674 11.7078 10.2844L7.42184 5.99843Z" fill="currentColor"/>
</svg>
