<svg width="19" height="15" viewBox="0 0 19 15" fill="none" xmlns="http://www.w3.org/2000/svg">
<path fill-rule="evenodd" clip-rule="evenodd" d="M17.2604 3.18876C17.6159 2.83422 17.6159 2.25786 17.2604 1.90331C16.9059 1.54786 16.3304 1.54786 15.9749 1.90331L6.3804 11.4979L3.3704 8.48876C3.01586 8.13331 2.4395 8.13331 2.08495 8.48876C1.7295 8.84422 1.7295 9.41967 2.08495 9.77422L5.69222 13.3824C5.70677 13.3979 5.7204 13.4133 5.73586 13.4279C5.91313 13.606 6.14586 13.6942 6.37859 13.6942C6.42222 13.6942 6.46586 13.6915 6.5095 13.6851C6.69768 13.6588 6.8795 13.5733 7.02404 13.4279C7.0395 13.4133 7.05404 13.3979 7.06768 13.3815L17.2604 3.18876Z" fill="#60D28D" stroke="#60D28D" stroke-width="2"/>
</svg>
