<svg width="14" height="14" viewBox="0 0 14 14" fill="none" xmlns="http://www.w3.org/2000/svg">
<path d="M7.66827 2.18686C7.66827 1.80752 7.97579 1.5 8.35514 1.5C8.60061 1.5 8.81602 1.62878 8.93747 1.82246L10.7835 3.66848C11.0517 3.93671 11.0517 4.37161 10.7835 4.63985C10.5153 4.90808 10.0804 4.90808 9.81212 4.63985L9.042 3.86972V9.05547C9.042 9.43481 8.73448 9.74233 8.35514 9.74233C7.97579 9.74233 7.66827 9.43481 7.66827 9.05547V2.22083C7.66819 2.21456 7.66819 2.20829 7.66827 2.20203V2.18686Z" fill="#F98B64"/>
<path d="M6.31639 11.8131C6.31639 12.1925 6.00887 12.5 5.62953 12.5C5.38405 12.5 5.16865 12.3712 5.0472 12.1775L3.20118 10.3315C2.93294 10.0633 2.93294 9.62839 3.20118 9.36015C3.46941 9.09192 3.90431 9.09192 4.17254 9.36015L4.94267 10.1303V4.94453C4.94267 4.56519 5.25019 4.25767 5.62953 4.25767C6.00887 4.25767 6.31639 4.56519 6.31639 4.94453V11.7792C6.31648 11.7854 6.31648 11.7917 6.31639 11.798V11.8131Z" fill="#F98B64"/>
</svg>
