<svg width="29" height="29" viewBox="0 0 29 29" fill="none" xmlns="http://www.w3.org/2000/svg">
<path d="M19.7426 11.2638C20.2308 10.8088 20.2577 10.0442 19.8027 9.556C19.3477 9.06781 18.5831 9.04091 18.0949 9.49591L14.5592 12.7913L11.2638 9.25558C10.8088 8.7674 10.0442 8.7405 9.556 9.1955C9.06781 9.6505 9.04091 10.4151 9.49591 10.9033L12.7913 14.439L9.25558 17.7345C8.7674 18.1894 8.7405 18.954 9.1955 19.4422C9.6505 19.9304 10.4151 19.9573 10.9033 19.5023L14.439 16.2069L17.7345 19.7426C18.1894 20.2308 18.954 20.2577 19.4422 19.8027C19.9304 19.3477 19.9573 18.5831 19.5023 18.0949L16.2069 14.5592L19.7426 11.2638Z" fill="#F16856"/>
<path fill-rule="evenodd" clip-rule="evenodd" d="M1.20898 14.5007C1.20898 7.15987 7.15987 1.20898 14.5007 1.20898C21.8414 1.20898 27.7923 7.15987 27.7923 14.5007C27.7923 21.8414 21.8414 27.7923 14.5007 27.7923C7.15987 27.7923 1.20898 21.8414 1.20898 14.5007ZM14.5007 25.3756C8.49456 25.3756 3.62565 20.5068 3.62565 14.5007C3.62565 8.49456 8.49456 3.62565 14.5007 3.62565C20.5068 3.62565 25.3756 8.49456 25.3756 14.5007C25.3756 20.5068 20.5068 25.3756 14.5007 25.3756Z" fill="#F16856"/>
</svg>
