<svg width="23" height="23" viewBox="0 0 23 23" fill="none" xmlns="http://www.w3.org/2000/svg">
<path d="M10.542 3.83203H3.83366C3.32533 3.83203 2.83782 4.03397 2.47837 4.39341C2.11893 4.75285 1.91699 5.24037 1.91699 5.7487V19.1654C1.91699 19.6737 2.11893 20.1612 2.47837 20.5207C2.83782 20.8801 3.32533 21.082 3.83366 21.082H17.2503C17.7587 21.082 18.2462 20.8801 18.6056 20.5207C18.9651 20.1612 19.167 19.6737 19.167 19.1654V12.457" stroke="#4475FF" stroke-width="1.75" stroke-linecap="round" stroke-linejoin="round"/>
<path d="M17.7295 2.39621C18.1107 2.01496 18.6278 1.80078 19.167 1.80078C19.7062 1.80078 20.2232 2.01496 20.6045 2.39621C20.9857 2.77746 21.1999 3.29455 21.1999 3.83371C21.1999 4.37288 20.9857 4.88996 20.6045 5.27121L11.5003 14.3754L7.66699 15.3337L8.62533 11.5004L17.7295 2.39621Z" stroke="#4475FF" stroke-width="1.75" stroke-linecap="round" stroke-linejoin="round"/>
</svg>
