<svg width="18" height="21" viewBox="0 0 18 21" fill="none" xmlns="http://www.w3.org/2000/svg">
<path d="M4 16.2866H14V14.2866H4V16.2866Z" fill="currentColor"/>
<path d="M14 12.2866H4V10.2866H14V12.2866Z" fill="currentColor"/>
<path d="M4 8.28662H8V6.28662H4V8.28662Z" fill="currentColor"/>
<path fill-rule="evenodd" clip-rule="evenodd" d="M3 0.286621C1.34315 0.286621 0 1.62977 0 3.28662V17.2866C0 18.9435 1.34315 20.2866 3 20.2866H15C16.6569 20.2866 18 18.9435 18 17.2866V7.28662C18 3.42063 14.866 0.286621 11 0.286621H3ZM3 2.28662H10V7.28662H16V17.2866C16 17.8389 15.5523 18.2866 15 18.2866H3C2.44772 18.2866 2 17.8389 2 17.2866V3.28662C2 2.73434 2.44772 2.28662 3 2.28662ZM12 2.38664C13.6113 2.71372 14.9413 3.81568 15.584 5.28662H12V2.38664Z" fill="currentColor"/>
</svg>
