<svg width="16" height="20" viewBox="0 0 16 20" fill="none" xmlns="http://www.w3.org/2000/svg">
<path d="M15.1666 2.41668C14.9863 2.3118 14.7636 2.3118 14.5833 2.41668C13.885 2.8041 13.0986 3.005 12.3 3C11.1323 3.02582 10.0034 2.58145 9.16664 1.76668C8.20071 0.821172 6.89469 0.304531 5.54332 0.333359C4.455 0.323945 3.39094 0.654922 2.5 1.28004V1C2.5 0.447734 2.0523 0 1.5 0C0.947695 0 0.5 0.447695 0.5 1V19C0.5 19.5523 0.947695 20 1.5 20C2.05227 20 2.5 19.5523 2.5 19V10.3333C2.61047 10.323 2.7157 10.2814 2.80332 10.2133C3.59637 9.6293 4.55852 9.32031 5.54332 9.33332C6.71309 9.30645 7.84453 9.75086 8.68332 10.5666C9.64742 11.5108 10.9509 12.0273 12.3 12C13.3339 12.012 14.3481 11.7161 15.2133 11.15C15.3985 11.0216 15.5063 10.8085 15.5 10.5833V3C15.5021 2.75969 15.3747 2.53684 15.1666 2.41668Z" fill="#F16856"/>
</svg>
