<svg width="19" height="18" viewBox="0 0 19 18" fill="none" xmlns="http://www.w3.org/2000/svg">
<path d="M10.3256 3.17429C10.3256 2.89082 10.207 2.61896 9.99585 2.41852C9.78474 2.21808 9.49841 2.10547 9.19985 2.10547C8.90129 2.10547 8.61496 2.21808 8.40385 2.41852C8.19273 2.61896 8.07413 2.89082 8.07413 3.17429V7.80587H3.19603C2.89747 7.80587 2.61114 7.91848 2.40003 8.11893C2.18891 8.31937 2.07031 8.59123 2.07031 8.8747C2.07031 9.15817 2.18891 9.43003 2.40003 9.63047C2.61114 9.83092 2.89747 9.94353 3.19603 9.94353H8.07413V14.5751C8.07413 14.8586 8.19273 15.1304 8.40385 15.3309C8.61496 15.5313 8.90129 15.6439 9.19985 15.6439C9.49841 15.6439 9.78474 15.5313 9.99585 15.3309C10.207 15.1304 10.3256 14.8586 10.3256 14.5751V9.94353H15.2037C15.5022 9.94353 15.7886 9.83092 15.9997 9.63047C16.2108 9.43003 16.3294 9.15817 16.3294 8.8747C16.3294 8.59123 16.2108 8.31937 15.9997 8.11893C15.7886 7.91848 15.5022 7.80587 15.2037 7.80587H10.3256V3.17429Z" fill="#323759" stroke="#323759"/>
</svg>
