<svg width="23" height="23" viewBox="0 0 23 23" fill="none" xmlns="http://www.w3.org/2000/svg">
<path d="M21.625 0.5H16.375C16.1429 0.5 15.9204 0.592187 15.7563 0.756282C15.5922 0.920376 15.5 1.14294 15.5 1.375C15.5 1.60706 15.5922 1.82962 15.7563 1.99372C15.9204 2.15781 16.1429 2.25 16.375 2.25H19.5141L14.9094 6.85469C13.1714 5.43379 10.9537 4.73524 8.71516 4.90352C6.47658 5.07181 4.38831 6.09406 2.88228 7.75883C1.37625 9.4236 0.567691 11.6035 0.623833 13.8477C0.679976 16.0919 1.59653 18.2287 3.18391 19.8161C4.7713 21.4035 6.90807 22.32 9.15227 22.3762C11.3965 22.4323 13.5764 21.6237 15.2412 20.1177C16.9059 18.6117 17.9282 16.5234 18.0965 14.2848C18.2648 12.0463 17.5662 9.82862 16.1453 8.09063L20.75 3.48594V6.625C20.75 6.85706 20.8422 7.07962 21.0063 7.24372C21.1704 7.40781 21.3929 7.5 21.625 7.5C21.8571 7.5 22.0796 7.40781 22.2437 7.24372C22.4078 7.07962 22.5 6.85706 22.5 6.625V1.375C22.5 1.14294 22.4078 0.920376 22.2437 0.756282C22.0796 0.592187 21.8571 0.5 21.625 0.5ZM14.3297 18.5797C13.3502 19.5573 12.1029 20.2226 10.7454 20.4915C9.38789 20.7605 7.98114 20.621 6.70287 20.0908C5.4246 19.5606 4.33218 18.6634 3.56363 17.5125C2.79507 16.3617 2.38488 15.0089 2.38488 13.625C2.38488 12.2411 2.79507 10.8883 3.56363 9.73746C4.33218 8.58662 5.4246 7.68941 6.70287 7.15918C7.98114 6.62896 9.38789 6.48952 10.7454 6.75848C12.1029 7.02745 13.3502 7.69274 14.3297 8.67031C15.6375 9.98771 16.3714 11.7687 16.3714 13.625C16.3714 15.4813 15.6375 17.2623 14.3297 18.5797Z" fill="#544CA6"/>
</svg>
