<svg width="16" height="16" viewBox="0 0 16 16" fill="none" xmlns="http://www.w3.org/2000/svg">
<path d="M11.5646 1.98419C10.2851 0.704656 8.58394 0 6.77441 0C4.96487 0 3.26369 0.704656 1.98419 1.98419C0.704656 3.26369 0 4.96487 0 6.77437C0 8.58391 0.704656 10.2851 1.98419 11.5646C3.26369 12.8441 4.96491 13.5488 6.77441 13.5488C8.58391 13.5488 10.2851 12.8441 11.5646 11.5646C12.8441 10.2851 13.5488 8.58391 13.5488 6.77437C13.5488 4.96487 12.8441 3.26369 11.5646 1.98419ZM6.77437 12.2561C3.75172 12.2561 1.29262 9.79703 1.29262 6.77437C1.29262 3.75172 3.75175 1.29262 6.77441 1.29262C9.79706 1.29262 12.2561 3.75172 12.2561 6.77437C12.2561 9.79703 9.79703 12.2561 6.77437 12.2561Z" fill="#544CA6"/>
<path d="M15.8111 14.8951L11.5623 10.6463C11.3099 10.3939 10.9007 10.3939 10.6483 10.6463C10.3959 10.8987 10.3959 11.308 10.6483 11.5604L14.897 15.8092C15.0232 15.9354 15.1887 15.9985 15.3541 15.9985C15.5195 15.9985 15.6849 15.9354 15.8111 15.8092C16.0635 15.5567 16.0635 15.1475 15.8111 14.8951Z" fill="#544CA6"/>
</svg>
