<svg width="23" height="28" viewBox="0 0 23 28" fill="none" xmlns="http://www.w3.org/2000/svg">
<path fill-rule="evenodd" clip-rule="evenodd" d="M22.116 10.3151C21.9201 9.89435 21.4982 9.62524 21.0341 9.62524H14.4577L18.8589 2.70901C19.0927 2.34159 19.1077 1.87601 18.8982 1.49427C18.6887 1.11253 18.2878 0.875244 17.8523 0.875244H10.6932C10.2674 0.875244 9.87385 1.10211 9.66059 1.47056L0.910593 16.5842C0.696854 16.9534 0.696456 17.4084 0.909479 17.778C1.12258 18.1476 1.51665 18.3752 1.94317 18.3752H9.13098L7.15563 25.6181C7.00823 26.1584 7.25657 26.7285 7.75254 26.9887C7.92817 27.0808 8.11813 27.1252 8.30625 27.1252C8.64933 27.1252 8.98652 26.9773 9.21943 26.7006L21.9467 11.5869C22.2457 11.232 22.3117 10.7359 22.116 10.3151ZM10.8826 21.0206L11.8437 17.4963C11.9416 17.1375 11.8666 16.7537 11.6408 16.4581C11.4151 16.1626 11.0644 15.9891 10.6926 15.9891H4.0121L11.3806 3.26187H15.6781L11.2768 10.1781C11.0431 10.5455 11.028 11.0111 11.2375 11.3929C11.4471 11.7746 11.848 12.0119 12.2835 12.0119H18.4688L10.8826 21.0206Z" fill="white"/>
</svg>
