<svg width="66" height="72" viewBox="0 0 66 72" fill="none" xmlns="http://www.w3.org/2000/svg">
<g clip-path="url(#clip0_5417_3392)">
<path d="M22.9392 63.6076C22.1863 63.6076 21.5284 63.1801 21.2227 62.492L18.8589 57.1734L13.1544 58.6746C12.9941 58.7166 12.8303 58.7382 12.6678 58.7382C12.0253 58.7382 11.4338 58.4091 11.0858 57.858C10.741 57.3121 10.7014 56.6368 10.9798 56.0511L17.5913 42.1861C17.7173 41.9221 17.9812 41.7649 18.2586 41.7649C18.3448 41.7649 18.4322 41.7799 18.5171 41.8117L30.9657 46.4635C31.1571 46.5349 31.3101 46.6824 31.3889 46.8707C31.4678 47.059 31.4651 47.2713 31.3817 47.4576L24.654 62.496C24.347 63.1816 23.6902 63.6076 22.9392 63.6076Z" fill="#3AA1FF"/>
<path d="M18.2577 42.504L30.7064 47.1558L23.9788 62.1942C23.7777 62.6437 23.3583 62.8683 22.9388 62.8683C22.5184 62.8683 22.0982 62.6427 21.8976 62.1917L19.2784 56.2984L12.9657 57.9596C12.864 57.9864 12.7643 57.9989 12.6672 57.9989C11.8694 57.9989 11.2754 57.149 11.6468 56.3685L18.2577 42.504ZM18.258 41.0254C17.7031 41.0254 17.1752 41.3397 16.9233 41.8678L10.3124 55.7322C9.92373 56.5493 9.97907 57.4911 10.4601 58.2526C10.9446 59.0193 11.7695 59.4773 12.6672 59.4773C12.893 59.4773 13.1202 59.4478 13.3418 59.3894L18.4383 58.0482L20.5467 62.7924C20.9729 63.7512 21.8894 64.347 22.9388 64.347C23.9853 64.347 24.9008 63.7535 25.3282 62.7984L32.0559 47.7598C32.2226 47.3872 32.2276 46.9623 32.0701 46.5857C31.9126 46.209 31.6064 45.9143 31.224 45.7716L18.7753 41.1198C18.6051 41.0557 18.4303 41.0254 18.258 41.0254Z" fill="#323759"/>
<g opacity="0.6">
<path opacity="0.6" d="M12.5128 57.0192L19.1238 43.1547L30.5799 47.4356L30.7051 47.1559L18.2564 42.5042L11.6454 56.3686C11.2994 57.0961 11.7924 57.8813 12.5068 57.9853C12.3723 57.698 12.3541 57.3525 12.5128 57.0192Z" fill="white"/>
</g>
<g opacity="0.3">
<path opacity="0.3" d="M18.2562 42.5042L17.8213 43.4164C18.3501 44.5269 19.5423 47.4492 21.8821 49.5516C24.4623 51.8701 22.9882 56.2094 19.52 56.2785C19.4254 56.2805 19.3295 56.2802 19.2323 56.278L19.2296 56.3108L19.2769 56.2983L21.8961 62.1916C22.2965 63.0925 23.5746 63.094 23.9773 62.1941L30.7049 47.1557L18.2562 42.5042Z" fill="#323759"/>
</g>
<path d="M42.1751 63.6078C41.4241 63.6078 40.7671 63.1818 40.4603 62.4965L33.7326 47.4581C33.5669 47.0877 33.7306 46.6533 34.0995 46.4843L46.1493 40.9648C46.2489 40.9192 46.3536 40.8975 46.4568 40.8975C46.7332 40.8975 46.9982 41.0535 47.1246 41.3191L54.1347 56.0513C54.4134 56.637 54.3739 57.3123 54.0291 57.8582C53.681 58.4094 53.0895 58.7386 52.447 58.7386C52.2847 58.7386 52.121 58.7174 51.9605 58.675L46.256 57.1739L43.8921 62.4925C43.5859 63.1803 42.9281 63.6078 42.1751 63.6078Z" fill="#F65E5D"/>
<path d="M46.456 41.6366L53.4661 56.3688C53.8374 57.1493 53.2432 57.9991 52.4457 57.9991C52.3488 57.9991 52.2489 57.9866 52.1472 57.9598L45.8345 56.2986L43.2152 62.1919C43.0146 62.6429 42.5944 62.8685 42.174 62.8685C41.7546 62.8685 41.3352 62.6439 41.1341 62.1944L34.4064 47.1561L46.456 41.6366ZM46.4552 40.158C46.2491 40.158 46.04 40.2013 45.8405 40.2927L33.7907 45.8121C33.053 46.1499 32.7257 47.0191 33.057 47.7598L39.7846 62.7982C40.2121 63.7535 41.1276 64.3469 42.174 64.3469C43.2232 64.3469 44.14 63.7512 44.5661 62.7924L46.6746 58.0482L51.7711 59.3894C51.9927 59.4477 52.2198 59.4773 52.4457 59.4773C53.3431 59.4773 54.1682 59.0195 54.6528 58.2526C55.1338 57.4911 55.1894 56.5493 54.8012 55.7335L47.7909 41.0011C47.538 40.4697 47.0081 40.158 46.4552 40.158Z" fill="#323759"/>
<g opacity="0.6">
<path opacity="0.6" d="M41.7847 61.7607L35.1074 46.835L34.4062 47.1562L41.1339 62.1946C41.502 63.0174 42.5998 63.0843 43.0918 62.4017C42.5948 62.5184 42.0289 62.3063 41.7847 61.7607Z" fill="white"/>
</g>
<g opacity="0.3">
<path opacity="0.3" d="M53.5752 56.9235C53.5767 56.8995 53.5792 56.8758 53.5792 56.8516C53.5794 56.8758 53.5767 56.8995 53.5752 56.9235Z" fill="#323759"/>
</g>
<g opacity="0.3">
<path opacity="0.3" d="M53.5537 57.0847C53.559 57.059 53.5652 57.0335 53.5687 57.0076C53.5652 57.0338 53.559 57.0592 53.5537 57.0847Z" fill="#323759"/>
</g>
<g opacity="0.3">
<path opacity="0.3" d="M53.4875 57.2996C53.475 57.3288 53.4603 57.357 53.4453 57.3849C53.4603 57.357 53.475 57.3288 53.4875 57.2996Z" fill="#323759"/>
</g>
<g opacity="0.3">
<path opacity="0.3" d="M53.5098 57.2391C53.5195 57.2119 53.5297 57.1852 53.5375 57.1572C53.5297 57.1852 53.5195 57.2122 53.5098 57.2391Z" fill="#323759"/>
</g>
<g opacity="0.3">
<path opacity="0.3" d="M53.5664 56.6919C53.5699 56.7136 53.5701 56.7347 53.5721 56.7562C53.5699 56.7347 53.5696 56.7136 53.5664 56.6919Z" fill="#323759"/>
</g>
<g opacity="0.3">
<path opacity="0.3" d="M52.2582 57.9806C52.6566 57.6741 52.8502 57.115 52.5982 56.5856L45.6587 42.0017L34.4062 47.1561L35.8313 50.3415C36.6714 50.3775 38.6379 50.3758 40.9749 49.7893C42.9666 49.2895 45.0142 50.4467 45.5431 52.4306C45.8738 53.6711 46.0238 55.1332 45.6745 56.6587L45.8345 56.2986L52.1473 57.9598C52.3536 58.0142 52.5519 58.0072 52.7335 57.9581C52.585 57.9979 52.4247 58.0079 52.2582 57.9806Z" fill="#323759"/>
</g>
<g opacity="0.3">
<path opacity="0.3" d="M53.5293 56.5303C53.5347 56.548 53.5372 56.5655 53.5419 56.5832C53.5372 56.5655 53.5347 56.548 53.5293 56.5303Z" fill="#323759"/>
</g>
<g opacity="0.3">
<path opacity="0.3" d="M53.1296 57.7607C53.0942 57.788 53.0572 57.8134 53.0186 57.8364C53.0572 57.8134 53.0942 57.7882 53.1296 57.7607Z" fill="#323759"/>
</g>
<g opacity="0.3">
<path opacity="0.3" d="M53.3613 57.52C53.3818 57.4913 53.4018 57.4626 53.4198 57.4321C53.4018 57.4623 53.3818 57.4913 53.3613 57.52Z" fill="#323759"/>
</g>
<g opacity="0.3">
<path opacity="0.3" d="M53.1465 57.7474C53.1792 57.7212 53.2104 57.6935 53.2401 57.6641C53.2104 57.6935 53.1792 57.7212 53.1465 57.7474Z" fill="#323759"/>
</g>
<g opacity="0.3">
<path opacity="0.3" d="M53.2607 57.6416C53.2875 57.6136 53.3129 57.5847 53.3366 57.5542C53.3129 57.5847 53.2875 57.6136 53.2607 57.6416Z" fill="#323759"/>
</g>
<g opacity="0.3">
<path opacity="0.3" d="M53.0079 57.8428C52.967 57.8667 52.9248 57.8882 52.8809 57.9069C52.9245 57.8882 52.967 57.867 53.0079 57.8428Z" fill="#323759"/>
</g>
<g opacity="0.3">
<path opacity="0.3" d="M52.8754 57.9092C52.83 57.9284 52.7828 57.9446 52.7344 57.9576C52.7828 57.9446 52.8297 57.9284 52.8754 57.9092Z" fill="#323759"/>
</g>
<path d="M35.1317 52.6064C33.9976 52.6064 32.8968 52.1982 32.0317 51.4565C31.4347 50.9449 30.673 50.6632 29.8864 50.6632C29.3924 50.6632 28.9154 50.7711 28.4689 50.9842C27.8191 51.294 27.1287 51.4513 26.4173 51.4513C24.1965 51.4515 22.2856 49.9426 21.771 47.7818C21.4693 46.515 20.4469 45.5429 19.1663 45.3055C17.742 45.0416 16.5295 44.1597 15.8397 42.8861C15.1498 41.6125 15.0734 40.1151 15.6301 38.778C16.1306 37.5758 15.8747 36.1882 14.9783 35.2435C13.9814 34.1928 13.5187 32.7667 13.709 31.3306C13.8993 29.8948 14.7176 28.6385 15.9541 27.8838C17.0657 27.2054 17.6741 25.9326 17.5044 24.6415C17.3251 23.2788 17.7415 21.9053 18.647 20.8727C19.5542 19.8385 20.8596 19.245 22.229 19.245C22.3585 19.245 22.49 19.2503 22.6197 19.2608C22.7078 19.2678 22.7969 19.2716 22.8853 19.2716C24.0936 19.2716 25.2026 18.6115 25.7798 17.549C26.6159 16.0095 28.2255 15.053 29.9809 15.053C31.1149 15.053 32.216 15.4614 33.0809 16.2028C33.6778 16.7144 34.4396 16.9961 35.2261 16.9961C35.7202 16.9961 36.1972 16.8882 36.6437 16.6751C37.2935 16.3651 37.9838 16.2081 38.6955 16.2081C40.9166 16.2081 42.8269 17.717 43.3415 19.8776C43.6433 21.1444 44.6657 22.1164 45.9462 22.3538C47.3705 22.6177 48.583 23.4997 49.2729 24.7732C49.9628 26.0468 50.0394 27.5442 49.4825 28.8814C48.9819 30.0836 49.2378 31.4709 50.134 32.4156C51.1311 33.4663 51.5937 34.8927 51.4033 36.3285C51.213 37.7643 50.3947 39.0206 49.1582 39.7753C48.0466 40.4537 47.4382 41.7265 47.6079 43.0176C47.7872 44.3803 47.3708 45.7538 46.4653 46.7862C45.5581 47.8206 44.2527 48.4138 42.8833 48.4138C42.7538 48.4138 42.6223 48.4086 42.4926 48.3981C42.4045 48.391 42.3154 48.3873 42.2272 48.3873C41.0187 48.3873 39.9097 49.0474 39.3328 50.1098C38.4967 51.6501 36.8868 52.6064 35.1317 52.6064Z" fill="#FFCA28"/>
<path d="M29.9806 15.7921C30.9011 15.7921 31.8313 16.1054 32.5996 16.7639C33.3458 17.4035 34.281 17.7353 35.2258 17.7353C35.8153 17.7353 36.4082 17.6063 36.9616 17.3424C37.5263 17.0732 38.117 16.9472 38.6952 16.9472C40.4911 16.9472 42.1721 18.1589 42.6223 20.0488C42.9922 21.601 44.2422 22.7897 45.8112 23.0804C48.3366 23.5487 49.7872 26.2263 48.8001 28.5974C48.1868 30.0705 48.4996 31.7668 49.5979 32.9244C51.3657 34.7874 50.9653 37.8063 48.773 39.1445C47.4108 39.9758 46.6669 41.5318 46.875 43.1142C47.1955 45.5499 45.2896 47.6748 42.883 47.6748C42.7736 47.6748 42.6629 47.6703 42.5517 47.6615C42.443 47.6528 42.3346 47.6485 42.2269 47.6485C40.7573 47.6485 39.3926 48.4511 38.6829 49.7574C37.9402 51.1252 36.5475 51.8671 35.1314 51.8671C34.2109 51.8671 33.2807 51.5538 32.5124 50.8953C31.7662 50.2557 30.8309 49.924 29.8862 49.924C29.2967 49.924 28.7037 50.0529 28.1503 50.3168C27.5857 50.586 26.995 50.712 26.4168 50.712C24.6209 50.712 22.9399 49.5003 22.4897 47.6105C22.1198 46.0582 20.8698 44.8695 19.3007 44.5788C16.7754 44.1105 15.3248 41.4329 16.3119 39.0618C16.9251 37.5887 16.6124 35.8925 15.5141 34.7346C13.7462 32.8716 14.1466 29.8527 16.3389 28.5145C17.7011 27.6831 18.4451 26.1271 18.237 24.5448C17.9165 22.1091 19.8223 19.9842 22.229 19.9842C22.3384 19.9842 22.4491 19.9887 22.5603 19.9974C22.669 20.0062 22.7774 20.0105 22.8851 20.0105C24.3547 20.0105 25.7196 19.2079 26.429 17.9015C27.1718 16.5338 28.5645 15.7924 29.9806 15.7921ZM29.9806 14.314V15.7921V14.314H29.9803C27.9538 14.314 26.0953 15.4185 25.1299 17.1964C24.6825 18.0207 23.8223 18.5326 22.8851 18.5326C22.8167 18.5326 22.7473 18.5298 22.679 18.5243C22.5295 18.5123 22.378 18.5063 22.229 18.5063C20.6469 18.5063 19.1387 19.1911 18.0913 20.3856C17.0453 21.578 16.5646 23.1643 16.7714 24.7381C16.9031 25.7397 16.4311 26.7268 15.5689 27.2532C14.1411 28.1246 13.1961 29.5755 12.9762 31.2336C12.7564 32.8918 13.2907 34.539 14.4421 35.7525C15.1372 36.4852 15.3358 37.5614 14.9474 38.4939C14.3046 40.0382 14.3928 41.7675 15.1896 43.2381C15.9864 44.709 17.3866 45.7274 19.0316 46.0324C20.0249 46.2164 20.8179 46.9704 21.0518 47.9533C21.646 50.4481 23.8524 52.1906 26.417 52.1906C27.2394 52.1906 28.0369 52.0093 28.7869 51.6515C29.1334 51.4862 29.5033 51.4026 29.8862 51.4026C30.4964 51.4026 31.0874 51.6212 31.5504 52.0181C32.5492 52.8742 33.821 53.3458 35.1314 53.3458C37.1579 53.3458 39.0165 52.2412 39.982 50.4633C40.4295 49.639 41.2896 49.1272 42.2269 49.1272C42.2953 49.1272 42.3649 49.1299 42.433 49.1354C42.5825 49.1474 42.734 49.1535 42.883 49.1535C44.465 49.1535 45.9732 48.4686 47.0207 47.2742C48.0666 46.0817 48.5474 44.4954 48.3406 42.9216C48.2089 41.92 48.6809 40.9329 49.543 40.4068C50.9708 39.5354 51.9159 38.0843 52.1357 36.4261C52.3556 34.7679 51.8215 33.121 50.6701 31.9075C49.9747 31.1746 49.7764 30.0986 50.1645 29.166C50.8073 27.6218 50.7192 25.8925 49.9224 24.4216C49.1256 22.9507 47.7253 21.9323 46.0804 21.6273C45.0871 21.4433 44.294 20.6893 44.0601 19.7065C43.4659 17.2117 41.2596 15.4691 38.6949 15.4691C37.8726 15.4691 37.0751 15.6504 36.3251 16.0082C35.9785 16.1735 35.6087 16.2571 35.2256 16.2571C34.6153 16.2571 34.0244 16.0385 33.5614 15.6416C32.5627 14.7855 31.2909 14.314 29.9806 14.314Z" fill="#323759"/>
<g opacity="0.6">
<path opacity="0.6" d="M42.1205 43.3938C47.126 38.3883 47.126 30.2728 42.1205 25.2673C37.115 20.2618 28.9995 20.2618 23.9939 25.2673C18.9884 30.2728 18.9884 38.3883 23.9939 43.3938C28.9995 48.3994 37.115 48.3994 42.1205 43.3938Z" fill="white"/>
</g>
<g opacity="0.2">
<g opacity="0.2">
<path opacity="0.2" d="M41.3711 18.4213C41.5892 19.3368 42.1148 20.1238 42.8302 20.6767C42.7456 20.4754 42.675 20.2663 42.6232 20.0489C42.3983 19.1047 41.8654 18.3299 41.165 17.7908C41.2489 17.9913 41.3188 18.2014 41.3711 18.4213Z" fill="#323759"/>
</g>
<g opacity="0.2">
<path opacity="0.2" d="M49.5982 32.9245C48.4999 31.7669 48.1871 30.0706 48.8004 28.5975C49.5306 26.8436 48.9261 24.9233 47.5406 23.8523C47.9435 24.8053 47.9865 25.9176 47.5483 26.9699C46.9351 28.443 47.2478 30.1392 48.3461 31.2969C50.114 33.1601 49.7136 36.1788 47.5213 37.517C46.1591 38.3483 45.4151 39.9046 45.6232 41.4866C45.9583 44.033 43.8601 46.2401 41.3 46.034C39.7094 45.9061 38.1927 46.7276 37.4312 48.1299C36.2054 50.3871 33.2108 50.9392 31.2607 49.2675C30.0492 48.2291 28.3392 48.0022 26.8989 48.6891C25.4568 49.3767 23.8492 49.128 22.6963 48.2408C23.5662 50.3207 26.0367 51.3251 28.1509 50.3167C29.5912 49.6298 31.3012 49.8565 32.5127 50.8951C34.4626 52.5666 37.4575 52.0145 38.6832 49.7576C39.4447 48.3553 40.9614 47.5337 42.552 47.6617C45.1121 47.8677 47.2103 45.6607 46.8752 43.1143C46.6672 41.5322 47.4111 39.9759 48.7733 39.1446C50.9656 37.8067 51.366 34.7878 49.5982 32.9245Z" fill="#323759"/>
</g>
<g opacity="0.2">
<path opacity="0.2" d="M18.0494 42.9512C17.3918 42.8292 16.8081 42.5565 16.3203 42.1797C16.8254 43.3741 17.8966 44.3184 19.3011 44.5788C19.9449 44.6983 20.5334 44.9707 21.031 45.3553C20.5109 44.1166 19.3991 43.2013 18.0494 42.9512Z" fill="#323759"/>
</g>
</g>
<g opacity="0.6">
<path opacity="0.6" d="M46.5154 23.7844C47.174 23.9066 47.7569 24.1816 48.2452 24.5594C47.6658 23.819 46.8282 23.2691 45.8115 23.0805C45.1607 22.9598 44.5662 22.6829 44.0654 22.2915C44.6604 23.0577 45.5238 23.6006 46.5154 23.7844Z" fill="white"/>
</g>
<g opacity="0.6">
<path opacity="0.6" d="M17.0159 39.7656C17.6292 38.2925 17.3164 36.5963 16.2182 35.4384C14.4503 33.5754 14.8507 30.5565 17.043 29.2183C18.4052 28.3869 19.1492 26.8307 18.9411 25.2486C18.606 22.7022 20.7044 20.4951 23.2643 20.7012C24.8549 20.8294 26.3716 20.0076 27.1331 18.6053C28.3588 16.3484 31.3537 15.796 33.3036 17.4677C34.5151 18.5062 36.2251 18.733 37.6654 18.0462C39.1098 17.3573 40.7204 17.6082 41.8735 18.4989C40.7529 17.0686 38.7334 16.4972 36.9615 17.3423C35.5212 18.0291 33.8112 17.8023 32.5997 16.7638C30.6498 15.0924 27.6549 15.6445 26.4292 17.9014C25.6677 19.3037 24.151 20.1255 22.5604 19.9973C20.0003 19.7912 17.9021 21.9983 18.2372 24.5447C18.4453 26.1268 17.7013 27.683 16.3391 28.5144C14.1468 29.8526 13.7464 32.8715 15.5143 34.7345C16.6125 35.8921 16.9253 37.5884 16.3121 39.0617C15.5824 40.8146 16.1871 42.7322 17.5711 43.8037C16.7112 42.7049 16.4262 41.1822 17.0159 39.7656Z" fill="white"/>
</g>
<g opacity="0.6">
<path opacity="0.6" d="M23.1936 48.3144C22.9772 47.4059 22.4579 46.6239 21.751 46.0715C22.0975 46.5178 22.3537 47.0391 22.4897 47.6105C22.714 48.5523 23.2446 49.3253 23.9423 49.8642C23.5967 49.4232 23.3338 48.9034 23.1936 48.3144Z" fill="white"/>
</g>
<path d="M32.5554 46.0559C39.3078 46.0559 44.7817 40.582 44.7817 33.8296C44.7817 27.0772 39.3078 21.6033 32.5554 21.6033C25.803 21.6033 20.3291 27.0772 20.3291 33.8296C20.3291 40.582 25.803 46.0559 32.5554 46.0559Z" fill="white"/>
<path d="M32.5558 46.647C25.4884 46.647 19.7383 40.8972 19.7383 33.8295C19.7383 26.7618 25.4881 21.012 32.5558 21.012C39.6235 21.012 45.3733 26.7618 45.3733 33.8295C45.3733 40.8972 39.6235 46.647 32.5558 46.647ZM32.5558 22.1946C26.1404 22.1946 20.9209 27.4141 20.9209 33.8295C20.9209 40.2449 26.1404 45.4644 32.5558 45.4644C38.9715 45.4644 44.1907 40.2449 44.1907 33.8295C44.1907 27.4141 38.9715 22.1946 32.5558 22.1946Z" fill="#323759"/>
<g opacity="0.2">
<path opacity="0.2" d="M21.4569 35.332C21.4569 28.5796 26.9308 23.1057 33.6832 23.1057C37.3492 23.1057 40.6375 24.7196 42.8784 27.275C40.7089 23.8654 36.8969 21.6033 32.5564 21.6033C25.804 21.6033 20.3301 27.0771 20.3301 33.8296C20.3301 36.9161 21.4742 39.7349 23.361 41.8867C22.1555 39.9923 21.4569 37.7439 21.4569 35.332Z" fill="#323759"/>
</g>
<path d="M35.6343 39.5067C35.3594 39.5067 35.093 39.4188 34.8641 39.2526L32.5922 37.6019C32.5814 37.5941 32.5689 37.5901 32.5556 37.5901C32.5421 37.5901 32.5296 37.5941 32.5188 37.6022L30.2469 39.2528C30.018 39.4191 29.7518 39.507 29.4766 39.507C29.0562 39.507 28.6558 39.3014 28.4056 38.9571C28.1585 38.6168 28.0921 38.1889 28.2241 37.7832L29.092 35.1124C29.1005 35.0866 29.0912 35.0585 29.0694 35.0425L26.7975 33.3918C26.328 33.0508 26.1407 32.4738 26.32 31.9222C26.4993 31.3706 26.9901 31.014 27.5703 31.014H30.3786C30.4056 31.014 30.4296 30.9967 30.4379 30.9707L31.3058 28.2998C31.4851 27.7479 31.9759 27.3916 32.5561 27.3916C33.1363 27.3916 33.6271 27.7482 33.8064 28.2998L34.6743 30.9709C34.6825 30.9967 34.7066 31.014 34.7336 31.014H37.5419C38.1221 31.014 38.6129 31.3706 38.7922 31.9222C38.9715 32.4741 38.7842 33.051 38.3147 33.3918L36.0428 35.0425C36.0207 35.0585 36.0117 35.0866 36.02 35.1124L36.8879 37.7834C37.0196 38.1894 36.9535 38.617 36.7063 38.9574C36.4552 39.3012 36.0548 39.5067 35.6343 39.5067Z" fill="#F9BD00"/>
<path d="M32.5558 28.0172C32.8317 28.0172 33.1077 28.1757 33.2106 28.4929L34.0785 31.1638C34.1706 31.4475 34.4351 31.6395 34.7333 31.6395H37.5416C38.2087 31.6395 38.4859 32.4929 37.9463 32.8851L35.6743 34.5357C35.4329 34.711 35.332 35.0218 35.4242 35.3055L36.2921 37.9763C36.4491 38.4596 36.0652 38.8808 35.6348 38.8808C35.5001 38.8808 35.3611 38.8395 35.2324 38.7461L32.9604 37.0954C32.8397 37.0077 32.6978 36.9639 32.5558 36.9639C32.4138 36.9639 32.2718 37.0077 32.1511 37.0954L29.8792 38.7461C29.7507 38.8395 29.6115 38.8808 29.4768 38.8808C29.0463 38.8808 28.6627 38.4596 28.8195 37.9763L29.6874 35.3055C29.7795 35.0218 29.6786 34.711 29.4372 34.5357L27.1653 32.8851C26.6257 32.4929 26.9031 31.6395 27.5699 31.6395H30.3782C30.6765 31.6395 30.9409 31.4475 31.0331 31.1638L31.901 28.4929C32.0041 28.1757 32.2801 28.0172 32.5558 28.0172ZM32.5558 26.7651C31.7127 26.7651 30.971 27.304 30.7103 28.1058L29.9691 30.3875H27.5702C26.7268 30.3875 25.9851 30.9264 25.7247 31.7284C25.464 32.5305 25.7472 33.4024 26.4296 33.898L28.3705 35.308L27.6293 37.5894C27.4347 38.1882 27.5334 38.8207 27.8997 39.3247C28.2673 39.8306 28.857 40.1326 29.4773 40.1326C29.8854 40.1326 30.2791 40.0034 30.6156 39.7587L32.5563 38.3487L34.4969 39.7587C34.8335 40.0031 35.2271 40.1323 35.6353 40.1323C36.2555 40.1323 36.8452 39.8303 37.2128 39.3243C37.5792 38.8199 37.6778 38.1874 37.4833 37.5889L36.7421 35.3075L38.6827 33.8975C39.3651 33.4016 39.6483 32.5297 39.3876 31.7277C39.1269 30.9256 38.3855 30.3868 37.5421 30.3868H35.1432L34.402 28.1053C34.1408 27.3038 33.3991 26.7651 32.5558 26.7651Z" fill="#323759"/>
<g opacity="0.6">
<path opacity="0.6" d="M34.2825 31.5178C34.3747 31.8015 34.6391 31.9936 34.9373 31.9936H37.7456C37.9362 31.9936 38.0937 32.0647 38.2106 32.1734C38.143 31.8854 37.8991 31.6395 37.5416 31.6395H34.7333C34.553 31.6395 34.3857 31.5684 34.2607 31.4502L34.2825 31.5178Z" fill="white"/>
</g>
<g opacity="0.6">
<path opacity="0.6" d="M29.0243 38.3304L29.8922 35.6596C29.976 35.4016 29.8987 35.1224 29.7029 34.9419C29.7294 35.0598 29.7271 35.1848 29.6878 35.3055L28.8199 37.9763C28.7275 38.2608 28.8232 38.5227 29.0047 38.691C28.9802 38.5793 28.9829 38.4571 29.0243 38.3304Z" fill="white"/>
</g>
<g opacity="0.6">
<path opacity="0.6" d="M27.7743 31.9937H30.5826C30.8808 31.9937 31.1453 31.8017 31.2374 31.5179L32.1053 28.8471C32.2721 28.334 32.8906 28.2364 33.2304 28.5531L33.2109 28.493C33.0048 27.8588 32.1073 27.8588 31.9012 28.493L31.0333 31.1639C30.9412 31.4476 30.6768 31.6396 30.3785 31.6396H27.5702C26.9324 31.6396 26.653 32.4192 27.1012 32.8301C27.0178 32.4359 27.294 31.9937 27.7743 31.9937Z" fill="white"/>
</g>
<path d="M7.71295 33.2561C7.60978 33.2561 7.51162 33.1955 7.46905 33.0944C7.08368 32.1814 6.59789 31.6042 6.07429 31.4111C6.03598 31.5889 5.97914 31.7705 5.90051 31.9545C5.75327 32.2988 5.47432 32.5557 5.13527 32.6597C4.75991 32.7748 4.42537 32.6734 4.19324 32.3742C4.05326 32.1937 4.05026 31.9397 4.18498 31.6776C4.40158 31.2561 4.94847 30.842 5.60403 30.8129C5.59727 29.6726 4.77043 28.7706 4.63846 28.6341C4.62644 28.6266 4.61442 28.6191 4.6024 28.6116C4.50149 28.9757 4.2934 29.3042 3.99717 29.5549C3.3058 30.1396 2.59315 30.268 1.93658 29.9257C1.47433 29.6848 1.25347 29.1445 1.41173 28.6411C1.58576 28.087 1.91555 27.7071 2.36503 27.5426C2.83754 27.3698 3.428 27.4412 4.12638 27.7547C4.05226 26.8475 3.7375 26.1749 3.18836 25.7527C2.07881 24.8998 0.345001 25.311 0.327723 25.3152C0.185994 25.3503 0.0427613 25.2632 0.00770443 25.1214C-0.027102 24.9797 0.0592881 24.8365 0.201018 24.8014C0.281649 24.7814 2.19475 24.3241 3.50838 25.3313C4.24983 25.8999 4.64097 26.8097 4.67102 28.0354C4.76166 28.0877 4.85381 28.1436 4.94746 28.2029C4.96274 28.2127 4.97701 28.224 4.99003 28.2367C5.04863 28.2936 6.16869 29.4024 6.13764 30.8755C6.70682 31.037 7.39068 31.5466 7.95734 32.8888C8.01419 33.0235 7.95109 33.1785 7.81637 33.2356C7.78206 33.2494 7.747 33.2561 7.71295 33.2561ZM5.54443 31.3473C5.4633 31.3573 5.38167 31.3761 5.30004 31.4044C4.82201 31.5686 4.58913 31.9595 4.61568 32.0579C4.67828 32.1366 4.77443 32.2167 4.97977 32.1536C5.16982 32.0952 5.32783 31.9468 5.41372 31.7462C5.47131 31.612 5.51413 31.4787 5.54443 31.3473ZM2.91266 27.9796C2.77795 27.9796 2.6555 27.9994 2.54632 28.0394C2.25284 28.1468 2.04075 28.4025 1.91605 28.7996C1.83492 29.0581 1.9461 29.3343 2.18048 29.4565C2.63747 29.6946 3.13377 29.5917 3.65487 29.151C3.90377 28.9404 4.06654 28.6537 4.12137 28.3392C3.65312 28.1008 3.24545 27.9796 2.91266 27.9796Z" fill="#323759"/>
<path d="M57.0303 45.9203C56.998 45.9203 56.9652 45.9143 56.9331 45.9018C56.7972 45.8482 56.7306 45.6944 56.7842 45.5585C57.3611 44.0978 58.0848 43.5392 58.6905 43.3576C58.6124 41.7771 59.7895 40.5563 59.8509 40.4937C59.8636 40.4807 59.8777 40.4692 59.8927 40.4592C59.9949 40.3911 60.0955 40.327 60.1944 40.2669C60.1944 40.2586 60.1944 40.2501 60.1944 40.2418C60.1987 38.9335 60.5961 37.9544 61.3753 37.3316C62.7538 36.2301 64.8042 36.6703 64.8908 36.6896C65.0335 36.7214 65.1232 36.8626 65.0916 37.0053C65.0598 37.1478 64.9186 37.238 64.7759 37.2062C64.7463 37.1996 62.8785 36.8055 61.7036 37.7468C61.1094 38.2226 60.7829 38.9708 60.7308 39.9729C61.4813 39.6091 62.1186 39.5129 62.6324 39.6874C63.1134 39.8507 63.4728 40.2463 63.6716 40.8313C63.8511 41.3591 63.6313 41.9351 63.1492 42.2008C62.4641 42.5781 61.7071 42.4624 60.9607 41.8657C60.6286 41.6005 60.3935 41.2427 60.2771 40.8398C60.2553 40.8538 60.2332 40.8683 60.2112 40.8829C60.077 41.0289 59.1941 42.0385 59.2231 43.282C59.9283 43.2898 60.5275 43.7195 60.7699 44.1654C60.9174 44.4366 60.9209 44.7021 60.7799 44.8931C60.5432 45.2134 60.1939 45.3281 59.7963 45.2161C59.435 45.1145 59.1335 44.8493 58.9692 44.4885C58.8773 44.2866 58.8104 44.0873 58.7651 43.8918C58.2979 44.0628 57.7505 44.5531 57.2765 45.753C57.2354 45.8567 57.1357 45.9203 57.0303 45.9203ZM59.2932 43.8156C59.3298 43.9651 59.3814 44.1164 59.4507 44.2689C59.5504 44.4875 59.7284 44.647 59.9395 44.7066C60.1729 44.7722 60.2801 44.6788 60.3539 44.5786C60.386 44.489 60.1521 44.0836 59.6576 43.8963C59.5644 43.8607 59.44 43.8261 59.2932 43.8156ZM60.7528 40.5561C60.8217 40.9107 61.0095 41.2272 61.291 41.4523C61.8651 41.911 62.4043 42.0069 62.8938 41.7373C63.151 41.5955 63.2674 41.2863 63.1705 41.0018C63.0245 40.5724 62.7861 40.2987 62.4621 40.1887C62.0447 40.0465 61.4605 40.1735 60.7528 40.5561Z" fill="#323759"/>
<path d="M54.3941 11.9843C54.3644 11.9843 54.334 11.98 54.304 11.971C54.1385 11.9212 54.0446 11.7466 54.0944 11.5811L54.596 9.91265C54.6456 9.74713 54.8203 9.65323 54.9859 9.70306C55.1514 9.75289 55.2453 9.92742 55.1954 10.0929L54.6939 11.7614C54.6531 11.8966 54.5286 11.9843 54.3941 11.9843Z" fill="#323759"/>
<path d="M52.9108 16.9138C52.881 16.9138 52.8507 16.9095 52.8206 16.9005C52.6551 16.8507 52.5612 16.6762 52.611 16.5106L53.1126 14.8422C53.1624 14.6767 53.3369 14.5825 53.5025 14.6326C53.668 14.6824 53.7619 14.857 53.7121 15.0225L53.2105 16.6909C53.1697 16.8261 53.0455 16.9138 52.9108 16.9138Z" fill="#323759"/>
<path d="M55.4022 12.8084C55.2908 12.8084 55.1828 12.7485 55.1263 12.6436C55.0444 12.4913 55.1015 12.3015 55.2537 12.2196L56.7882 11.3948C56.9402 11.3129 57.1303 11.37 57.2121 11.5223C57.294 11.6745 57.2369 11.8643 57.0847 11.9462L55.5502 12.771C55.5031 12.7963 55.4523 12.8084 55.4022 12.8084Z" fill="#323759"/>
<path d="M50.869 15.2459C50.7576 15.2459 50.6496 15.186 50.5931 15.0811C50.5112 14.9288 50.5683 14.739 50.7205 14.6571L52.255 13.8323C52.407 13.7504 52.5968 13.8075 52.6789 13.9598C52.7608 14.112 52.7037 14.3018 52.5515 14.3837L51.017 15.2085C50.9699 15.2338 50.9191 15.2459 50.869 15.2459Z" fill="#323759"/>
<path d="M57.2015 14.6067C57.1717 14.6067 57.1414 14.6024 57.1111 14.5934L55.4427 14.0916C55.2772 14.0418 55.1833 13.8672 55.2331 13.7017C55.2829 13.5362 55.4574 13.4423 55.623 13.4921L57.2914 13.9939C57.4569 14.0438 57.5508 14.2183 57.501 14.3838C57.4604 14.5193 57.3362 14.6067 57.2015 14.6067Z" fill="#323759"/>
<path d="M52.2728 13.1243C52.243 13.1243 52.2127 13.12 52.1824 13.111L50.514 12.6092C50.3484 12.5593 50.2545 12.3848 50.3044 12.2193C50.354 12.0538 50.5285 11.9599 50.6943 12.0097L52.3627 12.5115C52.5282 12.5613 52.6221 12.7359 52.5723 12.9014C52.5317 13.0369 52.4073 13.1243 52.2728 13.1243Z" fill="#323759"/>
<path d="M55.5349 16.6488C55.4235 16.6488 55.3156 16.5889 55.259 16.484L54.4339 14.9495C54.352 14.7973 54.4091 14.6074 54.5613 14.5256C54.7136 14.4439 54.9031 14.5008 54.9853 14.653L55.8104 16.1875C55.8922 16.3398 55.8351 16.5296 55.6829 16.6114C55.6356 16.6367 55.585 16.6488 55.5349 16.6488Z" fill="#323759"/>
<path d="M53.0974 12.1151C52.986 12.1151 52.8781 12.0552 52.8215 11.9503L51.9964 10.4158C51.9145 10.2636 51.9716 10.0738 52.1238 9.99187C52.2761 9.91024 52.4656 9.96708 52.5478 10.1193L53.3729 11.6538C53.4547 11.8061 53.3976 11.9959 53.2454 12.0778C53.1981 12.103 53.1475 12.1151 53.0974 12.1151Z" fill="#323759"/>
<path d="M17.2867 6.68733C17.2569 6.68733 17.2266 6.68307 17.1966 6.67406C17.0311 6.62423 16.9372 6.44969 16.987 6.28417L17.5409 4.44219C17.5907 4.27667 17.7653 4.18277 17.9308 4.2326C18.0963 4.28243 18.1902 4.45696 18.1404 4.62248L17.5865 6.46447C17.5456 6.59994 17.4212 6.68733 17.2867 6.68733Z" fill="#323759"/>
<path d="M15.651 12.1302C15.6212 12.1302 15.5909 12.1259 15.5608 12.1169C15.3953 12.0671 15.3014 11.8926 15.3513 11.727L15.9051 9.88506C15.9547 9.71954 16.1295 9.62564 16.295 9.67547C16.4605 9.7253 16.5545 9.89983 16.5046 10.0654L15.9507 11.9073C15.9097 12.0428 15.7855 12.1302 15.651 12.1302Z" fill="#323759"/>
<path d="M18.4022 7.59761C18.2908 7.59761 18.1828 7.53777 18.1263 7.43284C18.0444 7.2806 18.1015 7.09079 18.2537 7.00891L19.948 6.09818C20.1 6.0163 20.2898 6.07339 20.3719 6.22564C20.4538 6.37788 20.3967 6.56769 20.2444 6.64957L18.5502 7.5603C18.5029 7.58559 18.4523 7.59761 18.4022 7.59761Z" fill="#323759"/>
<path d="M13.3963 10.2888C13.2849 10.2888 13.177 10.2289 13.1204 10.124C13.0385 9.97176 13.0956 9.78195 13.2479 9.70007L14.9421 8.78934C15.0941 8.70746 15.2839 8.76455 15.366 8.9168C15.4479 9.06905 15.3908 9.25885 15.2386 9.34074L13.5443 10.2515C13.497 10.2768 13.4464 10.2888 13.3963 10.2888Z" fill="#323759"/>
<path d="M20.3885 9.58308C20.3587 9.58308 20.3284 9.57882 20.2983 9.56981L18.4563 9.01591C18.2908 8.96608 18.1969 8.79154 18.2468 8.62603C18.2966 8.46051 18.4711 8.3666 18.6366 8.41644L20.4786 8.97033C20.6441 9.02016 20.738 9.1947 20.6882 9.36022C20.6474 9.49569 20.5229 9.58308 20.3885 9.58308Z" fill="#323759"/>
<path d="M14.9461 7.94636C14.9163 7.94636 14.886 7.9421 14.856 7.93309L13.014 7.37919C12.8484 7.32936 12.7545 7.15483 12.8044 6.98931C12.8542 6.82379 13.029 6.72989 13.1943 6.77972L15.0362 7.33362C15.2018 7.38345 15.2957 7.55798 15.2458 7.7235C15.205 7.85897 15.0806 7.94636 14.9461 7.94636Z" fill="#323759"/>
<path d="M18.5473 11.8377C18.4359 11.8377 18.328 11.7778 18.2714 11.6729L17.3606 9.97866C17.2787 9.82641 17.3358 9.63661 17.4881 9.55472C17.6401 9.47284 17.8299 9.52993 17.912 9.68218L18.8228 11.3764C18.9046 11.5287 18.8475 11.7185 18.6953 11.8004C18.648 11.8257 18.5974 11.8377 18.5473 11.8377Z" fill="#323759"/>
<path d="M15.8559 6.83175C15.7445 6.83175 15.6365 6.77191 15.58 6.66699L14.6692 4.97274C14.5873 4.82049 14.6444 4.63069 14.7967 4.5488C14.9487 4.46717 15.1385 4.52376 15.2206 4.67626L16.1313 6.37051C16.2132 6.52275 16.1561 6.71256 16.0039 6.79444C15.9568 6.81973 15.906 6.83175 15.8559 6.83175Z" fill="#323759"/>
<path d="M8.09588 64.1162C8.09588 64.1162 9.23748 65.4629 7.91309 66.7232C7.91309 66.7232 9.40325 65.974 10.4487 67.5145C10.4487 67.5145 9.70649 65.4887 10.5659 64.7683C10.5659 64.7683 9.03265 65.2623 8.09588 64.1162Z" fill="#323759"/>
<path d="M45.4928 71.9999C45.8879 71.9999 46.2082 71.6796 46.2082 71.2845C46.2082 70.8894 45.8879 70.5691 45.4928 70.5691C45.0976 70.5691 44.7773 70.8894 44.7773 71.2845C44.7773 71.6796 45.0976 71.9999 45.4928 71.9999Z" fill="#323759"/>
<path d="M52.5769 64.8911C52.5769 64.8911 52.4332 66.5751 50.6836 66.5265C50.6836 66.5265 52.1978 67.0326 51.8575 68.7822C51.8575 68.7822 52.7319 66.9111 53.8011 67.0083C53.8014 67.008 52.4312 66.3004 52.5769 64.8911Z" fill="#323759"/>
<path d="M62.1451 24.5612C62.5402 24.5612 62.8605 24.2409 62.8605 23.8458C62.8605 23.4507 62.5402 23.1304 62.1451 23.1304C61.75 23.1304 61.4297 23.4507 61.4297 23.8458C61.4297 24.2409 61.75 24.5612 62.1451 24.5612Z" fill="#323759"/>
<path d="M29.6855 10.6875L30.6201 11.2291C30.6201 11.2291 31.2448 9.58773 33.0034 9.29676L32.7375 8.21826C32.7375 8.21826 30.5209 8.50773 29.6855 10.6875Z" fill="#6CCD3C"/>
<path d="M2.37109 40.7403L3.37748 40.3481C3.37748 40.3481 3.74357 42.0659 5.43707 42.6226L5.00912 43.6475C5.00912 43.6475 2.86289 43.022 2.37109 40.7403Z" fill="#3AA1FF"/>
<path d="M62.5067 56.0714L62.6795 55.1041C62.6795 55.1041 61.0819 55.08 60.2866 53.6667L59.4473 54.2294C59.4473 54.2294 60.3838 56.0346 62.5067 56.0714Z" fill="#F65E5D"/>
<path d="M10.0562 20.4223C10.4513 20.4223 10.7716 20.102 10.7716 19.7069C10.7716 19.3118 10.4513 18.9915 10.0562 18.9915C9.66112 18.9915 9.34082 19.3118 9.34082 19.7069C9.34082 20.102 9.66112 20.4223 10.0562 20.4223Z" fill="#323759"/>
<path d="M59.3592 29.6419L58.4247 29.3386C58.4247 29.3386 58.1825 30.9179 56.6738 31.5126L57.1165 32.4211C57.1163 32.4209 59.0327 31.74 59.3592 29.6419Z" fill="#FFCA28"/>
<path d="M4.9227 50.5569L5.40273 51.4143C5.40273 51.4143 3.90129 51.9604 3.61308 53.5562L2.63574 53.2998C2.63574 53.2996 2.92897 51.2871 4.9227 50.5569Z" fill="#FFCA28"/>
<path d="M42.6994 7.83545L41.7173 7.8675C41.7173 7.8675 42.0258 9.43504 40.8086 10.5068L41.5333 11.2109C41.5333 11.2109 43.1046 9.91983 42.6994 7.83545Z" fill="#3AA1FF"/>
<path d="M39.5392 2.49429L39.7518 1.53499C39.7518 1.53499 38.1567 1.44509 37.4205 0L36.5586 0.527355C36.5586 0.527355 37.4195 2.36984 39.5392 2.49429Z" fill="#F65E5D"/>
</g>
<defs>
<clipPath id="clip0_5417_3392">
<rect width="65.0986" height="72" fill="white"/>
</clipPath>
</defs>
</svg>
