<svg width="30" height="28" viewBox="0 0 30 28" fill="none" xmlns="http://www.w3.org/2000/svg">
<path d="M17.5409 8.36327V5.54497C17.5409 4.9433 18.0475 4.43663 18.6492 4.43663C19.2509 4.43663 19.7575 4.9433 19.7575 5.54497V8.36327C19.7575 8.96494 19.2509 9.4716 18.6492 9.4716C18.0475 9.4716 17.5409 8.96494 17.5409 8.36327ZM18.5859 12.67C18.9342 12.67 19.2509 12.5433 19.4726 12.29C19.7259 12.0366 19.8526 11.72 19.8526 11.4033C19.8526 11.055 19.7259 10.7383 19.4726 10.5166C19.2509 10.2633 18.9026 10.1366 18.5859 10.1366C18.2376 10.1366 17.9209 10.2633 17.6992 10.5166C17.4459 10.7383 17.3192 11.0866 17.3192 11.4033C17.3192 11.72 17.4459 12.0683 17.6992 12.29C17.9209 12.5433 18.2692 12.67 18.5859 12.67ZM26.9776 11.4666C26.0276 12.4483 24.8559 13.0499 23.4625 13.2716C22.7659 17.5149 19.7892 19.6683 16.3059 20.1116V24.7666H19.0292C19.7259 24.7666 20.2959 25.3366 20.2959 26.0333C20.2959 26.7299 19.7259 27.3 19.0292 27.3H11.0809C10.3842 27.3 9.8142 26.7299 9.8142 26.0333C9.8142 25.3366 10.3842 24.7666 11.0809 24.7666H13.7725V20.1116C10.2892 19.6683 7.31254 17.5149 6.61588 13.2716C5.22254 13.0816 4.05088 12.48 3.10088 11.4666C0.504217 8.77495 0.63086 4.18325 0.662527 3.99325C0.694193 3.39159 1.16919 2.91662 1.77086 2.91662H6.52086V1.96662C6.52086 1.26995 7.0592 0.699951 7.75587 0.699951H22.3859C23.0826 0.699951 23.6209 1.26995 23.6209 1.96662V2.91662H28.3709C28.9725 2.91662 29.4475 3.39159 29.4792 3.99325C29.4159 4.18325 29.5426 8.80662 26.9776 11.4666ZM4.65256 9.9466C5.15922 10.4533 5.82421 10.8333 6.45754 10.9916V5.13328H2.84753C2.9742 6.39995 3.35422 8.58494 4.65256 9.9466ZM21.0242 3.23328H8.99088V11.4349C8.99088 16.0266 12.0942 17.6416 15.0075 17.6416C17.9209 17.6416 21.0242 15.9949 21.0242 11.4349V3.23328ZM25.3625 9.9466C26.5975 8.67994 27.0408 6.71662 27.1675 5.13328H23.5575V10.9916C24.1909 10.8016 24.8559 10.4533 25.3625 9.9466Z" fill="white"/>
</svg>
