<svg width="30" height="30" viewBox="0 0 30 30" fill="none" xmlns="http://www.w3.org/2000/svg">
<mask id="mask0_2276_6404" style="mask-type:alpha" maskUnits="userSpaceOnUse" x="6" y="0" width="18" height="30">
<path d="M24 20.25C24 18.2205 23.1225 13.5 15 13.5C9 13.5 9 10.776 9 9.75C9 8.823 9 6 15 6C19.2 6 19.485 8.517 19.5 9.021L21 9H22.5C22.5 7.113 21.1935 3.708 16.5 3.102V0H13.5V3.0615C6.771 3.609 6 7.854 6 9.75C6 12.2715 7.1685 16.5 15 16.5C21 16.5 21 19.323 21 20.25C21 21.276 21 24 15 24C9.309 24 9.015 21.2775 9 21H6C6 21.057 6.0945 26.307 13.5 26.9355V30H16.5V26.94C22.9785 26.43 24 22.599 24 20.25Z" fill="white"/>
</mask>
<g mask="url(#mask0_2276_6404)">
<rect width="30" height="30" fill="white"/>
</g>
</svg>
