<svg width="30" height="30" viewBox="0 0 30 30" fill="none" xmlns="http://www.w3.org/2000/svg">
<path d="M27.8906 7.03148H16.7578V0.585938C16.7578 0.262383 16.4955 0 16.1719 0H2.10938C1.78576 0 1.52344 0.262383 1.52344 0.585938V29.414C1.52344 29.7376 1.78576 29.9999 2.10938 29.9999H16.1719H27.8906C28.2142 29.9999 28.4766 29.7376 28.4766 29.414V7.61742C28.4766 7.29381 28.2142 7.03148 27.8906 7.03148ZM16.7578 8.20336H27.3047V22.9687H16.7578V8.20336ZM7.38281 28.8281V24.1406H10.8984V28.8281H7.38281ZM11.4844 22.9687H6.79688C6.47326 22.9687 6.21094 23.2311 6.21094 23.5546V28.8281H2.69531V1.17188H15.5859V28.8281H12.0703V23.5546C12.0703 23.2311 11.8079 22.9687 11.4844 22.9687ZM16.7578 28.8281V24.1406H27.3046V28.8281H16.7578Z" fill="white"/>
<path d="M8.55469 4.6875H9.72639C10.05 4.6875 10.3123 4.42518 10.3123 4.10156V2.92969C10.3123 2.60607 10.05 2.34375 9.72639 2.34375H8.55469C8.23107 2.34375 7.96875 2.60607 7.96875 2.92969V4.10156C7.96875 4.42518 8.23107 4.6875 8.55469 4.6875Z" fill="white"/>
<path d="M8.55469 8.78906H9.72639C10.05 8.78906 10.3123 8.52674 10.3123 8.20313V7.03125C10.3123 6.70764 10.05 6.44531 9.72639 6.44531H8.55469C8.23107 6.44531 7.96875 6.70764 7.96875 7.03125V8.20313C7.96875 8.52674 8.23107 8.78906 8.55469 8.78906Z" fill="white"/>
<path d="M8.55469 12.8906H9.72639C10.05 12.8906 10.3123 12.6283 10.3123 12.3047V11.1328C10.3123 10.8092 10.05 10.5469 9.72639 10.5469H8.55469C8.23107 10.5469 7.96875 10.8092 7.96875 11.1328V12.3047C7.96875 12.6283 8.23107 12.8906 8.55469 12.8906Z" fill="white"/>
<path d="M8.55469 16.9922H9.72639C10.05 16.9922 10.3123 16.7299 10.3123 16.4062V15.2344C10.3123 14.9108 10.05 14.6484 9.72639 14.6484H8.55469C8.23107 14.6484 7.96875 14.9108 7.96875 15.2344V16.4062C7.96875 16.7299 8.23107 16.9922 8.55469 16.9922Z" fill="white"/>
<path d="M8.55469 21.0938H9.72639C10.05 21.0938 10.3123 20.8314 10.3123 20.5078V19.3359C10.3123 19.0123 10.05 18.75 9.72639 18.75H8.55469C8.23107 18.75 7.96875 19.0123 7.96875 19.3359V20.5078C7.96875 20.8314 8.23107 21.0938 8.55469 21.0938Z" fill="white"/>
<path d="M4.45313 4.6875H5.62483C5.94844 4.6875 6.21076 4.42518 6.21076 4.10156V2.92969C6.21076 2.60607 5.94844 2.34375 5.62483 2.34375H4.45313C4.12951 2.34375 3.86719 2.60607 3.86719 2.92969V4.10156C3.86719 4.42518 4.12951 4.6875 4.45313 4.6875Z" fill="white"/>
<path d="M4.45313 8.78906H5.62483C5.94844 8.78906 6.21076 8.52674 6.21076 8.20313V7.03125C6.21076 6.70764 5.94844 6.44531 5.62483 6.44531H4.45313C4.12951 6.44531 3.86719 6.70764 3.86719 7.03125V8.20313C3.86719 8.52674 4.12951 8.78906 4.45313 8.78906Z" fill="white"/>
<path d="M4.45313 12.8906H5.62483C5.94844 12.8906 6.21076 12.6283 6.21076 12.3047V11.1328C6.21076 10.8092 5.94844 10.5469 5.62483 10.5469H4.45313C4.12951 10.5469 3.86719 10.8092 3.86719 11.1328V12.3047C3.86719 12.6283 4.12951 12.8906 4.45313 12.8906Z" fill="white"/>
<path d="M4.45313 16.9922H5.62483C5.94844 16.9922 6.21076 16.7299 6.21076 16.4062V15.2344C6.21076 14.9108 5.94844 14.6484 5.62483 14.6484H4.45313C4.12951 14.6484 3.86719 14.9108 3.86719 15.2344V16.4062C3.86719 16.7299 4.12951 16.9922 4.45313 16.9922Z" fill="white"/>
<path d="M4.45313 21.0938H5.62483C5.94844 21.0938 6.21076 20.8314 6.21076 20.5078V19.3359C6.21076 19.0123 5.94844 18.75 5.62483 18.75H4.45313C4.12951 18.75 3.86719 19.0123 3.86719 19.3359V20.5078C3.86719 20.8314 4.12951 21.0938 4.45313 21.0938Z" fill="white"/>
<path d="M13.8279 2.34375H12.6562C12.3326 2.34375 12.0703 2.60607 12.0703 2.92969V4.10156C12.0703 4.42518 12.3326 4.6875 12.6562 4.6875H13.8279C14.1516 4.6875 14.4139 4.42518 14.4139 4.10156V2.92969C14.4139 2.60607 14.1516 2.34375 13.8279 2.34375Z" fill="white"/>
<path d="M13.8279 6.44531H12.6562C12.3326 6.44531 12.0703 6.70764 12.0703 7.03125V8.20312C12.0703 8.52674 12.3326 8.78906 12.6562 8.78906H13.8279C14.1516 8.78906 14.4139 8.52674 14.4139 8.20312V7.03125C14.4139 6.7077 14.1516 6.44531 13.8279 6.44531Z" fill="white"/>
<path d="M13.8279 10.5469H12.6562C12.3326 10.5469 12.0703 10.8092 12.0703 11.1328V12.3047C12.0703 12.6283 12.3326 12.8906 12.6562 12.8906H13.8279C14.1516 12.8906 14.4139 12.6283 14.4139 12.3047V11.1328C14.4139 10.8093 14.1516 10.5469 13.8279 10.5469Z" fill="white"/>
<path d="M13.8279 14.6484H12.6562C12.3326 14.6484 12.0703 14.9108 12.0703 15.2344V16.4062C12.0703 16.7299 12.3326 16.9922 12.6562 16.9922H13.8279C14.1516 16.9922 14.4139 16.7299 14.4139 16.4062V15.2344C14.4139 14.9108 14.1516 14.6484 13.8279 14.6484Z" fill="white"/>
<path d="M13.8279 18.75H12.6562C12.3326 18.75 12.0703 19.0123 12.0703 19.3359V20.5078C12.0703 20.8314 12.3326 21.0938 12.6562 21.0938H13.8279C14.1516 21.0938 14.4139 20.8314 14.4139 20.5078V19.3359C14.4139 19.0123 14.1516 18.75 13.8279 18.75Z" fill="white"/>
<path d="M24.6678 10.5469H23.4961C23.1725 10.5469 22.9102 10.8092 22.9102 11.1328V12.3047C22.9102 12.6283 23.1725 12.8906 23.4961 12.8906H24.6678C24.9914 12.8906 25.2537 12.6283 25.2537 12.3047V11.1328C25.2537 10.8093 24.9913 10.5469 24.6678 10.5469Z" fill="white"/>
<path d="M24.6678 14.6484H23.4961C23.1725 14.6484 22.9102 14.9108 22.9102 15.2344V16.4062C22.9102 16.7299 23.1725 16.9922 23.4961 16.9922H24.6678C24.9914 16.9922 25.2537 16.7299 25.2537 16.4062V15.2344C25.2537 14.9108 24.9913 14.6484 24.6678 14.6484Z" fill="white"/>
<path d="M24.6678 18.75H23.4961C23.1725 18.75 22.9102 19.0123 22.9102 19.3359V20.5078C22.9102 20.8314 23.1725 21.0938 23.4961 21.0938H24.6678C24.9914 21.0938 25.2537 20.8314 25.2537 20.5078V19.3359C25.2537 19.0123 24.9913 18.75 24.6678 18.75Z" fill="white"/>
<path d="M20.5662 10.5469H19.3945C19.0709 10.5469 18.8086 10.8092 18.8086 11.1328V12.3047C18.8086 12.6283 19.0709 12.8906 19.3945 12.8906H20.5662C20.8898 12.8906 21.1522 12.6283 21.1522 12.3047V11.1328C21.1522 10.8093 20.8898 10.5469 20.5662 10.5469Z" fill="white"/>
<path d="M20.5662 14.6484H19.3945C19.0709 14.6484 18.8086 14.9108 18.8086 15.2344V16.4062C18.8086 16.7299 19.0709 16.9922 19.3945 16.9922H20.5662C20.8898 16.9922 21.1522 16.7299 21.1522 16.4062V15.2344C21.1522 14.9108 20.8898 14.6484 20.5662 14.6484Z" fill="white"/>
<path d="M20.5662 18.75H19.3945C19.0709 18.75 18.8086 19.0123 18.8086 19.3359V20.5078C18.8086 20.8314 19.0709 21.0938 19.3945 21.0938H20.5662C20.8898 21.0938 21.1522 20.8314 21.1522 20.5078V19.3359C21.1522 19.0123 20.8898 18.75 20.5662 18.75Z" fill="white"/>
</svg>
