<svg width="26" height="26" viewBox="0 0 26 26" fill="none" xmlns="http://www.w3.org/2000/svg">
<path d="M17.375 0.75C16.1453 0.749718 14.9326 1.0375 13.8341 1.59027C12.7356 2.14305 11.7819 2.94545 11.0493 3.93318C10.3168 4.92091 9.82579 6.0665 9.6157 7.27814C9.4056 8.48979 9.48225 9.73381 9.8395 10.9105L0.75 20V25.25H6L15.0895 16.1605C16.1727 16.4893 17.314 16.5807 18.4357 16.4285C19.5574 16.2763 20.633 15.8841 21.5894 15.2785C22.5458 14.673 23.3604 13.8684 23.9777 12.9196C24.5951 11.9708 25.0006 10.9 25.1666 9.78029C25.3327 8.66057 25.2554 7.51821 24.94 6.43106C24.6247 5.34391 24.0787 4.33753 23.3392 3.48049C22.5997 2.62345 21.6841 1.93591 20.6549 1.46471C19.6257 0.993512 18.507 0.749738 17.375 0.75ZM17.375 14.75C16.7726 14.7497 16.1735 14.6606 15.597 14.4858L14.5934 14.1813L13.8523 14.9224L11.0689 17.7057L9.86225 16.5L8.625 17.7372L9.83162 18.9439L8.44388 20.3316L7.23725 19.125L6 20.3622L7.20662 21.5689L5.2755 23.5H2.5V20.7245L11.0767 12.1477L11.8187 11.4066L11.5142 10.403C11.1403 9.17012 11.1646 7.8507 11.5837 6.63242C12.0028 5.41414 12.7954 4.35905 13.8488 3.61722C14.9021 2.8754 16.1626 2.48461 17.4509 2.50046C18.7391 2.51631 19.9896 2.93799 21.0244 3.7055C22.0592 4.47302 22.8256 5.54729 23.2146 6.77551C23.6036 8.00373 23.5955 9.32335 23.1912 10.5467C22.787 11.77 22.0074 12.8347 20.9632 13.5893C19.9189 14.344 18.6634 14.7501 17.375 14.75Z" fill="#544CA6"/>
</svg>
