<svg width="15" height="15" viewBox="0 0 15 15" fill="none" xmlns="http://www.w3.org/2000/svg">
<path d="M7.49955 0.346191C7.00568 0.346191 6.60532 0.746552 6.60532 1.24042V6.60581H1.23993C0.746064 6.60581 0.345703 7.00617 0.345703 7.50004C0.345703 7.99391 0.746064 8.39427 1.23993 8.39427H6.60532V13.7597C6.60532 14.2535 7.00568 14.6539 7.49955 14.6539C7.99342 14.6539 8.39378 14.2535 8.39378 13.7597V8.39427H13.7592C14.253 8.39427 14.6534 7.99391 14.6534 7.50004C14.6534 7.00617 14.253 6.60581 13.7592 6.60581H8.39378V1.24042C8.39378 0.746552 7.99342 0.346191 7.49955 0.346191Z" fill="currentColor"/>
</svg>
