<svg
        width="15"
        height="15"
        viewBox="0 0 15 15"
        fill="none"
        xmlns="http://www.w3.org/2000/svg">
    <path
            d="M7.51585 0.290329C7.01701 0.290329 6.61262 0.694717 6.61262 1.19355V6.61291H1.19326C0.694427 6.61291 0.290039 7.0173 0.290039 7.51614C0.290039 8.01497 0.694427 8.41936 1.19326 8.41936H6.61262V13.8387C6.61262 14.3376 7.01701 14.7419 7.51585 14.7419C8.01468 14.7419 8.41907 14.3376 8.41907 13.8387V8.41936H13.8384C14.3373 8.41936 14.7417 8.01497 14.7417 7.51614C14.7417 7.0173 14.3373 6.61291 13.8384 6.61291H8.41907V1.19355C8.41907 0.694717 8.01468 0.290329 7.51585 0.290329Z"
            fill="#323759" />
</svg>
    