<?xml version="1.0" encoding="UTF-8"?>
<svg id="svg10" width="32" height="32" fill="none" version="1.1" viewBox="0 0 32 32" xmlns="http://www.w3.org/2000/svg">
 <circle id="path853" cx="16" cy="16" r="16" fill="#f1556e" stroke-width="0"/>
 <g id="g939" transform="translate(9 9.0021)" stroke="#fbfbfb" stroke-linecap="round" stroke-linejoin="round" stroke-miterlimit="10" stroke-width="2">
  <path id="path2" d="m8.3334 9.4972-2.64-2.3761"/>
  <path id="path4" d="m8.308 7.1445-2.64 2.3761"/>
  <path id="path6" d="m5.6673 3.4001h2.6667c1.3333 0 1.3333-0.60003 1.3333-1.2001 0-1.2001-0.66667-1.2001-1.3333-1.2001h-2.6667c-0.66667 0-1.3333 0-1.3333 1.2001s0.66667 1.2001 1.3333 1.2001z"/>
  <path id="path8" d="m9.6667 2.2109c2.22 0.108 3.3333 0.84604 3.3333 3.5882v3.6002c0 2.4001-0.6667 3.6002-4 3.6002h-4c-3.3333 0-4-1.2001-4-3.6002v-3.6002c0-2.7361 1.1133-3.4802 3.3333-3.5882"/>
 </g>
</svg>
