<svg width="16" height="12" viewBox="0 0 16 12" fill="none" xmlns="http://www.w3.org/2000/svg">
<path fill-rule="evenodd" clip-rule="evenodd" d="M5.18784 1.67928L4.46962 0.976842C5.31346 0.396853 6.28912 0.0624711 7.2967 0.00793633C8.30428 -0.0465985 9.30759 0.180673 10.2039 0.666479C11.1002 1.15229 11.8572 1.87917 12.3975 2.7727C12.9379 3.66623 13.242 4.69431 13.2789 5.75165L14.4117 4.5776L15.1233 5.33377L13.1404 7.39334L12.4193 7.38339L10.4364 5.28402L11.1575 4.52785L12.3301 5.77155C12.2976 4.9126 12.0533 4.07715 11.6212 3.34665C11.1891 2.61616 10.5839 2.01555 9.86454 1.60339C9.14519 1.19123 8.33627 0.981575 7.51665 0.994876C6.69703 1.00818 5.89468 1.24398 5.18784 1.67928V1.67928ZM9.50471 10.5235L10.2485 11.2498C9.3999 11.7198 8.45174 11.9571 7.49217 11.9398C6.53261 11.9225 5.5928 11.651 4.7601 11.1507C3.92741 10.6503 3.22885 9.93729 2.72937 9.0779C2.22989 8.21852 1.9457 7.24065 1.90322 6.2352L0.740035 7.46298L0 6.69686L1.98292 4.6373L2.70398 4.64725L4.68689 6.75656L3.96583 7.51273L2.85862 6.33868C2.9146 7.13322 3.15173 7.90204 3.55006 8.58046C3.94839 9.25888 4.49626 9.82705 5.14759 10.2372C5.79892 10.6473 6.53465 10.8874 7.29288 10.9372C8.05111 10.987 8.80966 10.8451 9.50471 10.5235Z" fill="#323759"/>
<path d="M1.06445 0.945107L1.71151 0.216797L13.016 11.2718L12.369 12.0001L1.06445 0.945107Z" fill="#323759"/>
</svg>
