<svg width="427" height="277" viewBox="0 0 427 277" fill="none" xmlns="http://www.w3.org/2000/svg">
    <path d="M353.69 14.4082C359.553 31.9586 389.507 135.49 297.404 181.047C297.404 181.047 260.141 117.965 351.028 13.8705C351.822 12.9593 353.307 13.2617 353.69 14.4082Z" fill="#FFEAB7"/>
    <path d="M347.978 32.0815C347.517 37.9817 346.936 43.8622 346.304 49.7406C345.669 55.6191 344.966 61.4897 344.195 67.3504C342.653 79.0737 340.848 90.7655 338.684 102.396C336.512 114.022 333.999 125.598 330.857 137.018C329.303 142.733 327.544 148.396 325.567 153.986C323.583 159.574 321.373 165.094 318.728 170.429C318.532 170.823 318.056 170.983 317.663 170.789C317.269 170.593 317.107 170.117 317.303 169.724L317.305 169.72L317.307 169.716C319.948 164.476 322.173 159.02 324.177 153.488C326.176 147.951 327.963 142.332 329.546 136.651C332.748 125.301 335.33 113.773 337.571 102.184C339.807 90.5915 341.682 78.9275 343.299 67.2278C344.108 61.377 344.847 55.5183 345.519 49.6517C346.189 43.7851 346.808 37.9086 347.304 32.0281V32.0242C347.32 31.8384 347.482 31.702 347.668 31.7158C347.855 31.7356 347.994 31.8977 347.978 32.0815Z" fill="#F1E155"/>
    <path d="M407.892 34.1565C407.86 32.3281 405.393 31.7549 404.567 33.3856C396.573 49.1591 374.319 89.8637 348.739 108.736C307.09 139.465 272.256 195.86 287.928 231.746C287.928 231.746 411.236 233.418 407.892 34.1565Z" fill="#FFEAB7"/>
    <path d="M399.769 57.3152C399.621 57.8272 399.449 58.268 399.287 58.7344L398.779 60.1102L397.731 62.8498C397.024 64.6722 396.296 66.4848 395.563 68.2974C394.087 71.9166 392.567 75.518 391.013 79.1055C387.896 86.2747 384.591 93.3629 381.177 100.398C377.77 107.434 374.178 114.384 370.446 121.257L369.051 123.837L367.622 126.398C366.661 128.102 365.732 129.822 364.744 131.51L361.812 136.592L358.806 141.628C350.716 155.016 341.922 167.994 332.238 180.295C331.643 181.072 331.024 181.829 330.4 182.582L328.536 184.849L326.672 187.116C326.041 187.863 325.391 188.595 324.751 189.336C323.458 190.805 322.201 192.303 320.88 193.748L316.894 198.057C311.472 203.7 305.801 209.108 299.778 214.101C299.693 214.17 299.568 214.16 299.497 214.075C299.428 213.992 299.438 213.87 299.519 213.799L299.521 213.797C305.403 208.667 310.985 203.208 316.293 197.493L320.22 193.159C321.521 191.706 322.76 190.2 324.031 188.721C324.662 187.976 325.302 187.243 325.923 186.49L327.757 184.21L329.591 181.931C330.206 181.174 330.815 180.413 331.4 179.633L334.96 174.992C336.136 173.438 337.271 171.851 338.429 170.281C339.002 169.493 339.587 168.712 340.15 167.917L341.827 165.52L343.503 163.122C344.064 162.325 344.622 161.525 345.157 160.71C349.557 154.269 353.7 147.655 357.778 141.003C365.882 127.667 373.3 113.918 380.28 99.955C383.759 92.9676 387.099 85.9091 390.307 78.7912C391.916 75.2353 393.492 71.6635 395.023 68.072C395.784 66.2753 396.54 64.4746 397.275 62.6679L398.364 59.952L398.894 58.5882C399.06 58.1355 399.246 57.6651 399.38 57.2421L399.394 57.2006C399.427 57.0958 399.538 57.0385 399.641 57.0721C399.742 57.1057 399.799 57.2144 399.769 57.3152Z" fill="white"/>
    <path d="M298.687 271.96C298.687 271.96 299.884 246.637 326.069 221.665C350.363 198.493 409.994 144.98 424.204 114.852C424.833 113.518 426.827 113.968 426.803 115.445C426.548 131.272 422.795 170.859 394.416 209.564C357.823 259.479 298.687 271.96 298.687 271.96Z" fill="#FFEAB7"/>
    <path d="M414.23 142.936C413.69 146.397 412.721 149.779 411.571 153.086C411.429 153.501 411.296 153.918 411.148 154.331L410.68 155.559L409.739 158.014L408.697 160.427C408.343 161.228 408.021 162.046 407.616 162.825C404.6 169.154 401.063 175.248 397.015 180.984C396.063 182.461 394.958 183.827 393.906 185.232C392.833 186.619 391.823 188.058 390.664 189.379L387.282 193.415C386.733 194.101 386.114 194.726 385.521 195.372L383.728 197.299L381.934 199.226L381.034 200.187L380.091 201.104L376.32 204.777C375.687 205.384 375.073 206.012 374.424 206.601L372.483 208.366L368.601 211.897L364.68 215.383C363.369 216.542 362.069 217.712 360.742 218.852C358.103 221.149 355.451 223.428 352.773 225.678C350.108 227.945 347.41 230.168 344.722 232.406L336.592 239.032C331.17 243.441 325.742 247.839 320.471 252.405C319.136 253.53 317.861 254.716 316.565 255.882C315.908 256.458 315.296 257.074 314.667 257.677C314.046 258.286 313.406 258.879 312.799 259.502C311.611 260.771 310.374 262 309.277 263.35L308.429 264.342C308.291 264.51 308.14 264.668 308.01 264.842L307.62 265.364L306.063 267.457L306.057 267.465C305.992 267.554 305.867 267.572 305.778 267.507C305.693 267.444 305.674 267.325 305.731 267.238C307.66 264.301 309.898 261.581 312.293 259.015C312.89 258.373 313.519 257.762 314.13 257.134C314.748 256.511 315.353 255.874 315.995 255.281C317.268 254.08 318.526 252.854 319.836 251.694C325.031 246.995 330.431 242.546 335.783 238.053C341.144 233.568 346.505 229.089 351.814 224.553C357.129 220.022 362.369 215.411 367.573 210.756L371.446 207.23L373.381 205.467C374.027 204.88 374.64 204.265 375.27 203.664L379.03 200.043L379.971 199.137L380.868 198.191L382.657 196.291C387.492 191.284 391.894 185.876 396.005 180.265C400.14 174.667 403.775 168.699 406.906 162.479C407.323 161.714 407.657 160.91 408.041 160.127L409.158 157.765L410.174 155.357L410.682 154.153C410.844 153.748 410.99 153.339 411.144 152.932C411.445 152.114 411.769 151.303 412.047 150.479L412.864 147.994C413.356 146.322 413.864 144.648 414.182 142.932C414.184 142.918 414.196 142.908 414.21 142.91C414.222 142.91 414.232 142.922 414.23 142.936Z" fill="#FDD84C"/>
    <path d="M109.641 214.059C109.641 214.059 84.2588 106.887 31.6549 48.4164C28.1187 44.4849 21.6393 46.001 20.2419 51.0987C10.9063 85.1974 -7.01378 188.628 109.641 214.059Z" fill="#FFEAB7"/>
    <path d="M98.9652 207.15C99.2261 207.405 98.8802 207.81 98.5877 207.593C87.7637 199.542 45.9206 159.988 30.4733 81.1638C30.4238 80.9108 30.7954 80.8139 30.8666 81.063C36.1205 99.3329 57.5965 166.706 98.9652 207.15Z" fill="#FDD84C"/>
    <path d="M102.015 131.944C102.015 131.944 112.133 54.8204 92.0646 3.02496C90.7166 -0.457846 86.0577 -1.08246 83.8577 1.93387C69.1417 22.1053 31.3744 85.8989 102.015 131.944Z" fill="#FFEAB7"/>
    <path d="M96.6996 124.703C96.8083 124.938 96.4782 125.118 96.3399 124.9C91.2125 116.871 73.5059 80.2621 83.0747 24.3474C83.1064 24.1675 83.3752 24.1971 83.3613 24.379C82.2446 37.7588 79.5287 87.627 96.6996 124.703Z" fill="#FDD84C"/>
    <path d="M0.268223 164.825C-0.237793 164.512 0.0250998 163.732 0.61611 163.797C10.0505 164.819 44.3469 170.632 70.0806 202.294C93.6261 231.263 105.401 255.445 109.417 264.616C110.212 266.431 108.761 268.429 106.79 268.234C95.1125 267.071 62.5833 262.104 48.9762 242.249C32.7145 218.522 24.4087 179.732 0.268223 164.825Z" fill="#E5DDF2"/>
    <path opacity="0.5" d="M27.9746 181.207C27.9746 181.207 58.6894 192.798 106.96 264.901C106.96 264.901 54.6096 195.008 27.9746 181.207Z" fill="white"/>
    <path d="M363.498 261.801C363.498 264.661 361.156 267.001 358.294 267.001H76.8505C73.9883 267.001 71.646 264.661 71.646 261.801L69.3037 100.063C69.3037 97.2031 72.6739 91.6211 78.8488 92.0402L353.906 84.9224C357.497 84.8295 360.97 86.2111 363.514 88.7471C366.058 91.2831 367.45 94.7482 367.365 98.3357L363.498 261.801Z" fill="#FDD84C"/>
    <path d="M358.359 256.811C358.359 259.519 356.144 261.735 353.436 261.735H83.6385C80.9305 261.735 78.7147 259.519 78.7147 256.811L76.5049 109.986C76.7658 101.15 84.5122 97.9738 89.2067 98.1616L352.823 91.0892C355.347 91.022 357.786 91.9945 359.573 93.7754C361.36 95.5583 362.342 97.9975 362.279 100.522L358.359 256.811Z" fill="#FDD84C"/>
    <path d="M81.6299 186.733C81.4125 186.733 81.2366 186.559 81.2326 186.342L81.0587 174.434C81.0547 174.215 81.2306 174.033 81.45 174.031C81.452 174.031 81.454 174.031 81.456 174.031C81.6734 174.031 81.8493 174.205 81.8533 174.423L82.0272 186.33C82.0312 186.549 81.8552 186.731 81.6358 186.733C81.6339 186.733 81.6319 186.733 81.6299 186.733Z" fill="#FDD84C"/>
    <path d="M81.2012 157.554C80.9837 157.554 80.8078 157.38 80.8039 157.162L80.1338 111.558C80.1476 108.512 81.0865 106.079 82.9228 104.319C86.2653 101.117 91.4934 101.277 91.7148 101.287L175.899 99.0279C176.123 99.016 176.302 99.1959 176.308 99.4153C176.314 99.6347 176.14 99.8185 175.921 99.8245L91.7128 102.084C91.4776 102.076 86.5736 101.924 83.4723 104.896C81.7961 106.502 80.9422 108.743 80.9284 111.556L81.5985 157.152C81.6024 157.372 81.4265 157.554 81.2071 157.556C81.2051 157.554 81.2031 157.554 81.2012 157.554Z" fill="#FDD84C"/>
    <path d="M90.5996 248.664C90.8822 236.53 90.7775 129.067 90.0797 119.787C89.384 110.506 103.837 108.765 126.031 107.721C148.222 106.678 335.464 102.543 340.285 102.151C351.121 101.272 353.364 117.47 352.281 152.634C351.466 179.052 350.116 222.571 349.496 242.584C349.31 248.544 344.44 253.272 338.478 253.288C293.421 253.412 120.727 253.906 109.229 254.248C95.9997 254.642 90.4889 253.477 90.5996 248.664Z" fill="white"/>
    <path d="M384.846 275.255H56.0049C55.1886 275.255 54.5205 274.587 54.5205 273.77V262.527C54.5205 261.711 55.1886 261.043 56.0049 261.043H384.848C385.664 261.043 386.332 261.711 386.332 262.527V273.77C386.33 274.589 385.662 275.255 384.846 275.255Z" fill="#FDD84C"/>
    <g opacity="0.6">
    <path opacity="0.6" d="M113.918 193.98H101.621V247.193H113.918V193.98Z" fill="#B7A0DC"/>
    <path opacity="0.6" d="M134.465 212.27H122.168V247.194H134.465V212.27Z" fill="#B7A0DC"/>
    <path opacity="0.6" d="M155.011 167.07H142.715V247.193H155.011V167.07Z" fill="#B7A0DC"/>
    <path opacity="0.6" d="M175.558 227.945H163.262V247.194H175.558V227.945Z" fill="#B7A0DC"/>
    <path opacity="0.6" d="M196.108 177.781H183.812V247.192H196.108V177.781Z" fill="#B7A0DC"/>
    <path opacity="0.6" d="M216.655 189.801H204.358V247.194H216.655V189.801Z" fill="#B7A0DC"/>
    <path opacity="0.6" d="M237.202 202.863H224.905V247.193H237.202V202.863Z" fill="#B7A0DC"/>
    <path opacity="0.6" d="M257.749 150.871H245.452V247.192H257.749V150.871Z" fill="#B7A0DC"/>
    <path opacity="0.6" d="M278.296 161.062H265.999V247.196H278.296V161.062Z" fill="#B7A0DC"/>
    <path opacity="0.6" d="M298.844 176.477H286.548V247.194H298.844V176.477Z" fill="#B7A0DC"/>
    <path opacity="0.6" d="M319.391 229.73H307.095V247.192H319.391V229.73Z" fill="#B7A0DC"/>
    <path opacity="0.6" d="M339.938 195.809H327.642V247.193H339.938V195.809Z" fill="#B7A0DC"/>
    </g>
    <path d="M19.2323 126.424L148.66 124.236C153.87 124.147 158.052 128.616 157.742 133.943L153.287 210.555C153.044 214.747 149.67 218.032 145.568 218.072L21.1575 219.301C18.0838 219.331 15.5459 216.854 15.4292 213.711L12.4524 133.753C12.3042 129.798 15.364 126.489 19.2323 126.424Z" fill="#F1E155"/>
    <path d="M14.6124 135.349C14.4682 131.584 17.4489 128.437 21.2163 128.376L147.266 126.294C152.34 126.211 156.413 130.463 156.113 135.529L151.774 208.417C151.537 212.406 148.252 215.531 144.257 215.57L23.0941 216.741C20.1015 216.77 17.6288 214.412 17.5141 211.421L14.6124 135.349Z" fill="#F1E155"/>
    <path d="M17.285 137.529C17.1486 133.944 19.9851 130.947 23.5726 130.888L143.601 128.907C148.434 128.828 152.312 132.876 152.025 137.701L147.894 207.109C147.669 210.908 144.54 213.882 140.735 213.92L25.3595 215.035C22.5092 215.062 20.1551 212.817 20.0463 209.971L17.285 137.529Z" fill="#FFEAB7"/>
    <path d="M147.554 126.236L20.9773 128.325C17.194 128.388 14.2034 131.547 14.3457 135.328L14.5493 140.691H156.127L156.435 135.51C156.742 130.422 152.652 126.153 147.554 126.236Z" fill="#F1E155"/>
    <g opacity="0.85">
    <path opacity="0.85" d="M24.9587 130.916C24.9587 131.544 24.4487 132.054 23.8202 132.054C23.1916 132.054 22.6816 131.544 22.6816 130.916C22.6816 130.287 23.1916 129.777 23.8202 129.777C24.4507 129.777 24.9587 130.287 24.9587 130.916Z" fill="url(#paint0_linear_5499_24255)"/>
    <path opacity="0.85" d="M24.9587 134.252C24.9587 134.88 24.4487 135.39 23.8202 135.39C23.1916 135.39 22.6816 134.88 22.6816 134.252C22.6816 133.623 23.1916 133.113 23.8202 133.113C24.4507 133.113 24.9587 133.621 24.9587 134.252Z" fill="url(#paint1_linear_5499_24255)"/>
    <path opacity="0.85" d="M24.9587 137.588C24.9587 138.216 24.4487 138.726 23.8202 138.726C23.1916 138.726 22.6816 138.216 22.6816 137.588C22.6816 136.959 23.1916 136.449 23.8202 136.449C24.4507 136.449 24.9587 136.959 24.9587 137.588Z" fill="url(#paint2_linear_5499_24255)"/>
    </g>
    <path d="M45.0944 187.273C55.059 187.273 63.137 179.195 63.137 169.23C63.137 159.265 55.059 151.188 45.0944 151.188C35.1297 151.188 27.0518 159.265 27.0518 169.23C27.0518 179.195 35.1297 187.273 45.0944 187.273Z" fill="url(#paint3_linear_5499_24255)"/>
    <path d="M45.0942 173.208C47.2906 173.208 49.0711 171.427 49.0711 169.231C49.0711 167.034 47.2906 165.254 45.0942 165.254C42.8977 165.254 41.1172 167.034 41.1172 169.231C41.1172 171.427 42.8977 173.208 45.0942 173.208Z" fill="#F1E155"/>
    <path d="M54.7661 175.746C52.6808 178.808 49.1663 180.82 45.1815 180.82C38.7812 180.82 33.5925 175.632 33.5925 169.231C33.5925 162.831 38.7812 157.642 45.1815 157.642C45.3771 157.642 45.5728 157.648 45.7665 157.656V154.719C45.5728 154.711 45.3771 154.707 45.1815 154.707C37.1603 154.707 30.6572 161.21 30.6572 169.231C30.6572 177.252 37.1603 183.755 45.1815 183.755C50.1448 183.755 54.525 181.267 57.144 177.468L54.7661 175.746Z" fill="#F1E155"/>
    <path d="M76.9223 155.508C76.9124 156.969 75.7205 158.145 74.2618 158.135C72.801 158.125 71.6249 156.933 71.6348 155.475C71.6447 154.014 72.8366 152.838 74.2954 152.848C75.7561 152.858 76.9322 154.049 76.9223 155.508Z" fill="#F1E155"/>
    <path d="M71.9238 155.352C71.9298 155.251 71.9417 155.152 71.9595 155.055L71.9238 155.352Z" fill="url(#paint4_linear_5499_24255)"/>
    <path d="M76.9223 171.536C76.9124 172.996 75.7205 174.172 74.2618 174.163C72.803 174.153 71.6249 172.961 71.6348 171.502C71.6447 170.041 72.8366 168.865 74.2954 168.875C75.7561 168.885 76.9322 170.077 76.9223 171.536Z" fill="#F1E155"/>
    <path d="M71.9238 171.379C71.9298 171.278 71.9417 171.179 71.9595 171.082L71.9238 171.379Z" fill="url(#paint5_linear_5499_24255)"/>
    <path d="M76.9223 187.563C76.9124 189.024 75.7205 190.2 74.2618 190.19C72.801 190.18 71.6249 188.988 71.6348 187.529C71.6447 186.069 72.8366 184.893 74.2954 184.902C75.7561 184.91 76.9322 186.102 76.9223 187.563Z" fill="#F1E155"/>
    <path d="M71.9238 187.407C71.9298 187.305 71.9417 187.206 71.9595 187.109L71.9238 187.407Z" fill="url(#paint6_linear_5499_24255)"/>
    <path d="M80.9884 155.372L81.0003 155.823C81.0339 157.042 81.7949 158.009 82.7259 158.013L134.168 158.12C135.128 158.124 135.909 157.104 135.907 155.845C135.905 154.609 135.152 153.603 134.209 153.577L82.7555 153.02C81.7613 152.994 80.9529 154.068 80.9884 155.372Z" fill="#F1E155"/>
    <path d="M80.9884 171.317L81.0003 171.768C81.0339 172.988 81.7949 173.954 82.7259 173.958L134.168 174.065C135.128 174.069 135.909 173.049 135.907 171.79C135.905 170.554 135.152 169.548 134.209 169.523L82.7555 168.965C81.7613 168.94 80.9529 170.015 80.9884 171.317Z" fill="#F1E155"/>
    <path d="M80.9884 187.267L81.0003 187.717C81.0339 188.937 81.7949 189.904 82.7259 189.907L134.168 190.014C135.128 190.018 135.909 188.998 135.907 187.739C135.905 186.504 135.152 185.498 134.209 185.472L82.7555 184.915C81.7613 184.889 80.9529 185.964 80.9884 187.267Z" fill="#F1E155"/>
    <path d="M142.293 203.367C142.497 201.459 140.982 199.807 139.065 199.84L28.6332 201.799C26.6941 201.833 25.2334 203.576 25.5397 205.492L26.026 208.537C26.275 210.089 27.6172 211.23 29.1886 211.224L138.646 210.793C140.273 210.787 141.633 209.557 141.805 207.941L142.293 203.367Z" fill="#F1E155"/>
    <path d="M35.7031 276.137C35.7031 276.083 35.7012 276.028 35.6873 275.973C34.869 272.725 30.8031 270.703 30.8031 270.703L29.1921 270.83C28.2671 273.692 28.3857 275.447 28.5339 276.228C28.5379 276.25 28.5438 276.271 28.5497 276.291C29.88 276.41 32.6137 276.489 35.7031 276.137Z" fill="url(#paint7_linear_5499_24255)"/>
    <path d="M28.5518 276.293C28.6229 276.554 28.8166 276.757 29.0637 276.809C30.9534 277.206 33.9578 276.886 35.2189 276.722C35.4976 276.686 35.7012 276.427 35.7052 276.137C32.6137 276.491 29.88 276.411 28.5518 276.293Z" fill="#BDD0FB"/>
    <path d="M22.1724 218.664C21.1781 219.726 19.7134 220.643 18.6816 221.216C20.2214 223.119 22.3028 225.023 25.0602 226.889L25.8489 228.66L28.377 225.63C28.379 225.63 23.8426 223.37 22.1724 218.664Z" fill="url(#paint8_linear_5499_24255)"/>
    <path d="M28.5459 268.43L29.2278 271.713C29.2772 271.954 29.463 272.134 29.6864 272.156C29.9612 272.181 30.3506 272.197 30.7439 272.138C31.0957 272.086 31.3408 271.729 31.2776 271.345L30.8032 268.43H28.5459Z" fill="url(#paint9_linear_5499_24255)"/>
    <path d="M42.6781 276.259C40.8992 276.21 39.98 276 39.5037 275.805C39.5017 275.981 39.5037 276.162 39.5096 276.348C39.5155 276.548 39.6638 276.706 39.8456 276.706L49.6121 276.643C49.9244 276.641 50.1063 276.279 49.9719 275.994C48.689 276.099 45.4276 276.336 42.6781 276.259Z" fill="#BDD0FB"/>
    <path d="M49.9701 275.992C49.9583 275.967 49.9484 275.943 49.9306 275.919C49.0688 274.714 46.8708 272.314 42.5301 271.272L40.4468 271.207C40.4468 271.207 39.5197 272.818 39.502 275.805C39.9783 275.998 40.8974 276.208 42.6764 276.259C45.4279 276.336 48.6893 276.099 49.9701 275.992Z" fill="url(#paint10_linear_5499_24255)"/>
    <path d="M40.0635 268.053C40.0872 268.209 40.3718 270.567 40.4825 271.482C40.5082 271.7 40.6664 271.868 40.864 271.892C41.2178 271.933 41.793 271.973 42.2951 271.87C42.5659 271.814 42.7616 271.554 42.7616 271.251V267.547L40.0635 268.053Z" fill="url(#paint11_linear_5499_24255)"/>
    <path d="M38.3926 224.998C38.3926 224.998 43.4152 244.086 43.3243 268.108C43.3223 268.547 43.0159 268.925 42.587 269.014C41.9564 269.146 41.0274 269.304 40.2585 269.282C39.8474 269.27 39.5054 268.966 39.4362 268.563C38.7326 264.434 34.6904 241.165 32.3876 237.388C32.3876 237.388 30.8715 258.11 31.3578 268.861C31.3696 269.128 31.174 269.361 30.9091 269.391C30.5059 269.438 29.8615 269.472 29.0392 269.385C28.7269 269.352 28.4759 269.116 28.4324 268.806C27.9303 265.311 25.0425 244.503 25.167 229.517C25.1749 228.671 27.4026 224.996 27.4026 224.996H38.3926V224.998Z" fill="url(#paint12_linear_5499_24255)"/>
    <path d="M54.8168 183.891C52.6128 187.994 48.9521 192.183 42.9966 193.305C37.4996 194.341 27.6283 195.622 23.6593 196.122C22.4654 196.272 21.3743 196.861 20.5876 197.77C17.4685 201.38 10.6254 211.259 18.6801 221.215C19.71 220.644 21.1746 219.725 22.1709 218.663C21.2794 216.151 21.2063 212.941 23.0742 209.006C23.1374 209.318 23.2165 209.626 23.3133 209.931C25.8869 218.084 26.0253 224.87 26.0193 226.435C26.0193 226.647 26.1458 226.839 26.3435 226.918C29.7314 228.276 36.2523 227.467 38.4404 227.141C38.8417 227.082 39.1125 226.708 39.0571 226.305C37.9819 218.521 43.4966 205.718 44.9534 202.51C45.1669 202.042 45.5424 201.664 46.0109 201.453C54.3384 197.685 57.9596 191.886 59.4263 186.662C58.1573 184.958 56.1885 184.213 54.8168 183.891Z" fill="#F16856"/>
    <path d="M59.4259 186.662C61.2048 180.331 59.8212 174.844 59.8212 174.844H57.9237C57.9237 174.844 57.2753 179.315 54.8164 183.893C56.1882 184.213 58.1569 184.958 59.4259 186.662Z" fill="url(#paint13_linear_5499_24255)"/>
    <path d="M58.5918 175.853C58.5918 175.853 55.7039 172.112 56.6428 170.163C57.5817 168.214 60.7977 168.403 60.7977 168.403L61.2484 169.931C61.367 170.333 61.3511 170.764 61.2029 171.155L59.4259 175.853H58.5918Z" fill="url(#paint14_linear_5499_24255)"/>
    <path d="M29.5156 188.631L28.8633 195.302C28.8633 195.302 32.6149 196.433 35.3446 194.508L33.4253 188.445L29.5156 188.631Z" fill="url(#paint15_linear_5499_24255)"/>
    <path d="M33.8705 181.031C33.9615 181.116 37.6815 188.423 37.6815 188.423L33.4633 190.459L28.9072 184.057C28.9072 184.057 32.3584 179.608 33.8705 181.031Z" fill="url(#paint16_linear_5499_24255)"/>
    <path d="M30.7728 184.234C30.6977 184.428 30.7155 184.645 30.8242 184.825L32.9273 188.332C32.9589 188.385 32.9965 188.433 33.0419 188.476C33.293 188.709 34.1489 189.387 34.811 188.464C35.3763 187.677 35.9061 186.962 36.4734 186.667C36.8054 186.495 37.2126 186.632 37.3806 186.966C37.7265 187.654 38.3986 189.053 38.8196 190.382C38.9244 190.714 38.7544 191.071 38.4302 191.202C37.5763 191.548 35.8883 192.174 34.39 192.38C34.1449 192.413 33.8998 192.311 33.7535 192.109C33.1092 191.226 31.2926 188.759 30.674 188.142C30.0988 187.569 29.0353 187.784 28.557 187.923C28.3751 187.974 28.1814 187.95 28.0193 187.851C27.5331 187.559 26.6851 186.83 27.4619 185.596C27.6556 185.29 27.5568 184.881 27.2544 184.681C26.7128 184.323 26.1238 183.655 26.6832 182.57C27.2504 181.471 28.2644 181.374 28.9563 181.457C29.2626 181.495 29.573 181.335 29.6896 181.05C29.741 180.923 29.8457 180.815 30.0375 180.777C30.3992 180.704 30.6364 180.372 30.5652 180.01C30.4427 179.39 30.5356 178.581 31.5279 178.036C33.3483 177.035 34.9415 178.666 35.3467 180.042C35.7519 181.418 33.718 182.39 32.4371 182.552C31.4962 182.673 30.9803 183.699 30.7728 184.234Z" fill="url(#paint17_linear_5499_24255)"/>
    <path d="M31.4647 189.432C31.4647 189.432 30.6563 187.064 29.6205 187.151C28.5848 187.238 27.7704 188.27 29.0532 189.43C30.6503 190.871 31.4647 189.432 31.4647 189.432Z" fill="url(#paint18_linear_5499_24255)"/>
    <path d="M22.7341 208.395C21.3683 204.66 21.8644 200.147 21.8684 200.102L22.2439 200.145C22.238 200.189 21.7537 204.614 23.088 208.265L22.7341 208.395Z" fill="url(#paint19_linear_5499_24255)"/>
    <path d="M32.2024 236.902C32.1174 236.902 32.0423 236.845 32.0186 236.76C31.6015 235.153 28.4824 233.388 28.4508 233.37C28.3599 233.318 28.3263 233.204 28.3776 233.113C28.429 233.022 28.5437 232.988 28.6346 233.04C28.769 233.115 31.9257 234.902 32.3823 236.665C32.408 236.766 32.3487 236.87 32.2459 236.896C32.234 236.9 32.2182 236.902 32.2024 236.902Z" fill="url(#paint20_linear_5499_24255)"/>
    <path d="M306.352 90.768C305.963 84.759 302.336 79.436 296.896 76.8525L226.43 43.3843C221.917 41.2417 216.679 41.2417 212.166 43.3843L141.7 76.8525C136.26 79.436 132.633 84.759 132.244 90.768C125.634 192.94 191.145 230.167 212.621 239.57C216.881 241.436 221.719 241.436 225.977 239.57C247.451 230.167 312.962 192.94 306.352 90.768Z" fill="#FDD84C"/>
    <path d="M197.982 57.4821C197.61 57.4821 197.252 57.2726 197.082 56.9148C196.847 56.4187 197.059 55.8257 197.555 55.5905L214.206 47.682C214.702 47.4468 215.295 47.6583 215.53 48.1544C215.765 48.6506 215.554 49.2436 215.058 49.4788L198.407 57.3872C198.268 57.4505 198.124 57.4821 197.982 57.4821Z" fill="#F1E155"/>
    <path d="M137.63 112.627C137.096 112.627 136.655 112.204 136.636 111.666C136.412 105.021 136.529 98.0925 136.983 91.0736C137.26 86.7961 139.848 82.9931 143.736 81.145L191.139 58.6312C191.635 58.396 192.228 58.6075 192.463 59.1036C192.698 59.5998 192.487 60.1928 191.991 60.428L144.587 82.9417C141.352 84.4795 139.197 87.6441 138.966 91.202C138.517 98.1538 138.401 105.017 138.62 111.599C138.638 112.148 138.209 112.607 137.659 112.627C137.651 112.627 137.642 112.627 137.63 112.627Z" fill="#F1E155"/>
    <path d="M289.312 94.7557C289.235 93.2317 288.327 91.8718 286.95 91.2175L221.075 59.9315C219.95 59.3978 218.645 59.3978 217.521 59.9315L151.644 91.2175C150.266 91.8718 149.359 93.2317 149.282 94.7557C147.333 132.869 156.137 164.669 175.466 189.317C190.202 208.109 207.442 218.178 217.542 222.876C218.655 223.394 219.936 223.394 221.049 222.876C231.151 218.178 248.39 208.107 263.125 189.317C282.455 164.669 291.259 132.869 289.312 94.7557Z" fill="#FFF8BC"/>
    <path d="M199.818 135.705H193.252V109.543C193.252 99.2661 200.945 90.5828 211.146 89.3415L224.57 87.7108C230.347 87.0091 236.16 88.8197 240.517 92.678C244.873 96.5384 247.372 102.089 247.372 107.91V130.752H240.806V107.912C240.806 103.969 239.114 100.209 236.162 97.5939C233.211 94.9788 229.274 93.7533 225.36 94.2297L211.937 95.8604C205.027 96.7005 199.816 102.583 199.816 109.543V135.705H199.818Z" fill="white"/>
    <path d="M191.313 129.831L248.864 126.643C251.202 126.513 253.167 128.375 253.167 130.715V176.308C253.167 178.561 251.341 180.386 249.089 180.386H192.922C190.722 180.386 188.917 178.64 188.846 176.44L187.462 134.036C187.389 131.82 189.099 129.954 191.313 129.831Z" fill="white"/>
    <path d="M229.697 167.328L226.214 157.312C225.795 156.109 226.08 154.762 226.975 153.855C228.76 152.047 229.824 149.524 229.697 146.755C229.476 141.871 225.485 137.91 220.597 137.722C215.189 137.514 210.739 141.837 210.739 147.198C210.739 150.173 212.109 152.825 214.252 154.565C215.363 155.466 215.819 156.949 215.351 158.301L212.21 167.33C211.447 169.526 213.076 171.819 215.402 171.819H226.503C228.829 171.817 230.46 169.524 229.697 167.328Z" fill="#534859"/>
    <path d="M318.28 165.988C318.28 165.988 320.724 167.176 321.172 168.542C321.532 169.637 324.234 169.779 324.501 171.932C324.639 173.045 325.461 173.934 326.57 174.104C329.33 174.527 333.581 175.96 334.261 180.75C334.781 184.406 332.917 185.792 330.96 186.272C329.523 186.624 328.569 188.022 328.859 189.473C329.138 190.864 328.723 192.473 326.311 193.744C320.909 196.594 315.515 186.992 315.515 186.992L314.41 170.224L318.28 165.988Z" fill="url(#paint21_linear_5499_24255)"/>
    <path d="M292.855 157.148C292.855 157.148 299.805 176.096 311.649 182.018C311.649 182.018 307.708 188.45 305.65 188.84C305.65 188.84 292.998 172.647 291.709 159.382L292.855 157.148Z" fill="#FF9995"/>
    <path d="M340.484 271.124L340.834 273.998C340.901 274.544 341.33 274.975 341.875 275.036C342.797 275.141 344.275 275.25 345.722 275.095C346.356 275.028 346.77 274.386 346.576 273.777C346.224 272.668 345.578 271.002 344.649 270.023H341.46C340.869 270.025 340.413 270.539 340.484 271.124Z" fill="url(#paint22_linear_5499_24255)"/>
    <path d="M315.518 237.461L314.98 240.626C314.98 240.626 316.783 258.876 317.103 266.175C317.152 267.32 316.858 268.45 316.257 269.427L313.124 274.515L321.086 269.816L321.244 268.844L319.941 267.051L321.649 246.607C321.75 245.405 321.501 244.201 320.936 243.138L319.289 240.044L315.518 237.461Z" fill="#FF9995"/>
    <path d="M312.598 275.25H315.138C315.614 275.25 316.063 275.033 316.352 274.655C317.144 273.625 318.785 271.617 319.569 271.566C320.625 271.494 320.491 275.25 320.491 275.25H321.084L321.833 270.583C322.02 269.409 321.437 268.245 320.384 267.695C320.384 267.695 320.143 269.482 318.832 270.271C317.524 271.062 313.503 273.89 313.503 273.89C313.503 273.89 313.011 273.821 312.471 273.918C311.671 274.064 311.784 275.25 312.598 275.25Z" fill="url(#paint23_linear_5499_24255)"/>
    <path d="M326.423 238.964C326.423 238.964 336.978 258.985 338.656 263.557C340.334 268.129 340.921 271.942 340.945 272.303C340.981 272.867 341.682 273.408 343.617 273.408C344.616 273.408 345.104 273.009 345.345 272.622C345.549 272.291 345.561 271.878 345.389 271.528C344.778 270.293 342.841 266.344 342.123 264.553C341.267 262.414 339.423 252.725 338.413 249.355C337.403 245.985 336.261 242.33 331.859 238.964C331.855 238.964 328.832 236.005 326.423 238.964Z" fill="#FF9995"/>
    <path d="M319.755 206.16C317.034 194.622 323.93 188.098 323.93 188.098C319.578 183.921 311.649 182.02 311.649 182.02C311.649 182.02 304.083 187.552 304.98 191.881C305.506 194.419 310.299 207.081 310.299 207.081C310.299 207.081 314.729 209.178 319.755 206.16Z" fill="#F98B64"/>
    <path d="M325.791 211.873C324.683 208.534 319.755 206.16 319.755 206.16C314.728 209.178 310.297 207.081 310.297 207.081C310.297 207.081 309.302 210.88 309.988 214.411C310.674 217.941 314.977 240.629 314.977 240.629C321.759 242.002 332.188 239.247 332.188 239.247C327.869 231.578 326.9 215.209 325.791 211.873Z" fill="#534859"/>
    <path d="M316.595 174.391L318.808 184.333C319.02 185.209 318.221 185.066 317.336 184.898C315.885 184.626 314.017 184.062 313.392 182.934C313.329 182.819 313.298 182.689 313.28 182.558L312.329 175.664C312.254 175.116 312.548 174.586 313.054 174.361L314.889 173.547C315.594 173.236 316.413 173.64 316.595 174.391Z" fill="#FF9995"/>
    <path d="M323.93 188.098C323.93 188.098 339.379 199.151 325.907 210.766C325.907 210.766 325.393 211.347 324.383 211.649C323.873 211.801 322.363 212.944 321.598 213.539C321.353 213.73 320.997 213.665 320.831 213.4C320.7 213.193 320.687 212.934 320.791 212.715L322.705 208.67C323.236 208.174 324.049 208.139 324.62 208.587C324.986 208.874 325.519 208.753 325.723 208.338C326.765 206.217 328.731 199.977 320.681 192.927C320.378 192.662 320.301 192.223 320.487 191.867C321.052 190.78 322.347 188.621 323.93 188.098Z" fill="#FF9995"/>
    <path d="M313.997 164.93C313.997 164.93 311.376 166.037 309.593 169.826C307.811 173.615 309.143 175.365 310.815 175.604C312.487 175.843 314.988 175.807 317.632 173.36C320.277 170.911 317.405 163.618 313.997 164.93Z" fill="#FF9995"/>
    <path d="M315.853 171.334C315.853 171.334 317.832 165.792 312.918 165.727L311.762 166.535C311.762 166.535 309.959 163.462 312.918 161.995C315.877 160.528 319.34 161.74 320.601 165.727C321.86 169.714 322.076 172.382 319.98 174.29C317.885 176.197 317.021 174.035 317.021 174.035C317.021 174.035 318.162 172.25 317.697 171.295C317.233 170.34 316.162 171.493 316.162 171.493L315.853 171.334Z" fill="url(#paint24_linear_5499_24255)"/>
    <path d="M316.405 171.954C316.405 171.954 317.405 169.1 318.74 170.236C320.074 171.373 317.654 172.873 316.708 173.359L316.405 171.954Z" fill="#FF9995"/>
    <path d="M292.187 160.598C292.081 160.936 293.31 161.448 294.032 160.07C294.057 159.41 294.459 156.579 294.063 156.04C291.96 153.174 287.882 149.578 287.882 149.578C287.192 150.258 287.762 150.926 287.762 150.926L289.74 152.986C289.327 153.733 288.821 154.364 288.586 155.269C288.406 155.953 288.517 156.686 288.863 157.309C289.211 157.933 289.683 158.748 290.132 159.384C290.98 160.588 292.187 160.598 292.187 160.598Z" fill="#FF9995"/>
    <path d="M291.172 159.19C291.024 158.359 290.569 156.096 290.257 155.586C290.035 155.226 289.964 154.926 290.035 154.667C290.097 154.45 290.253 154.278 290.516 154.145L290.634 154.086L292.577 155.732L293.162 157.302L292.789 157.44L292.241 155.968L290.587 154.564C290.496 154.628 290.443 154.697 290.421 154.774C290.379 154.918 290.441 155.122 290.597 155.377C291.014 156.055 291.544 158.992 291.565 159.118L291.172 159.19Z" fill="#FF9995"/>
    <path d="M375.802 247.309H373.371V274.724H375.802V247.309Z" fill="#F1E155"/>
    <path d="M385.239 275.252H363.937V274.167C363.937 273.855 364.19 273.602 364.502 273.602H384.63C384.966 273.602 385.239 273.874 385.239 274.21V275.252Z" fill="#F1E155"/>
    <path d="M389.267 246.338C389.267 247.866 388.016 249.117 386.488 249.117H363.583C362.055 249.117 360.804 247.866 360.804 246.338V243.826C360.804 242.298 362.055 241.047 363.583 241.047H386.486C388.014 241.047 389.265 242.298 389.265 243.826V246.338H389.267Z" fill="#F1E155"/>
    <path d="M353.028 265.625C353.028 265.625 345.165 269.011 345.615 272.555C345.615 272.555 353.743 270.995 355.198 268.673C356.653 266.35 355.85 265.004 355.85 265.004L353.028 265.625Z" fill="#0B0264"/>
    <path d="M354.955 261.754L355.355 265.205C355.414 265.725 355.125 266.239 354.633 266.417C354.386 266.506 354.062 266.567 353.637 266.569C353.038 266.573 352.506 266.178 352.346 265.6L351.573 262.809L354.955 261.754Z" fill="url(#paint25_linear_5499_24255)"/>
    <path d="M372.13 235.293C372.13 235.293 357.669 234.623 350.472 238.819C343.275 243.016 350.837 263.158 350.837 263.158C350.837 263.158 352.717 263.561 355.423 262.116C355.423 262.116 351.561 247.372 358.269 244.807C365.812 241.923 373.616 242.624 373.616 242.624L372.171 235.75L372.13 235.293Z" fill="url(#paint26_linear_5499_24255)"/>
    <path d="M347.197 270.999C348.841 270.639 353.718 268.619 354.459 268.645C355.2 268.672 356.25 269.781 356.25 269.781C356.25 269.781 356.43 270.388 355.9 271.258C354.643 272.238 351.937 274.037 348.79 274.233C346.475 274.377 345.082 273.456 344.285 272.562C344.983 271.886 346.102 271.238 347.197 270.999Z" fill="url(#paint27_linear_5499_24255)"/>
    <path d="M348.79 274.237C351.937 274.039 354.643 272.24 355.9 271.262C355.542 271.851 354.86 272.558 353.577 273.284C350.397 275.081 345.141 274.818 344.099 274.414C343.265 274.09 343.522 273.311 344.285 272.568C345.082 273.462 346.475 274.381 348.79 274.237Z" fill="#F1E155"/>
    <path d="M357.976 267.979C357.869 268.386 356.716 269.61 356.05 270.292C355.734 270.616 355.273 270.754 354.833 270.657C354.552 270.596 354.236 270.501 353.961 270.351C353.55 270.128 353.406 269.604 353.633 269.195L355.317 266.133L357.976 267.979Z" fill="url(#paint28_linear_5499_24255)"/>
    <path d="M386.463 234.078C386.463 234.078 387.726 243.034 384.075 244.865C380.426 246.695 372.419 247.893 369.661 252.538C366.904 257.183 361.953 266.299 357.446 268.918C357.446 268.918 354.872 268.082 354.119 266.815C354.119 266.815 359.468 252.753 361.699 249.336C363.633 246.377 366.457 242.111 370.474 240.267C371.622 239.739 371.713 238.52 371.511 237.27L371.144 234.997L386.463 234.078Z" fill="url(#paint29_linear_5499_24255)"/>
    <path d="M352.634 223.928C357.751 225.388 360.04 210.987 360.021 210.637L367.866 219.81C367.866 219.81 363.191 228.035 356.133 228.911C354.346 229.132 352.828 228.824 351.553 228.239C352.494 226.703 352.707 225.185 352.634 223.928Z" fill="#544CA6"/>
    <path d="M343.158 219.214C345.388 218.297 347.28 220.127 347.28 220.127C349.489 222.389 351.243 223.531 352.634 223.928C352.707 225.186 352.492 226.704 351.553 228.241C348.796 226.978 347.189 224.425 346.527 223.152C346.287 222.693 345.73 222.499 345.263 222.725C344.791 222.954 344.303 223.302 344.273 223.776C344.214 224.711 343.101 224.765 343.095 224.421C343.089 224.075 343.955 222.231 343.955 222.231C343.955 222.231 341.393 223.875 340.395 224.504C339.397 225.132 338.549 224.095 338.549 224.095C338.549 224.095 340.929 220.129 343.158 219.214Z" fill="url(#paint30_linear_5499_24255)"/>
    <path d="M384.492 204.711C384.492 204.711 377.615 200.021 361.007 208.505C361.007 208.505 359.298 210.673 360.098 213.116C360.899 215.559 370.76 228.787 371.144 234.997C371.144 234.997 377.884 238.964 386.634 235.031C386.634 235.031 389.568 218.635 384.492 204.711Z" fill="#544CA6"/>
    <path d="M370.173 198.715L372.891 204.04C373.161 204.568 373.104 205.208 372.734 205.673C371.985 206.609 370.424 207.871 367.757 207.058C366.965 206.817 366.358 206.171 366.166 205.364L364.757 199.421L370.173 198.715Z" fill="url(#paint31_linear_5499_24255)"/>
    <path d="M389.583 223.303C390.048 220.065 381.495 213.794 381.495 213.794L384.492 204.711C384.492 204.711 400.813 216.359 397.381 225.871C396.889 227.235 396.156 228.227 395.26 228.932C393.531 225.386 391.186 223.914 389.583 223.303Z" fill="#544CA6"/>
    <path d="M377.651 224.204C377.651 224.204 387.326 226.906 389.334 223.961C389.471 223.761 389.55 223.542 389.584 223.305C391.187 223.913 393.531 225.386 395.26 228.932C390.667 232.545 381.81 228.495 379.402 227.28C379.007 227.08 378.55 227.041 378.127 227.173C377.271 227.44 375.789 227.855 374.961 227.809C373.751 227.742 372.454 232.113 370.396 231.006C370.396 231.008 371.331 223.542 377.651 224.204Z" fill="url(#paint32_linear_5499_24255)"/>
    <path d="M364.5 190.461C364.5 190.461 361.966 194.671 361.527 197C361.088 199.326 360.382 200.781 363.031 201.611C365.68 202.441 368.141 201.392 369.686 199.217C369.686 199.217 372.1 195.875 371.859 194.343C371.617 192.811 364.5 190.461 364.5 190.461Z" fill="url(#paint33_linear_5499_24255)"/>
    <path d="M368.981 197.417L368.639 197.371C368.639 197.371 370.432 194.661 369.259 193.989C368.085 193.317 363.304 191.667 362.472 189.783C361.671 187.966 362.869 185.917 364.312 185.488C364.403 185.46 364.5 185.515 364.533 185.604L364.618 185.834C364.676 185.99 364.895 185.996 364.962 185.843C365.026 185.699 365.233 185.691 365.298 185.836C365.553 186.399 366.322 187.363 368.621 188.109C371.884 189.166 373.918 190.813 373.667 193.131C373.652 193.277 373.798 193.38 373.932 193.319C374.199 193.2 374.604 193.183 375.073 193.697C375.889 194.59 375.251 196.543 373.019 197.927C372.912 197.992 372.894 198.142 372.989 198.223C373.323 198.51 373.792 199.146 372.284 199.713C370.74 200.295 369.898 200.097 369.586 199.972C369.503 199.939 369.453 199.852 369.471 199.763L369.868 197.731C369.888 197.626 369.817 197.525 369.71 197.511L368.981 197.417Z" fill="#1A0F91"/>
    <path d="M368.84 197.837C368.84 197.837 369.959 195.082 371.131 196.05C372.305 197.019 370.046 199.159 369.004 199.132L368.84 197.837Z" fill="url(#paint34_linear_5499_24255)"/>
    <path d="M365.297 230.364C365.279 230.364 365.263 230.366 365.246 230.366L342.641 230.343C342.082 230.343 341.629 229.888 341.631 229.331C341.631 228.771 342.087 228.311 342.643 228.32L365.248 228.344C365.807 228.344 366.26 228.799 366.258 229.356C366.258 229.896 365.831 230.337 365.297 230.364Z" fill="url(#paint35_linear_5499_24255)"/>
    <path d="M322.321 209.84H341.146C342.536 209.84 343.799 210.64 344.392 211.898L353.095 230.351H329.702C328.806 230.351 328.002 229.804 327.674 228.972L320.926 211.896C320.532 210.909 321.26 209.84 322.321 209.84Z" fill="url(#paint36_linear_5499_24255)"/>
    <path d="M335.582 219.299C335.989 220.566 335.689 221.798 334.908 222.049C334.13 222.3 333.165 221.476 332.758 220.209C332.351 218.942 332.651 217.71 333.432 217.459C334.213 217.208 335.175 218.032 335.582 219.299Z" fill="url(#paint37_linear_5499_24255)"/>
    <path d="M325.373 275.254C325.249 275.254 325.12 275.233 324.998 275.185C324.515 274.999 324.294 274.501 324.5 274.072L344.42 232.739C344.628 232.308 345.185 232.111 345.667 232.296C346.15 232.482 346.371 232.98 346.165 233.409L326.245 274.742C326.091 275.063 325.741 275.254 325.373 275.254Z" fill="#F1E155"/>
    <path d="M347.814 275.256C347.446 275.256 347.097 275.064 346.94 274.742L327.02 233.409C326.812 232.978 327.036 232.48 327.518 232.296C328 232.11 328.558 232.31 328.765 232.739L348.686 274.072C348.893 274.503 348.67 275.001 348.188 275.185C348.067 275.234 347.941 275.256 347.814 275.256Z" fill="#F1E155"/>
    <path d="M387.038 275.254C386.914 275.254 386.785 275.233 386.663 275.185C386.18 274.999 385.959 274.501 386.165 274.072L406.085 232.739C406.293 232.308 406.85 232.111 407.332 232.296C407.815 232.482 408.036 232.98 407.83 233.409L387.91 274.742C387.756 275.063 387.406 275.254 387.038 275.254Z" fill="#F1E155"/>
    <path d="M409.479 275.256C409.111 275.256 408.762 275.064 408.605 274.742L388.685 233.409C388.477 232.978 388.701 232.48 389.183 232.296C389.665 232.11 390.223 232.31 390.43 232.739L410.351 274.072C410.558 274.503 410.335 275.001 409.853 275.185C409.732 275.234 409.606 275.256 409.479 275.256Z" fill="#F1E155"/>
    <path d="M411.817 231.376C411.868 231.074 411.799 230.761 411.629 230.524C411.459 230.287 411.206 230.148 410.937 230.148H320.309C319.957 230.148 319.629 230.354 319.439 230.696C319.249 231.036 319.224 231.465 319.372 231.833L320.354 234.278C320.58 234.837 321.066 235.197 321.604 235.197H410.314C410.812 235.197 411.241 234.79 411.336 234.226L411.817 231.376Z" fill="#BDD0FB"/>
    <path d="M301.139 12.5219L236.339 12.1602C233.686 12.1464 232.038 15.0382 233.404 17.3133L233.73 17.8549C234.345 18.8787 235.452 19.5053 236.645 19.5053H301.121C302.999 19.5053 304.523 17.9833 304.523 16.1036V15.9217C304.521 14.0518 303.011 12.5318 301.139 12.5219Z" fill="#F1E155"/>
    <path d="M310.191 15.9995V16.1043C310.191 17.9821 311.713 19.506 313.593 19.506H327.977C329.517 19.506 330.865 18.4703 331.262 16.9819C331.837 14.8313 330.226 12.7183 328.001 12.7025L313.615 12.5977C311.729 12.5839 310.191 14.1118 310.191 15.9995Z" fill="#F1E155"/>
    <path d="M285.551 24.7329L236.339 24.3711C233.686 24.3573 232.038 27.2491 233.404 29.5242L233.73 30.0658C234.345 31.0897 235.452 31.7163 236.645 31.7163H285.533C287.411 31.7163 288.935 30.1943 288.935 28.3145V28.1327C288.933 26.2628 287.423 24.7427 285.551 24.7329Z" fill="#F1E155"/>
    <path d="M294.604 28.2105V28.3152C294.604 30.193 296.126 31.717 298.005 31.717H312.389C313.929 31.717 315.277 30.6812 315.674 29.1928C316.25 27.0423 314.639 24.9293 312.413 24.9134L298.027 24.8087C296.141 24.7949 294.604 26.3228 294.604 28.2105Z" fill="#F1E155"/>
    <path d="M343.389 204.286C343.236 204.286 343.084 204.243 342.948 204.152C342.582 203.909 342.483 203.415 342.726 203.049C342.944 202.723 343.159 202.393 343.373 202.063C343.61 201.693 344.102 201.586 344.472 201.823C344.841 202.061 344.948 202.553 344.711 202.922C344.493 203.26 344.274 203.598 344.051 203.932C343.897 204.162 343.645 204.286 343.389 204.286ZM345.498 200.916C345.361 200.916 345.223 200.881 345.096 200.805C344.717 200.582 344.59 200.096 344.814 199.716C345.013 199.378 345.209 199.036 345.403 198.694C345.618 198.313 346.104 198.176 346.486 198.392C346.869 198.607 347.004 199.094 346.788 199.475C346.591 199.825 346.389 200.175 346.185 200.521C346.037 200.774 345.77 200.916 345.498 200.916ZM347.415 197.429C347.292 197.429 347.168 197.402 347.053 197.34C346.662 197.139 346.508 196.66 346.709 196.269C346.889 195.919 347.065 195.567 347.239 195.216C347.433 194.82 347.911 194.658 348.304 194.852C348.698 195.046 348.862 195.522 348.668 195.917C348.49 196.279 348.31 196.639 348.126 196.996C347.982 197.273 347.704 197.429 347.415 197.429ZM349.127 193.84C349.02 193.84 348.909 193.818 348.806 193.773C348.405 193.595 348.223 193.124 348.399 192.723C348.557 192.363 348.714 192.002 348.866 191.64C349.036 191.235 349.504 191.045 349.907 191.215C350.313 191.385 350.502 191.851 350.332 192.257C350.176 192.628 350.016 192.998 349.854 193.365C349.724 193.664 349.433 193.84 349.127 193.84ZM350.627 190.155C350.534 190.155 350.441 190.14 350.35 190.106C349.939 189.952 349.73 189.495 349.882 189.082C350.018 188.714 350.153 188.343 350.283 187.973C350.429 187.558 350.884 187.341 351.297 187.487C351.712 187.633 351.93 188.088 351.783 188.501C351.649 188.88 351.512 189.26 351.372 189.636C351.253 189.958 350.951 190.155 350.627 190.155ZM152.769 188.653C152.33 188.653 151.972 188.297 151.972 187.859C151.972 187.42 152.328 187.062 152.767 187.062C153.16 187.062 153.556 187.058 153.949 187.052C153.953 187.052 153.957 187.052 153.961 187.052C154.396 187.052 154.749 187.4 154.755 187.835C154.761 188.274 154.411 188.635 153.973 188.643C153.571 188.649 153.17 188.651 152.769 188.653ZM149.988 188.604C149.978 188.604 149.968 188.604 149.96 188.604C149.559 188.59 149.16 188.572 148.758 188.554C148.32 188.533 147.982 188.159 148.003 187.72C148.025 187.281 148.401 186.939 148.837 186.965C149.231 186.985 149.624 187.001 150.017 187.015C150.456 187.03 150.8 187.398 150.784 187.837C150.769 188.266 150.415 188.604 149.988 188.604ZM156.744 188.556C156.321 188.556 155.969 188.224 155.949 187.797C155.93 187.358 156.269 186.987 156.708 186.965C157.102 186.947 157.495 186.928 157.888 186.904C158.327 186.878 158.703 187.212 158.728 187.651C158.754 188.09 158.42 188.465 157.981 188.491C157.582 188.515 157.181 188.535 156.781 188.554C156.768 188.556 156.756 188.556 156.744 188.556ZM146.021 188.368C145.999 188.368 145.975 188.368 145.953 188.367C145.554 188.333 145.153 188.297 144.754 188.258C144.317 188.214 143.997 187.825 144.04 187.388C144.084 186.951 144.473 186.631 144.91 186.675C145.301 186.714 145.693 186.75 146.086 186.781C146.525 186.817 146.849 187.202 146.813 187.641C146.778 188.056 146.432 188.368 146.021 188.368ZM160.707 188.293C160.298 188.293 159.952 187.981 159.914 187.566C159.877 187.129 160.201 186.742 160.638 186.704C161.031 186.671 161.423 186.633 161.816 186.595C162.253 186.552 162.642 186.872 162.686 187.309C162.729 187.746 162.409 188.135 161.972 188.179C161.575 188.218 161.175 188.254 160.776 188.289C160.752 188.293 160.731 188.293 160.707 188.293ZM142.069 187.944C142.034 187.944 142 187.942 141.965 187.936C141.567 187.882 141.17 187.827 140.771 187.77C140.336 187.706 140.035 187.301 140.099 186.866C140.162 186.431 140.567 186.129 141.002 186.194C141.391 186.252 141.781 186.307 142.172 186.358C142.607 186.416 142.913 186.815 142.856 187.252C142.805 187.651 142.463 187.944 142.069 187.944ZM164.658 187.874C164.263 187.874 163.921 187.58 163.87 187.179C163.814 186.742 164.123 186.344 164.559 186.289C164.951 186.24 165.342 186.188 165.732 186.135C166.164 186.074 166.568 186.378 166.629 186.815C166.688 187.25 166.386 187.651 165.949 187.712C165.552 187.768 165.156 187.819 164.759 187.87C164.724 187.872 164.69 187.874 164.658 187.874ZM138.142 187.327C138.094 187.327 138.047 187.323 138 187.313C137.604 187.242 137.209 187.167 136.816 187.09C136.385 187.005 136.104 186.588 136.187 186.157C136.272 185.726 136.689 185.445 137.12 185.53C137.507 185.605 137.893 185.678 138.282 185.749C138.715 185.829 139.002 186.242 138.923 186.675C138.853 187.058 138.519 187.327 138.142 187.327ZM168.59 187.299C168.208 187.299 167.87 187.022 167.805 186.633C167.734 186.2 168.026 185.791 168.459 185.718C168.849 185.653 169.238 185.587 169.626 185.518C170.056 185.443 170.472 185.73 170.547 186.163C170.624 186.595 170.333 187.009 169.902 187.084C169.509 187.153 169.114 187.22 168.718 187.285C168.677 187.295 168.633 187.299 168.59 187.299ZM172.5 186.578C172.13 186.578 171.798 186.317 171.721 185.941C171.634 185.51 171.911 185.091 172.341 185.002C172.729 184.923 173.114 184.842 173.502 184.759C173.933 184.666 174.354 184.941 174.447 185.37C174.539 185.799 174.265 186.222 173.836 186.315C173.444 186.4 173.051 186.481 172.66 186.56C172.606 186.574 172.553 186.578 172.5 186.578ZM134.246 186.526C134.187 186.526 134.127 186.52 134.066 186.506C133.675 186.416 133.283 186.323 132.894 186.228C132.467 186.123 132.206 185.692 132.311 185.265C132.416 184.838 132.846 184.577 133.273 184.682C133.657 184.777 134.04 184.868 134.424 184.957C134.853 185.056 135.12 185.483 135.021 185.912C134.936 186.277 134.608 186.526 134.246 186.526ZM351.904 186.388C351.827 186.388 351.75 186.376 351.673 186.352C351.252 186.224 351.016 185.779 351.143 185.36C351.257 184.985 351.368 184.607 351.475 184.229C351.595 183.806 352.034 183.561 352.457 183.682C352.88 183.802 353.125 184.241 353.005 184.664C352.894 185.052 352.781 185.437 352.663 185.823C352.56 186.167 352.244 186.388 351.904 186.388ZM176.384 185.716C176.024 185.716 175.698 185.471 175.611 185.107C175.508 184.68 175.771 184.249 176.198 184.146C176.581 184.054 176.965 183.961 177.348 183.864C177.775 183.757 178.206 184.016 178.315 184.441C178.422 184.868 178.163 185.299 177.738 185.408C177.348 185.506 176.961 185.601 176.571 185.694C176.508 185.71 176.445 185.716 176.384 185.716ZM130.39 185.54C130.318 185.54 130.245 185.53 130.174 185.51C129.787 185.402 129.401 185.289 129.016 185.174C128.595 185.05 128.356 184.607 128.48 184.186C128.605 183.765 129.049 183.524 129.468 183.65C129.846 183.763 130.225 183.872 130.605 183.978C131.028 184.097 131.275 184.536 131.155 184.959C131.058 185.311 130.737 185.54 130.39 185.54ZM180.236 184.72C179.888 184.72 179.568 184.488 179.469 184.137C179.353 183.714 179.6 183.275 180.025 183.158C180.406 183.053 180.786 182.945 181.167 182.836C181.59 182.715 182.031 182.958 182.151 183.381C182.272 183.804 182.029 184.245 181.606 184.366C181.22 184.477 180.835 184.585 180.45 184.692C180.376 184.712 180.305 184.72 180.236 184.72ZM126.585 184.37C126.502 184.37 126.417 184.356 126.332 184.328C125.95 184.202 125.571 184.071 125.191 183.937C124.776 183.791 124.559 183.338 124.703 182.923C124.847 182.508 125.302 182.288 125.717 182.435C126.088 182.565 126.462 182.694 126.836 182.818C127.253 182.956 127.478 183.409 127.338 183.824C127.229 184.158 126.919 184.37 126.585 184.37ZM184.055 183.597C183.717 183.597 183.403 183.379 183.296 183.038C183.165 182.618 183.399 182.172 183.818 182.041C184.195 181.923 184.573 181.804 184.948 181.684C185.367 181.549 185.814 181.778 185.949 182.197C186.083 182.617 185.854 183.063 185.435 183.198C185.053 183.32 184.672 183.441 184.29 183.561C184.213 183.585 184.132 183.597 184.055 183.597ZM122.841 183.016C122.744 183.016 122.647 182.998 122.552 182.96C122.177 182.814 121.803 182.666 121.43 182.514C121.022 182.348 120.827 181.883 120.993 181.476C121.159 181.069 121.621 180.873 122.028 181.039C122.394 181.187 122.76 181.334 123.127 181.476C123.537 181.636 123.74 182.097 123.58 182.506C123.46 182.824 123.159 183.016 122.841 183.016ZM352.944 182.549C352.882 182.549 352.821 182.541 352.76 182.528C352.333 182.427 352.068 181.998 352.169 181.571C352.26 181.189 352.347 180.806 352.43 180.42C352.522 179.992 352.945 179.721 353.376 179.812C353.805 179.905 354.078 180.328 353.985 180.758C353.9 181.152 353.811 181.545 353.718 181.937C353.629 182.302 353.303 182.549 352.944 182.549ZM187.836 182.356C187.506 182.356 187.198 182.15 187.085 181.82C186.941 181.405 187.16 180.952 187.577 180.808C187.951 180.677 188.324 180.547 188.698 180.415C189.111 180.266 189.568 180.484 189.714 180.897C189.86 181.31 189.645 181.767 189.232 181.913C188.854 182.047 188.477 182.18 188.099 182.31C188.01 182.34 187.921 182.356 187.836 182.356ZM119.166 181.48C119.058 181.48 118.947 181.458 118.842 181.411C118.474 181.247 118.109 181.079 117.743 180.909C117.346 180.723 117.172 180.25 117.358 179.851C117.543 179.454 118.016 179.28 118.415 179.466C118.773 179.632 119.131 179.796 119.492 179.958C119.894 180.138 120.074 180.608 119.894 181.01C119.761 181.306 119.471 181.48 119.166 181.48ZM191.578 180.998C191.256 180.998 190.953 180.802 190.835 180.484C190.679 180.073 190.886 179.614 191.297 179.458C191.667 179.318 192.036 179.175 192.406 179.033C192.817 178.875 193.278 179.076 193.436 179.486C193.594 179.895 193.392 180.357 192.983 180.515C192.61 180.66 192.236 180.804 191.861 180.946C191.768 180.982 191.673 180.998 191.578 180.998ZM115.573 179.76C115.45 179.76 115.328 179.733 115.211 179.673C114.851 179.489 114.496 179.304 114.14 179.116C113.752 178.91 113.604 178.428 113.81 178.041C114.015 177.651 114.498 177.505 114.885 177.711C115.233 177.896 115.583 178.078 115.935 178.256C116.326 178.456 116.482 178.936 116.28 179.327C116.142 179.602 115.863 179.76 115.573 179.76ZM195.282 179.537C194.97 179.537 194.671 179.351 194.545 179.043C194.379 178.636 194.572 178.171 194.978 178.005C195.343 177.855 195.709 177.703 196.075 177.548C196.48 177.378 196.946 177.568 197.116 177.973C197.286 178.379 197.097 178.845 196.691 179.015C196.322 179.171 195.952 179.323 195.583 179.476C195.484 179.517 195.381 179.537 195.282 179.537ZM353.734 178.651C353.691 178.651 353.645 178.647 353.6 178.64C353.167 178.566 352.874 178.155 352.948 177.722C353.013 177.335 353.074 176.948 353.131 176.56C353.195 176.125 353.6 175.825 354.035 175.89C354.47 175.953 354.77 176.359 354.705 176.793C354.645 177.193 354.582 177.59 354.515 177.989C354.452 178.377 354.114 178.651 353.734 178.651ZM198.943 177.975C198.636 177.975 198.346 177.798 198.215 177.501C198.038 177.1 198.219 176.629 198.623 176.451C198.984 176.291 199.346 176.129 199.708 175.967C200.107 175.787 200.579 175.965 200.759 176.366C200.939 176.768 200.761 177.238 200.36 177.418C199.994 177.582 199.629 177.746 199.263 177.908C199.16 177.954 199.052 177.975 198.943 177.975ZM112.074 177.859C111.94 177.859 111.801 177.825 111.677 177.752C111.327 177.55 110.981 177.345 110.635 177.137C110.258 176.912 110.137 176.422 110.362 176.046C110.588 175.669 111.078 175.548 111.453 175.773C111.792 175.977 112.131 176.177 112.473 176.374C112.853 176.594 112.983 177.082 112.764 177.461C112.616 177.716 112.349 177.859 112.074 177.859ZM202.564 176.321C202.266 176.321 201.979 176.153 201.844 175.864C201.657 175.467 201.827 174.993 202.224 174.805C202.582 174.635 202.94 174.465 203.297 174.293C203.693 174.103 204.169 174.269 204.359 174.665C204.549 175.06 204.382 175.536 203.987 175.726C203.627 175.9 203.266 176.072 202.904 176.242C202.793 176.297 202.679 176.321 202.564 176.321ZM108.68 175.769C108.53 175.769 108.38 175.728 108.245 175.639C107.907 175.418 107.573 175.194 107.239 174.969C106.876 174.722 106.781 174.228 107.026 173.864C107.273 173.5 107.767 173.405 108.131 173.651C108.457 173.872 108.785 174.089 109.115 174.307C109.483 174.548 109.586 175.04 109.346 175.408C109.194 175.643 108.939 175.769 108.68 175.769ZM354.262 174.708C354.236 174.708 354.209 174.706 354.183 174.704C353.746 174.661 353.426 174.271 353.469 173.834C353.509 173.445 353.542 173.054 353.574 172.662C353.608 172.223 353.993 171.901 354.43 171.931C354.869 171.964 355.195 172.348 355.161 172.787C355.13 173.19 355.094 173.591 355.055 173.993C355.011 174.402 354.665 174.708 354.262 174.708ZM206.144 174.58C205.853 174.58 205.57 174.419 205.432 174.141C205.234 173.747 205.395 173.269 205.788 173.073C206.142 172.895 206.495 172.718 206.849 172.538C207.241 172.338 207.719 172.494 207.919 172.886C208.118 173.277 207.962 173.755 207.571 173.955C207.215 174.137 206.857 174.317 206.499 174.497C206.385 174.554 206.264 174.58 206.144 174.58ZM105.409 173.498C105.245 173.498 105.079 173.449 104.939 173.344C104.614 173.105 104.292 172.862 103.972 172.619C103.622 172.352 103.557 171.852 103.822 171.504C104.089 171.154 104.589 171.089 104.937 171.354C105.249 171.593 105.565 171.83 105.881 172.063C106.235 172.324 106.31 172.822 106.049 173.176C105.893 173.388 105.652 173.498 105.409 173.498ZM209.684 172.757C209.399 172.757 209.122 172.603 208.98 172.334C208.775 171.947 208.923 171.464 209.31 171.259C209.66 171.073 210.01 170.887 210.36 170.699C210.747 170.492 211.23 170.636 211.437 171.024C211.645 171.411 211.5 171.893 211.113 172.101C210.761 172.291 210.407 172.478 210.055 172.664C209.935 172.727 209.808 172.757 209.684 172.757ZM102.272 171.043C102.092 171.043 101.912 170.984 101.764 170.86C101.454 170.603 101.145 170.342 100.841 170.077C100.509 169.79 100.471 169.288 100.758 168.954C101.045 168.622 101.547 168.584 101.881 168.871C102.179 169.128 102.48 169.383 102.782 169.634C103.12 169.915 103.166 170.417 102.885 170.755C102.727 170.947 102.501 171.043 102.272 171.043ZM213.18 170.86C212.902 170.86 212.629 170.711 212.485 170.45C212.271 170.067 212.41 169.583 212.793 169.369C213.139 169.177 213.485 168.984 213.831 168.788C214.214 168.573 214.698 168.707 214.914 169.09C215.129 169.474 214.995 169.958 214.612 170.174C214.264 170.369 213.916 170.565 213.566 170.759C213.445 170.828 213.313 170.86 213.18 170.86ZM354.515 170.739C354.507 170.739 354.499 170.739 354.491 170.739C354.052 170.727 353.707 170.359 353.718 169.921C353.73 169.529 353.736 169.136 353.738 168.745C353.742 168.308 354.096 167.954 354.533 167.954C354.535 167.954 354.537 167.954 354.539 167.954C354.977 167.958 355.331 168.316 355.329 168.754C355.327 169.158 355.319 169.561 355.308 169.964C355.298 170.399 354.944 170.739 354.515 170.739ZM216.64 168.893C216.365 168.893 216.1 168.751 215.952 168.497C215.73 168.118 215.859 167.63 216.238 167.41C216.58 167.211 216.924 167.011 217.264 166.809C217.642 166.586 218.13 166.713 218.353 167.09C218.577 167.47 218.45 167.956 218.073 168.179C217.729 168.381 217.385 168.584 217.039 168.784C216.912 168.857 216.776 168.893 216.64 168.893ZM99.2894 168.407C99.0937 168.407 98.898 168.335 98.7438 168.191C98.4493 167.914 98.1587 167.636 97.8701 167.353C97.5559 167.047 97.5499 166.543 97.8583 166.228C98.1647 165.914 98.6687 165.908 98.983 166.216C99.2637 166.491 99.5483 166.764 99.8349 167.033C100.155 167.333 100.171 167.837 99.8705 168.158C99.7124 168.322 99.5009 168.407 99.2894 168.407ZM220.059 166.859C219.79 166.859 219.527 166.722 219.379 166.475C219.152 166.1 219.27 165.61 219.646 165.382C219.984 165.177 220.324 164.969 220.66 164.762C221.036 164.532 221.524 164.649 221.755 165.023C221.984 165.396 221.868 165.886 221.494 166.118C221.154 166.327 220.814 166.535 220.472 166.742C220.342 166.821 220.199 166.859 220.059 166.859ZM354.483 166.764C354.06 166.764 353.708 166.43 353.689 166.005C353.671 165.614 353.649 165.222 353.622 164.831C353.592 164.392 353.924 164.013 354.361 163.983C354.807 163.959 355.179 164.285 355.209 164.722C355.236 165.125 355.258 165.529 355.278 165.932C355.298 166.371 354.958 166.742 354.519 166.762C354.507 166.762 354.495 166.764 354.483 166.764ZM96.4766 165.59C96.2632 165.59 96.0517 165.505 95.8955 165.339C95.6208 165.044 95.348 164.748 95.0772 164.449C94.7827 164.123 94.8084 163.621 95.1345 163.327C95.4606 163.032 95.9647 163.058 96.2572 163.384C96.5201 163.677 96.787 163.965 97.0558 164.252C97.3562 164.572 97.3404 165.076 97.0182 165.376C96.868 165.519 96.6723 165.59 96.4766 165.59ZM223.441 164.766C223.176 164.766 222.919 164.635 222.767 164.394C222.532 164.022 222.645 163.53 223.016 163.297C223.352 163.086 223.686 162.874 224.02 162.661C224.392 162.425 224.882 162.532 225.119 162.904C225.356 163.273 225.248 163.765 224.876 164.003C224.54 164.216 224.204 164.432 223.866 164.643C223.734 164.726 223.585 164.766 223.441 164.766ZM354.153 162.801C353.758 162.801 353.414 162.506 353.365 162.101C353.317 161.714 353.264 161.326 353.208 160.939C353.145 160.504 353.446 160.101 353.88 160.036C354.315 159.97 354.719 160.273 354.784 160.708C354.843 161.107 354.896 161.508 354.946 161.909C354.999 162.346 354.689 162.742 354.252 162.797C354.218 162.799 354.185 162.801 354.153 162.801ZM226.786 162.615C226.527 162.615 226.272 162.489 226.119 162.255C225.878 161.888 225.981 161.394 226.349 161.154C226.681 160.937 227.011 160.719 227.343 160.5C227.711 160.257 228.203 160.36 228.446 160.725C228.689 161.091 228.588 161.585 228.221 161.828C227.888 162.048 227.554 162.267 227.222 162.487C227.086 162.574 226.936 162.615 226.786 162.615ZM93.8556 162.599C93.6263 162.599 93.3971 162.5 93.2409 162.309C92.9859 161.996 92.7329 161.684 92.4838 161.368C92.2111 161.022 92.2704 160.522 92.6163 160.251C92.9622 159.978 93.4623 160.038 93.7331 160.383C93.9762 160.692 94.2213 160.998 94.4704 161.301C94.7491 161.641 94.6996 162.141 94.3597 162.419C94.2114 162.54 94.0335 162.599 93.8556 162.599ZM230.096 160.413C229.841 160.413 229.59 160.291 229.436 160.063C229.189 159.7 229.286 159.205 229.65 158.958C229.978 158.737 230.306 158.514 230.632 158.29C230.994 158.043 231.49 158.136 231.737 158.5C231.984 158.863 231.891 159.358 231.527 159.605C231.199 159.83 230.869 160.053 230.539 160.277C230.405 160.37 230.249 160.413 230.096 160.413ZM91.4402 159.443C91.1911 159.443 90.946 159.326 90.7919 159.109C90.5586 158.78 90.3274 158.45 90.102 158.118C89.8549 157.755 89.9478 157.26 90.3115 157.013C90.6752 156.766 91.1694 156.859 91.4165 157.223C91.6378 157.547 91.8612 157.867 92.0885 158.187C92.3435 158.545 92.2605 159.041 91.9027 159.296C91.7604 159.395 91.6003 159.443 91.4402 159.443ZM353.511 158.875C353.141 158.875 352.809 158.616 352.732 158.239C352.653 157.855 352.57 157.472 352.483 157.09C352.384 156.661 352.651 156.235 353.08 156.138C353.509 156.039 353.936 156.306 354.033 156.735C354.124 157.128 354.209 157.523 354.29 157.919C354.379 158.35 354.1 158.769 353.671 158.857C353.618 158.871 353.564 158.875 353.511 158.875ZM233.372 158.162C233.121 158.162 232.874 158.043 232.719 157.822C232.468 157.462 232.555 156.966 232.917 156.715L233.891 156.033C234.251 155.78 234.747 155.867 235 156.227C235.253 156.586 235.166 157.082 234.807 157.335L233.828 158.021C233.686 158.116 233.528 158.162 233.372 158.162ZM89.2521 156.132C88.9832 156.132 88.7223 155.995 88.5721 155.75C88.3626 155.406 88.157 155.062 87.9534 154.714C87.732 154.335 87.8605 153.849 88.24 153.627C88.6195 153.406 89.1078 153.534 89.3272 153.914C89.5248 154.252 89.7245 154.588 89.9281 154.92C90.1574 155.296 90.0388 155.784 89.6632 156.013C89.5367 156.092 89.3924 156.132 89.2521 156.132ZM236.619 155.867C236.37 155.867 236.127 155.75 235.971 155.533C235.716 155.175 235.799 154.679 236.157 154.424L237.125 153.73C237.483 153.473 237.979 153.554 238.236 153.912C238.493 154.27 238.412 154.766 238.054 155.023L237.082 155.719C236.939 155.819 236.779 155.867 236.619 155.867ZM352.556 155.015C352.21 155.015 351.894 154.79 351.793 154.44C351.684 154.064 351.57 153.689 351.453 153.315C351.321 152.896 351.554 152.449 351.973 152.317C352.392 152.184 352.839 152.418 352.971 152.837C353.094 153.222 353.21 153.61 353.323 153.997C353.446 154.42 353.202 154.861 352.779 154.983C352.704 155.005 352.629 155.015 352.556 155.015ZM239.847 153.542C239.602 153.542 239.359 153.428 239.203 153.214C238.944 152.858 239.023 152.36 239.379 152.103L240.343 151.402C240.699 151.145 241.195 151.222 241.454 151.578C241.713 151.933 241.634 152.43 241.278 152.688L240.312 153.39C240.171 153.493 240.009 153.542 239.847 153.542ZM87.3051 152.675C87.0165 152.675 86.7398 152.518 86.5975 152.244C86.4117 151.886 86.2318 151.524 86.0539 151.163C85.8602 150.767 86.0242 150.291 86.4196 150.099C86.8149 149.905 87.2913 150.069 87.483 150.465C87.655 150.817 87.8309 151.166 88.0107 151.514C88.2124 151.904 88.0602 152.384 87.6688 152.586C87.5542 152.647 87.4296 152.675 87.3051 152.675ZM351.301 151.242C350.979 151.242 350.676 151.046 350.556 150.728C350.417 150.362 350.275 149.996 350.129 149.635C349.963 149.227 350.16 148.763 350.568 148.599C350.975 148.435 351.439 148.63 351.603 149.038C351.756 149.411 351.902 149.789 352.046 150.166C352.202 150.577 351.995 151.036 351.584 151.192C351.489 151.226 351.394 151.242 351.301 151.242ZM243.063 151.2C242.818 151.2 242.577 151.087 242.421 150.874C242.162 150.52 242.239 150.022 242.593 149.763L243.557 149.059C243.911 148.8 244.409 148.878 244.668 149.233C244.927 149.589 244.85 150.085 244.494 150.344L243.531 151.048C243.389 151.151 243.225 151.2 243.063 151.2ZM85.6111 149.079C85.3028 149.079 85.0083 148.897 84.8798 148.597C84.7216 148.227 84.5675 147.854 84.4172 147.48C84.2532 147.073 84.4508 146.608 84.858 146.444C85.2652 146.28 85.7297 146.478 85.8938 146.885C86.04 147.249 86.1903 147.611 86.3425 147.97C86.5144 148.373 86.3267 148.842 85.9234 149.014C85.8226 149.057 85.7159 149.079 85.6111 149.079ZM246.275 148.854C246.03 148.854 245.787 148.741 245.633 148.528C245.374 148.172 245.451 147.676 245.807 147.417L246.771 146.713C247.125 146.454 247.623 146.533 247.882 146.889C248.141 147.245 248.062 147.741 247.706 148L246.742 148.702C246.601 148.804 246.437 148.854 246.275 148.854ZM349.749 147.581C349.451 147.581 349.164 147.413 349.03 147.124C348.862 146.77 348.692 146.419 348.516 146.069C348.318 145.675 348.478 145.197 348.87 145.001C349.263 144.806 349.741 144.964 349.937 145.355C350.119 145.717 350.295 146.081 350.467 146.446C350.655 146.844 350.485 147.318 350.087 147.506C349.979 147.555 349.864 147.581 349.749 147.581ZM249.493 146.515C249.246 146.515 249.003 146.401 248.847 146.185C248.59 145.83 248.669 145.331 249.027 145.075L249.995 144.377C250.351 144.12 250.849 144.201 251.106 144.559C251.363 144.916 251.282 145.412 250.924 145.669L249.957 146.367C249.819 146.468 249.655 146.515 249.493 146.515ZM84.1899 145.365C83.8579 145.365 83.5495 145.156 83.4368 144.823C83.3084 144.44 83.1819 144.057 83.0633 143.671C82.9328 143.252 83.166 142.805 83.5871 142.675C84.0081 142.544 84.4528 142.778 84.5833 143.197C84.6999 143.57 84.8205 143.942 84.947 144.313C85.0873 144.731 84.864 145.181 84.4469 145.322C84.3599 145.351 84.2729 145.365 84.1899 145.365ZM252.727 144.199C252.478 144.199 252.233 144.082 252.078 143.865C251.823 143.507 251.908 143.009 252.266 142.756C252.592 142.525 252.916 142.295 253.243 142.066C253.602 141.813 254.099 141.898 254.352 142.258C254.605 142.618 254.52 143.114 254.16 143.367C253.836 143.596 253.511 143.823 253.187 144.055C253.047 144.151 252.887 144.199 252.727 144.199ZM347.909 144.055C347.634 144.055 347.366 143.912 347.219 143.655C347.024 143.315 346.824 142.979 346.62 142.645C346.391 142.27 346.51 141.781 346.885 141.552C347.261 141.323 347.749 141.441 347.978 141.817C348.19 142.163 348.395 142.511 348.597 142.863C348.816 143.244 348.684 143.73 348.304 143.95C348.18 144.021 348.043 144.055 347.909 144.055ZM255.984 141.916C255.731 141.916 255.484 141.795 255.33 141.572C255.081 141.21 255.17 140.714 255.532 140.465C255.86 140.238 256.188 140.012 256.516 139.787C256.88 139.538 257.374 139.631 257.623 139.995C257.872 140.356 257.779 140.852 257.415 141.101C257.089 141.325 256.761 141.55 256.435 141.776C256.297 141.87 256.14 141.916 255.984 141.916ZM83.0672 141.55C82.7114 141.55 82.3873 141.309 82.2963 140.947C82.1975 140.556 82.1046 140.163 82.0156 139.769C81.9188 139.34 82.1876 138.915 82.6165 138.818C83.0435 138.72 83.4704 138.99 83.5673 139.419C83.6543 139.801 83.7452 140.182 83.8401 140.562C83.9468 140.989 83.6879 141.42 83.2629 141.526C83.1957 141.542 83.1305 141.55 83.0672 141.55ZM345.784 140.692C345.531 140.692 345.284 140.572 345.13 140.35C344.907 140.028 344.679 139.71 344.45 139.394C344.191 139.038 344.268 138.542 344.622 138.283C344.976 138.024 345.474 138.101 345.733 138.455C345.972 138.781 346.205 139.111 346.436 139.443C346.688 139.805 346.597 140.299 346.235 140.55C346.096 140.647 345.94 140.692 345.784 140.692ZM259.273 139.68C259.016 139.68 258.765 139.556 258.611 139.326C258.366 138.961 258.465 138.467 258.831 138.224C259.163 138.002 259.495 137.781 259.829 137.561C260.196 137.32 260.689 137.421 260.932 137.787C261.173 138.154 261.072 138.647 260.706 138.89C260.376 139.107 260.046 139.326 259.716 139.546C259.578 139.637 259.426 139.68 259.273 139.68ZM82.2489 137.658C81.8674 137.658 81.5314 137.383 81.4661 136.996C81.3989 136.597 81.3357 136.199 81.2764 135.798C81.2131 135.363 81.5136 134.96 81.9484 134.897C82.3833 134.836 82.7865 135.134 82.8498 135.569C82.9071 135.956 82.9684 136.344 83.0336 136.729C83.1067 137.162 82.8162 137.573 82.3833 137.646C82.3378 137.654 82.2924 137.658 82.2489 137.658ZM343.381 137.524C343.151 137.524 342.924 137.425 342.768 137.235C342.519 136.935 342.266 136.636 342.007 136.342C341.718 136.012 341.752 135.508 342.082 135.219C342.412 134.93 342.916 134.964 343.205 135.294C343.472 135.599 343.734 135.907 343.991 136.219C344.272 136.557 344.225 137.059 343.887 137.34C343.74 137.463 343.56 137.524 343.381 137.524ZM262.602 137.504C262.339 137.504 262.082 137.374 261.93 137.136C261.693 136.767 261.801 136.275 262.171 136.037C262.507 135.822 262.845 135.608 263.183 135.395C263.555 135.162 264.047 135.272 264.28 135.644C264.513 136.016 264.403 136.508 264.031 136.741C263.697 136.953 263.361 137.164 263.029 137.378C262.896 137.463 262.748 137.504 262.602 137.504ZM265.978 135.403C265.709 135.403 265.446 135.267 265.296 135.019C265.069 134.644 265.189 134.154 265.565 133.926C265.907 133.719 266.249 133.513 266.593 133.31C266.972 133.084 267.459 133.209 267.684 133.586C267.909 133.964 267.785 134.452 267.407 134.677C267.067 134.879 266.727 135.083 266.389 135.288C266.261 135.365 266.118 135.403 265.978 135.403ZM340.708 134.577C340.505 134.577 340.299 134.498 340.143 134.341C339.868 134.065 339.589 133.792 339.307 133.521C338.989 133.219 338.977 132.715 339.279 132.396C339.582 132.078 340.086 132.066 340.404 132.369C340.696 132.647 340.987 132.932 341.272 133.219C341.582 133.531 341.58 134.035 341.268 134.343C341.113 134.5 340.912 134.577 340.708 134.577ZM81.729 133.715C81.3238 133.715 80.9759 133.407 80.9384 132.993C80.9008 132.592 80.8672 132.189 80.8396 131.786C80.8079 131.347 81.138 130.967 81.5768 130.936C82.0157 130.904 82.3952 131.234 82.4268 131.673C82.4545 132.064 82.4861 132.454 82.5236 132.845C82.5651 133.282 82.243 133.671 81.8061 133.711C81.7804 133.715 81.7547 133.715 81.729 133.715ZM269.407 133.391C269.131 133.391 268.862 133.246 268.714 132.987C268.496 132.606 268.631 132.12 269.014 131.902C269.362 131.705 269.712 131.509 270.062 131.315C270.447 131.102 270.929 131.24 271.143 131.624C271.356 132.007 271.218 132.491 270.833 132.705C270.487 132.897 270.143 133.09 269.799 133.286C269.676 133.357 269.542 133.391 269.407 133.391ZM337.779 131.888C337.599 131.888 337.419 131.827 337.269 131.705C336.97 131.456 336.666 131.208 336.36 130.967C336.014 130.697 335.954 130.194 336.227 129.851C336.498 129.505 336.998 129.445 337.344 129.718C337.662 129.969 337.977 130.224 338.289 130.483C338.627 130.764 338.672 131.266 338.39 131.604C338.233 131.792 338.008 131.888 337.779 131.888ZM272.898 131.483C272.612 131.483 272.335 131.329 272.193 131.058C271.989 130.669 272.137 130.189 272.527 129.983C272.88 129.797 273.236 129.611 273.594 129.43C273.985 129.228 274.464 129.384 274.665 129.775C274.865 130.167 274.711 130.645 274.319 130.847C273.968 131.027 273.618 131.208 273.268 131.392C273.149 131.454 273.023 131.483 272.898 131.483ZM81.5057 129.746C81.0728 129.746 80.719 129.4 80.7111 128.967C80.7032 128.587 80.6992 128.208 80.6992 127.828V127.759C80.6992 127.32 81.055 126.965 81.4938 126.965C81.9326 126.965 82.2884 127.32 82.2884 127.759V127.828C82.2884 128.198 82.2924 128.566 82.3003 128.935C82.3102 129.374 81.9603 129.738 81.5215 129.748C81.5156 129.746 81.5116 129.746 81.5057 129.746ZM276.452 129.696C276.156 129.696 275.871 129.53 275.735 129.246C275.545 128.85 275.711 128.374 276.108 128.184C276.47 128.01 276.832 127.838 277.195 127.67C277.593 127.485 278.067 127.658 278.253 128.056C278.439 128.455 278.265 128.927 277.867 129.113C277.51 129.279 277.152 129.449 276.796 129.619C276.685 129.671 276.567 129.696 276.452 129.696ZM334.608 129.491C334.454 129.491 334.298 129.445 334.162 129.352C333.839 129.133 333.515 128.918 333.187 128.708C332.818 128.471 332.709 127.981 332.944 127.609C333.181 127.239 333.671 127.131 334.043 127.366C334.385 127.583 334.723 127.809 335.059 128.036C335.423 128.283 335.516 128.779 335.269 129.141C335.112 129.37 334.863 129.491 334.608 129.491ZM280.071 128.046C279.763 128.046 279.47 127.866 279.34 127.566C279.166 127.162 279.352 126.694 279.755 126.52C280.123 126.36 280.494 126.204 280.866 126.05C281.273 125.881 281.738 126.075 281.906 126.48C282.074 126.886 281.88 127.352 281.475 127.52C281.111 127.67 280.747 127.825 280.388 127.981C280.285 128.026 280.178 128.046 280.071 128.046ZM331.216 127.417C331.088 127.417 330.958 127.386 330.835 127.32C330.491 127.133 330.147 126.951 329.799 126.773C329.408 126.573 329.252 126.095 329.451 125.704C329.651 125.312 330.129 125.156 330.521 125.356C330.882 125.54 331.24 125.729 331.596 125.923C331.981 126.135 332.124 126.617 331.912 127.002C331.772 127.267 331.499 127.417 331.216 127.417ZM283.762 126.561C283.44 126.561 283.135 126.364 283.017 126.044C282.862 125.632 283.072 125.174 283.483 125.02C283.859 124.879 284.238 124.741 284.616 124.607C285.029 124.46 285.485 124.676 285.632 125.089C285.78 125.502 285.562 125.959 285.149 126.105C284.778 126.237 284.408 126.372 284.038 126.51C283.949 126.546 283.855 126.561 283.762 126.561ZM81.567 125.769C81.5531 125.769 81.5393 125.769 81.5254 125.769C81.0866 125.747 80.7486 125.374 80.7704 124.935C80.7901 124.531 80.8158 124.13 80.8435 123.727C80.8751 123.288 81.2586 122.962 81.6935 122.99C82.1323 123.021 82.4624 123.403 82.4307 123.84C82.4031 124.231 82.3793 124.622 82.3596 125.014C82.3398 125.439 81.988 125.769 81.567 125.769ZM327.641 125.678C327.536 125.678 327.429 125.656 327.328 125.613C326.969 125.458 326.609 125.31 326.245 125.166C325.836 125.004 325.636 124.541 325.799 124.132C325.961 123.723 326.423 123.523 326.832 123.685C327.208 123.834 327.583 123.99 327.955 124.15C328.358 124.324 328.546 124.79 328.372 125.196C328.244 125.498 327.949 125.678 327.641 125.678ZM287.523 125.265C287.185 125.265 286.873 125.047 286.764 124.709C286.632 124.29 286.863 123.844 287.282 123.711C287.666 123.591 288.049 123.472 288.434 123.355C288.855 123.229 289.298 123.468 289.425 123.889C289.551 124.31 289.312 124.753 288.891 124.879C288.514 124.992 288.138 125.109 287.762 125.227C287.683 125.253 287.602 125.265 287.523 125.265ZM323.919 124.28C323.838 124.28 323.755 124.269 323.674 124.241C323.302 124.12 322.929 124.004 322.555 123.893C322.134 123.768 321.893 123.326 322.017 122.905C322.142 122.484 322.585 122.243 323.006 122.367C323.393 122.482 323.78 122.602 324.166 122.727C324.583 122.863 324.812 123.312 324.676 123.729C324.565 124.067 324.253 124.28 323.919 124.28ZM291.344 124.162C290.99 124.162 290.668 123.925 290.575 123.567C290.464 123.142 290.719 122.707 291.144 122.596C291.534 122.496 291.923 122.397 292.315 122.302C292.742 122.197 293.172 122.46 293.275 122.887C293.38 123.314 293.117 123.745 292.69 123.848C292.309 123.94 291.927 124.037 291.546 124.136C291.478 124.154 291.411 124.162 291.344 124.162ZM295.22 123.262C294.851 123.262 294.519 123.002 294.441 122.626C294.354 122.195 294.631 121.776 295.062 121.687C295.457 121.606 295.851 121.531 296.246 121.456C296.677 121.375 297.094 121.661 297.173 122.092C297.254 122.525 296.968 122.94 296.537 123.019C296.149 123.09 295.764 123.166 295.378 123.245C295.325 123.257 295.272 123.262 295.22 123.262ZM320.088 123.217C320.029 123.217 319.968 123.211 319.908 123.195C319.529 123.106 319.145 123.023 318.762 122.946C318.331 122.857 318.054 122.438 318.141 122.007C318.23 121.576 318.651 121.3 319.08 121.387C319.477 121.468 319.873 121.555 320.266 121.646C320.695 121.744 320.96 122.171 320.861 122.6C320.776 122.97 320.45 123.217 320.088 123.217ZM299.138 122.581C298.748 122.581 298.408 122.296 298.351 121.899C298.288 121.464 298.59 121.061 299.025 120.997C299.424 120.94 299.822 120.885 300.221 120.835C300.662 120.782 301.055 121.088 301.111 121.525C301.166 121.962 300.858 122.359 300.421 122.414C300.031 122.464 299.642 122.517 299.253 122.573C299.213 122.577 299.175 122.581 299.138 122.581ZM316.18 122.48C316.141 122.48 316.103 122.478 316.064 122.472C315.676 122.414 315.289 122.361 314.899 122.314C314.463 122.26 314.154 121.863 314.208 121.426C314.261 120.991 314.656 120.679 315.095 120.734C315.496 120.784 315.898 120.837 316.297 120.896C316.732 120.962 317.032 121.365 316.967 121.8C316.908 122.195 316.568 122.48 316.18 122.48ZM303.087 122.128C302.678 122.128 302.33 121.814 302.295 121.399C302.257 120.962 302.583 120.576 303.022 120.539C303.423 120.505 303.824 120.475 304.226 120.45C304.665 120.422 305.042 120.754 305.072 121.191C305.099 121.63 304.767 122.007 304.33 122.037C303.939 122.063 303.548 122.092 303.156 122.124C303.133 122.126 303.111 122.128 303.087 122.128ZM312.227 122.051C312.207 122.051 312.19 122.051 312.17 122.049C311.778 122.021 311.387 121.997 310.996 121.978C310.557 121.956 310.219 121.582 310.241 121.144C310.262 120.705 310.628 120.365 311.075 120.388C311.478 120.408 311.881 120.432 312.282 120.462C312.721 120.493 313.051 120.873 313.02 121.312C312.99 121.731 312.64 122.051 312.227 122.051ZM307.06 121.92C306.627 121.92 306.273 121.574 306.266 121.14C306.258 120.701 306.606 120.337 307.046 120.329C307.438 120.321 307.827 120.317 308.218 120.317C308.657 120.317 309.033 120.673 309.033 121.112C309.033 121.551 308.695 121.907 308.256 121.907H308.218C307.839 121.907 307.459 121.91 307.078 121.918C307.07 121.92 307.064 121.92 307.06 121.92ZM81.9069 121.808C81.8753 121.808 81.8437 121.806 81.8121 121.802C81.3752 121.748 81.0649 121.353 81.1163 120.916C81.1637 120.515 81.2171 120.116 81.2724 119.716C81.3337 119.282 81.735 118.981 82.1718 119.04C82.6067 119.102 82.9091 119.505 82.8478 119.94C82.7925 120.327 82.7411 120.717 82.6956 121.106C82.6482 121.511 82.3042 121.808 81.9069 121.808ZM82.5157 117.878C82.4663 117.878 82.4169 117.874 82.3675 117.864C81.9366 117.783 81.6519 117.366 81.735 116.935C81.8101 116.54 81.8891 116.145 81.9722 115.749C82.0631 115.318 82.4841 115.044 82.915 115.135C83.3459 115.226 83.6207 115.647 83.5297 116.077C83.4487 116.461 83.3716 116.846 83.2985 117.232C83.2234 117.613 82.8893 117.878 82.5157 117.878ZM83.3854 113.998C83.3182 113.998 83.253 113.99 83.1858 113.972C82.7608 113.862 82.5059 113.429 82.6146 113.002C82.7154 112.612 82.8201 112.223 82.9288 111.836C83.0474 111.413 83.4863 111.166 83.9093 111.284C84.3323 111.403 84.5793 111.842 84.4607 112.265C84.354 112.642 84.2532 113.022 84.1544 113.401C84.0615 113.761 83.7393 113.998 83.3854 113.998ZM84.5082 110.185C84.4251 110.185 84.3421 110.171 84.2591 110.146C83.8421 110.007 83.6147 109.557 83.7531 109.139C83.8796 108.758 84.0101 108.377 84.1445 107.995C84.2907 107.58 84.7454 107.363 85.1585 107.509C85.5736 107.655 85.791 108.11 85.6447 108.523C85.5143 108.894 85.3878 109.266 85.2632 109.638C85.1525 109.972 84.8422 110.185 84.5082 110.185ZM85.878 106.451C85.7791 106.451 85.6783 106.434 85.5795 106.394C85.1723 106.23 84.9766 105.765 85.1407 105.358C85.2909 104.985 85.4471 104.613 85.6052 104.241C85.7772 103.836 86.2456 103.65 86.6489 103.822C87.0521 103.994 87.2399 104.463 87.0679 104.866C86.9137 105.228 86.7635 105.589 86.6153 105.953C86.4907 106.264 86.1923 106.451 85.878 106.451ZM87.4889 102.814C87.3723 102.814 87.2557 102.789 87.143 102.735C86.7477 102.544 86.5816 102.069 86.7734 101.674C86.9493 101.31 87.1272 100.95 87.309 100.591C87.5087 100.199 87.987 100.043 88.3784 100.241C88.7698 100.438 88.9279 100.919 88.7283 101.31C88.5504 101.66 88.3764 102.014 88.2045 102.366C88.0681 102.648 87.7834 102.814 87.4889 102.814ZM89.3331 99.29C89.2007 99.29 89.0663 99.2564 88.9417 99.1872C88.5603 98.9698 88.4258 98.4855 88.6413 98.102C88.8409 97.7502 89.0425 97.4023 89.2481 97.0564C89.4715 96.6789 89.9597 96.5543 90.3372 96.7777C90.7148 97.001 90.8393 97.4893 90.6159 97.8668C90.4163 98.2048 90.2186 98.5448 90.0249 98.8867C89.8806 99.1437 89.6118 99.29 89.3331 99.29ZM91.4086 95.8961C91.2583 95.8961 91.1061 95.8546 90.9717 95.7657C90.6041 95.5245 90.5033 95.0304 90.7444 94.6647C90.9658 94.3287 91.1911 93.9926 91.4204 93.6605C91.6695 93.2988 92.1636 93.2059 92.5273 93.455C92.889 93.704 92.982 94.1982 92.7329 94.5619C92.5115 94.8861 92.2921 95.2122 92.0747 95.5403C91.9205 95.7696 91.6675 95.8961 91.4086 95.8961ZM93.7074 92.6485C93.5394 92.6485 93.3714 92.5951 93.2271 92.4864C92.8772 92.2196 92.81 91.7215 93.0749 91.3716C93.32 91.0494 93.567 90.7312 93.8181 90.4149C94.0908 90.071 94.5909 90.0137 94.9349 90.2865C95.2788 90.5592 95.3361 91.0593 95.0633 91.4052C94.8202 91.7116 94.5791 92.0219 94.3399 92.3342C94.1837 92.5398 93.9465 92.6485 93.7074 92.6485ZM96.2236 89.567C96.0378 89.567 95.85 89.5017 95.6998 89.3693C95.3697 89.0787 95.3361 88.5767 95.6267 88.2466C95.8935 87.9422 96.1623 87.6417 96.4331 87.3452C96.7296 87.0211 97.2337 86.9974 97.5578 87.2939C97.882 87.5903 97.9057 88.0944 97.6092 88.4186C97.3444 88.7091 97.0835 88.9997 96.8245 89.2962C96.6644 89.4741 96.445 89.567 96.2236 89.567ZM98.9514 86.6712C98.7458 86.6712 98.5402 86.5921 98.386 86.434C98.0777 86.1217 98.0797 85.6177 98.392 85.3093C98.6786 85.0247 98.9691 84.744 99.2637 84.4673C99.5819 84.1649 100.086 84.1787 100.388 84.4989C100.691 84.8191 100.677 85.3212 100.357 85.6236C100.072 85.8924 99.7894 86.1652 99.5107 86.44C99.3546 86.5941 99.153 86.6712 98.9514 86.6712ZM101.881 83.981C101.655 83.981 101.432 83.8861 101.276 83.7023C100.991 83.3683 101.031 82.8662 101.365 82.5816C101.671 82.3207 101.982 82.0617 102.296 81.8067C102.636 81.53 103.138 81.5814 103.415 81.9214C103.691 82.2614 103.64 82.7634 103.3 83.0402C102.996 83.2872 102.695 83.5383 102.397 83.7913C102.246 83.9178 102.063 83.981 101.881 83.981ZM105.002 81.5182C104.757 81.5182 104.514 81.4055 104.357 81.192C104.098 80.8362 104.178 80.3401 104.531 80.0812C104.858 79.844 105.186 79.6107 105.518 79.3795C105.879 79.1284 106.376 79.2193 106.625 79.5791C106.876 79.9408 106.785 80.435 106.425 80.686C106.103 80.9094 105.785 81.1367 105.468 81.366C105.328 81.4687 105.164 81.5182 105.002 81.5182ZM108.303 79.3063C108.036 79.3063 107.775 79.1719 107.625 78.9268C107.395 78.5532 107.512 78.063 107.886 77.8318C108.23 77.6203 108.576 77.4127 108.923 77.2111C109.303 76.9897 109.791 77.1182 110.011 77.4977C110.232 77.8772 110.103 78.3635 109.724 78.5848C109.386 78.7825 109.05 78.9822 108.718 79.1877C108.589 79.2668 108.445 79.3063 108.303 79.3063ZM111.766 77.3613C111.475 77.3613 111.197 77.2032 111.056 76.9265C110.857 76.5351 111.013 76.0567 111.404 75.8571C111.641 75.7365 111.88 75.6179 112.12 75.4993C112.515 75.3056 112.991 75.4697 113.183 75.865C113.377 76.2603 113.213 76.7367 112.817 76.9284C112.586 77.0411 112.355 77.1577 112.126 77.2743C112.011 77.3336 111.888 77.3613 111.766 77.3613Z" fill="#FAF3FE"/>
    <path d="M117.784 66.6602L119.447 72.1058L122.421 68.6388L117.784 66.6602Z" fill="#F1E155"/>
    <path d="M141.32 56.0547L130.551 73.447C130.346 73.7791 130.012 74.0143 129.63 74.0973C129.249 74.1803 128.848 74.1032 128.523 73.8838L111.467 62.4135C111.271 62.283 111.177 62.0458 111.224 61.8146C111.271 61.5833 111.455 61.4054 111.686 61.3639L141.32 56.0547Z" fill="#F1E155"/>
    <path d="M117.786 66.6593L141.32 56.0547L120.532 68.5193L120.929 70.0492L117.786 66.6593Z" fill="#F1E155"/>
    <path d="M122.17 69.6087L119.446 72.1051L120.531 68.5195L122.17 69.6087Z" fill="#F1E155"/>
    <defs>
    <linearGradient id="paint0_linear_5499_24255" x1="22.6826" y1="130.916" x2="24.9594" y2="130.916" gradientUnits="userSpaceOnUse">
    <stop stop-color="#DAE3FE"/>
    <stop offset="1" stop-color="#E9EFFD"/>
    </linearGradient>
    <linearGradient id="paint1_linear_5499_24255" x1="22.6826" y1="134.251" x2="24.9594" y2="134.251" gradientUnits="userSpaceOnUse">
    <stop stop-color="#DAE3FE"/>
    <stop offset="1" stop-color="#E9EFFD"/>
    </linearGradient>
    <linearGradient id="paint2_linear_5499_24255" x1="22.6826" y1="137.588" x2="24.9594" y2="137.588" gradientUnits="userSpaceOnUse">
    <stop stop-color="#DAE3FE"/>
    <stop offset="1" stop-color="#E9EFFD"/>
    </linearGradient>
    <linearGradient id="paint3_linear_5499_24255" x1="27.0513" y1="169.23" x2="63.1367" y2="169.23" gradientUnits="userSpaceOnUse">
    <stop stop-color="#DAE3FE"/>
    <stop offset="1" stop-color="#E9EFFD"/>
    </linearGradient>
    <linearGradient id="paint4_linear_5499_24255" x1="71.9231" y1="155.204" x2="71.9594" y2="155.204" gradientUnits="userSpaceOnUse">
    <stop stop-color="#4042E2"/>
    <stop offset="1" stop-color="#4F52FF"/>
    </linearGradient>
    <linearGradient id="paint5_linear_5499_24255" x1="71.9231" y1="171.232" x2="71.9594" y2="171.232" gradientUnits="userSpaceOnUse">
    <stop stop-color="#09005D"/>
    <stop offset="1" stop-color="#1A0F91"/>
    </linearGradient>
    <linearGradient id="paint6_linear_5499_24255" x1="71.9231" y1="187.257" x2="71.9594" y2="187.257" gradientUnits="userSpaceOnUse">
    <stop stop-color="#4042E2"/>
    <stop offset="1" stop-color="#4F52FF"/>
    </linearGradient>
    <linearGradient id="paint7_linear_5499_24255" x1="28.4328" y1="273.547" x2="35.7038" y2="273.547" gradientUnits="userSpaceOnUse">
    <stop stop-color="#09005D"/>
    <stop offset="1" stop-color="#1A0F91"/>
    </linearGradient>
    <linearGradient id="paint8_linear_5499_24255" x1="18.6822" y1="223.662" x2="28.3787" y2="223.662" gradientUnits="userSpaceOnUse">
    <stop stop-color="#FF928E"/>
    <stop offset="1" stop-color="#FEB3B1"/>
    </linearGradient>
    <linearGradient id="paint9_linear_5499_24255" x1="30.4549" y1="265.269" x2="29.066" y2="277.391" gradientUnits="userSpaceOnUse">
    <stop stop-color="#FF928E"/>
    <stop offset="1" stop-color="#FEB3B1"/>
    </linearGradient>
    <linearGradient id="paint10_linear_5499_24255" x1="39.5042" y1="273.741" x2="49.9708" y2="273.741" gradientUnits="userSpaceOnUse">
    <stop stop-color="#09005D"/>
    <stop offset="1" stop-color="#1A0F91"/>
    </linearGradient>
    <linearGradient id="paint11_linear_5499_24255" x1="41.7681" y1="266.567" x2="40.3793" y2="278.688" gradientUnits="userSpaceOnUse">
    <stop stop-color="#FF928E"/>
    <stop offset="1" stop-color="#FEB3B1"/>
    </linearGradient>
    <linearGradient id="paint12_linear_5499_24255" x1="58.2698" y1="211.14" x2="13.8483" y2="280.07" gradientUnits="userSpaceOnUse">
    <stop stop-color="#534859"/>
    <stop offset="1" stop-color="#534859"/>
    </linearGradient>
    <linearGradient id="paint13_linear_5499_24255" x1="64.0176" y1="173.215" x2="54.3483" y2="186.857" gradientUnits="userSpaceOnUse">
    <stop stop-color="#FF928E"/>
    <stop offset="1" stop-color="#FEB3B1"/>
    </linearGradient>
    <linearGradient id="paint14_linear_5499_24255" x1="59.9237" y1="170.313" x2="50.2545" y2="183.955" gradientUnits="userSpaceOnUse">
    <stop stop-color="#FF928E"/>
    <stop offset="1" stop-color="#FEB3B1"/>
    </linearGradient>
    <linearGradient id="paint15_linear_5499_24255" x1="33.5223" y1="186.847" x2="28.2193" y2="209.764" gradientUnits="userSpaceOnUse">
    <stop stop-color="#FF928E"/>
    <stop offset="1" stop-color="#FEB3B1"/>
    </linearGradient>
    <linearGradient id="paint16_linear_5499_24255" x1="32.6439" y1="182.413" x2="35.2577" y2="197.794" gradientUnits="userSpaceOnUse">
    <stop stop-color="#FF928E"/>
    <stop offset="1" stop-color="#FEB3B1"/>
    </linearGradient>
    <linearGradient id="paint17_linear_5499_24255" x1="29.8951" y1="189.692" x2="37.5979" y2="181.51" gradientUnits="userSpaceOnUse">
    <stop stop-color="#09005D"/>
    <stop offset="1" stop-color="#1A0F91"/>
    </linearGradient>
    <linearGradient id="paint18_linear_5499_24255" x1="30.3758" y1="199.201" x2="29.9109" y2="188.401" gradientUnits="userSpaceOnUse">
    <stop stop-color="#FF928E"/>
    <stop offset="1" stop-color="#FEB3B1"/>
    </linearGradient>
    <linearGradient id="paint19_linear_5499_24255" x1="6.68273" y1="218.086" x2="-13.0836" y2="235.48" gradientUnits="userSpaceOnUse">
    <stop stop-color="#4042E2"/>
    <stop offset="1" stop-color="#4F52FF"/>
    </linearGradient>
    <linearGradient id="paint20_linear_5499_24255" x1="33.3577" y1="229.648" x2="29.633" y2="236.277" gradientUnits="userSpaceOnUse">
    <stop stop-color="#09005D"/>
    <stop offset="1" stop-color="#1A0F91"/>
    </linearGradient>
    <linearGradient id="paint21_linear_5499_24255" x1="313.984" y1="156.21" x2="321.231" y2="174.389" gradientUnits="userSpaceOnUse">
    <stop stop-color="#09005D"/>
    <stop offset="1" stop-color="#1A0F91"/>
    </linearGradient>
    <linearGradient id="paint22_linear_5499_24255" x1="340.476" y1="272.599" x2="346.622" y2="272.599" gradientUnits="userSpaceOnUse">
    <stop stop-color="#0B0264"/>
    <stop offset="1" stop-color="#0C0266"/>
    </linearGradient>
    <linearGradient id="paint23_linear_5499_24255" x1="311.926" y1="271.474" x2="321.87" y2="271.474" gradientUnits="userSpaceOnUse">
    <stop stop-color="#0B0264"/>
    <stop offset="1" stop-color="#0B0264"/>
    </linearGradient>
    <linearGradient id="paint24_linear_5499_24255" x1="312.463" y1="156.819" x2="319.711" y2="174.999" gradientUnits="userSpaceOnUse">
    <stop stop-color="#09005D"/>
    <stop offset="1" stop-color="#1A0F91"/>
    </linearGradient>
    <linearGradient id="paint25_linear_5499_24255" x1="355.585" y1="264.464" x2="351.409" y2="263.54" gradientUnits="userSpaceOnUse">
    <stop stop-color="#FF928E"/>
    <stop offset="1" stop-color="#FEB3B1"/>
    </linearGradient>
    <linearGradient id="paint26_linear_5499_24255" x1="363.809" y1="254.695" x2="351.568" y2="225.896" gradientUnits="userSpaceOnUse">
    <stop stop-color="#2B3582"/>
    <stop offset="0.2305" stop-color="#252A70"/>
    <stop offset="0.7285" stop-color="#19164F"/>
    <stop offset="1" stop-color="#150E42"/>
    </linearGradient>
    <linearGradient id="paint27_linear_5499_24255" x1="348.927" y1="268.291" x2="359.253" y2="290.512" gradientUnits="userSpaceOnUse">
    <stop stop-color="#09005D"/>
    <stop offset="1" stop-color="#1A0F91"/>
    </linearGradient>
    <linearGradient id="paint28_linear_5499_24255" x1="357.751" y1="268.987" x2="353.832" y2="268.12" gradientUnits="userSpaceOnUse">
    <stop stop-color="#FF928E"/>
    <stop offset="1" stop-color="#FEB3B1"/>
    </linearGradient>
    <linearGradient id="paint29_linear_5499_24255" x1="367.462" y1="268.503" x2="373.844" y2="235.032" gradientUnits="userSpaceOnUse">
    <stop stop-color="#09005D"/>
    <stop offset="1" stop-color="#1A0F91"/>
    </linearGradient>
    <linearGradient id="paint30_linear_5499_24255" x1="352.776" y1="224.613" x2="339.105" y2="221.587" gradientUnits="userSpaceOnUse">
    <stop stop-color="#FF928E"/>
    <stop offset="1" stop-color="#FEB3B1"/>
    </linearGradient>
    <linearGradient id="paint31_linear_5499_24255" x1="365.936" y1="196.439" x2="372.262" y2="211.066" gradientUnits="userSpaceOnUse">
    <stop stop-color="#FF928E"/>
    <stop offset="1" stop-color="#FEB3B1"/>
    </linearGradient>
    <linearGradient id="paint32_linear_5499_24255" x1="394.287" y1="200.016" x2="387.172" y2="218.399" gradientUnits="userSpaceOnUse">
    <stop stop-color="#FF928E"/>
    <stop offset="1" stop-color="#FEB3B1"/>
    </linearGradient>
    <linearGradient id="paint33_linear_5499_24255" x1="543.289" y1="756.465" x2="539.771" y2="745.335" gradientUnits="userSpaceOnUse">
    <stop stop-color="#FF928E"/>
    <stop offset="1" stop-color="#FEB3B1"/>
    </linearGradient>
    <linearGradient id="paint34_linear_5499_24255" x1="546.488" y1="755.458" x2="542.97" y2="744.328" gradientUnits="userSpaceOnUse">
    <stop stop-color="#FF928E"/>
    <stop offset="1" stop-color="#FEB3B1"/>
    </linearGradient>
    <linearGradient id="paint35_linear_5499_24255" x1="369.131" y1="224.358" x2="351.188" y2="230.243" gradientUnits="userSpaceOnUse">
    <stop stop-color="#09005D"/>
    <stop offset="1" stop-color="#1A0F91"/>
    </linearGradient>
    <linearGradient id="paint36_linear_5499_24255" x1="344.482" y1="212.591" x2="331.56" y2="226.249" gradientUnits="userSpaceOnUse">
    <stop stop-color="#09005D"/>
    <stop offset="1" stop-color="#1A0F91"/>
    </linearGradient>
    <linearGradient id="paint37_linear_5499_24255" x1="336.67" y1="215.991" x2="330.806" y2="224.821" gradientUnits="userSpaceOnUse">
    <stop stop-color="#53D8FF"/>
    <stop offset="1" stop-color="#3840F7"/>
    </linearGradient>
    </defs>
    </svg>
    