<svg width="31" height="31" viewBox="0 0 31 31" fill="none" xmlns="http://www.w3.org/2000/svg">
<path d="M15.4339 17.7647C19.8538 17.8011 23.4442 14.2106 23.4079 9.78465C23.3716 5.55242 19.7932 1.9741 15.5671 1.93777C11.1471 1.90145 7.55672 5.49187 7.59305 9.91785C7.62937 14.1501 11.2077 17.7284 15.4339 17.7647ZM15.2098 5.40711C17.8921 5.23758 20.1081 7.45359 19.9386 10.1419C19.7993 12.3579 18.0071 14.1501 15.7911 14.2954C13.1089 14.4649 10.8929 12.2489 11.0624 9.56062C11.2016 7.34461 12.9938 5.55242 15.2098 5.40711Z" fill="#729F65"/>
<path d="M15.5 18.6728C12.9086 18.6728 10.5715 17.5769 8.93071 15.8271C8.81567 15.706 8.61586 15.7241 8.5311 15.8695L3.94165 23.904C3.75395 24.237 3.99008 24.6487 4.37758 24.6487H9.22739C9.40297 24.6487 9.56645 24.7396 9.65727 24.8909L12.0186 28.8204C12.2245 29.1655 12.7331 29.1353 12.9026 28.772L15.5061 23.0443L17.4012 18.8726C17.486 18.6909 17.3286 18.4911 17.1288 18.5275C16.5959 18.6183 16.0571 18.6728 15.5 18.6728Z" fill="#729F65"/>
<path d="M22.0694 15.8207C21.1854 16.7592 20.1077 17.516 18.8907 18.0065C18.8301 18.0307 18.7817 18.0731 18.7575 18.1336L16.051 24.0491C16.0208 24.1157 16.0208 24.1883 16.051 24.2549L18.1036 28.7657C18.267 29.1289 18.7817 29.1592 18.9875 28.8141L21.3489 24.8846C21.4397 24.7332 21.6032 24.6424 21.7788 24.6424H26.6286C27.01 24.6424 27.2522 24.2307 27.0645 23.8977L22.4751 15.8571C22.3842 15.7239 22.1844 15.6996 22.0694 15.8207Z" fill="#729F65"/>
</svg>
