<svg width="16" height="16" viewBox="0 0 16 16" fill="none" xmlns="http://www.w3.org/2000/svg">
<path d="M4.21053 0H13.1251L16 2.87495V11.7895C16 12.4595 15.7338 13.1021 15.2601 13.5758C14.7863 14.0496 14.1437 14.3158 13.4737 14.3158H4.21053C3.54051 14.3158 2.89793 14.0496 2.42415 13.5758C1.95038 13.1021 1.68421 12.4595 1.68421 11.7895V2.52632C1.68421 1.8563 1.95038 1.21372 2.42415 0.739941C2.89793 0.266165 3.54051 0 4.21053 0ZM4.21053 0.842105C3.76385 0.842105 3.33546 1.01955 3.01961 1.3354C2.70376 1.65125 2.52632 2.07964 2.52632 2.52632V11.7895C2.52632 12.2362 2.70376 12.6645 3.01961 12.9804C3.33546 13.2962 3.76385 13.4737 4.21053 13.4737H13.4737C13.9204 13.4737 14.3488 13.2962 14.6646 12.9804C14.9805 12.6645 15.1579 12.2362 15.1579 11.7895V3.296L12.704 0.842105H11.7895V5.05263H4.21053V0.842105ZM5.05263 0.842105V4.21053H10.9474V0.842105H5.05263ZM9.26316 6.73684C9.59492 6.73684 9.92343 6.80219 10.2299 6.92915C10.5364 7.05611 10.8149 7.24219 11.0495 7.47678C11.2841 7.71137 11.4702 7.98987 11.5972 8.29638C11.7241 8.60289 11.7895 8.9314 11.7895 9.26316C11.7895 9.59492 11.7241 9.92343 11.5972 10.2299C11.4702 10.5364 11.2841 10.8149 11.0495 11.0495C10.8149 11.2841 10.5364 11.4702 10.2299 11.5972C9.92343 11.7241 9.59492 11.7895 9.26316 11.7895C8.59314 11.7895 7.95056 11.5233 7.47678 11.0495C7.00301 10.5758 6.73684 9.93318 6.73684 9.26316C6.73684 8.59314 7.00301 7.95056 7.47678 7.47678C7.95056 7.00301 8.59314 6.73684 9.26316 6.73684ZM9.26316 7.57895C8.81648 7.57895 8.38809 7.75639 8.07224 8.07224C7.75639 8.38809 7.57895 8.81648 7.57895 9.26316C7.57895 9.70984 7.75639 10.1382 8.07224 10.4541C8.38809 10.7699 8.81648 10.9474 9.26316 10.9474C9.70984 10.9474 10.1382 10.7699 10.4541 10.4541C10.7699 10.1382 10.9474 9.70984 10.9474 9.26316C10.9474 8.81648 10.7699 8.38809 10.4541 8.07224C10.1382 7.75639 9.70984 7.57895 9.26316 7.57895ZM4.21053 16C3.65759 16 3.11007 15.8911 2.59923 15.6795C2.08838 15.4679 1.62422 15.1577 1.23323 14.7668C0.443608 13.9771 0 12.9062 0 11.7895V3.36842H0.842105V11.7895C0.842105 12.6828 1.19699 13.5396 1.82869 14.1713C2.46039 14.803 3.31717 15.1579 4.21053 15.1579H12.6316V16H4.21053Z" fill="currentColor"/>
</svg>
