<svg width="16" height="16" viewBox="0 0 16 16" fill="none" xmlns="http://www.w3.org/2000/svg">
<path d="M11.5646 1.98419C10.2851 0.704656 8.58394 0 6.77441 0C4.96487 0 3.26369 0.704656 1.98419 1.98419C0.704656 3.26369 0 4.96488 0 6.77437C0 8.58391 0.704656 10.2851 1.98419 11.5646C3.26369 12.8441 4.96491 13.5488 6.77441 13.5488C8.58391 13.5488 10.2851 12.8441 11.5646 11.5646C12.8441 10.2851 13.5488 8.58391 13.5488 6.77437C13.5488 4.96488 12.8441 3.26369 11.5646 1.98419ZM6.77437 12.2561C3.75172 12.2561 1.29262 9.79703 1.29262 6.77437C1.29262 3.75172 3.75175 1.29262 6.77441 1.29262C9.79706 1.29262 12.2561 3.75172 12.2561 6.77437C12.2561 9.79703 9.79703 12.2561 6.77437 12.2561Z" fill="#323759"/>
<path d="M15.8111 14.8961L11.5623 10.6473C11.3099 10.3949 10.9007 10.3949 10.6483 10.6473C10.3959 10.8997 10.3959 11.3089 10.6483 11.5613L14.897 15.8101C15.0232 15.9363 15.1887 15.9994 15.3541 15.9994C15.5195 15.9994 15.6849 15.9363 15.8111 15.8101C16.0635 15.5577 16.0635 15.1485 15.8111 14.8961Z" fill="#323759"/>
</svg>
