<svg
        width="24"
        height="24"
        viewBox="0 0 24 24"
        fill="none"
        xmlns="http://www.w3.org/2000/svg">
    <path
            d="M13.159 22H11.841C10.775 22 9.90777 21.1328 9.90777 20.0668V19.6209C9.45459 19.4761 9.01429 19.2934 8.59129 19.0745L8.27531 19.3905C7.51 20.1567 6.28408 20.1342 5.541 19.3902L4.6095 18.4587C3.8651 17.7151 3.84369 16.4896 4.60974 15.7244L4.92548 15.4087C4.70658 14.9857 4.52386 14.5455 4.37903 14.0922H3.93319C2.86728 14.0922 2 13.225 2 12.159V10.841C2 9.77505 2.86728 8.90781 3.93323 8.90781H4.37907C4.5239 8.45459 4.70662 8.01433 4.92552 7.59133L4.60954 7.27539C3.84394 6.51061 3.86506 5.28498 4.60978 4.54108L5.54137 3.60954C6.28617 2.86371 7.5118 2.84509 8.27564 3.60978L8.59133 3.92548C9.01433 3.70662 9.45463 3.52386 9.90781 3.37903V2.93319C9.90781 1.86723 10.775 1 11.841 1H13.159C14.225 1 15.0922 1.86723 15.0922 2.93319V3.37907C15.5454 3.52386 15.9857 3.70662 16.4087 3.92552L16.7247 3.60954C17.49 2.84328 18.7159 2.86576 19.459 3.60982L20.3905 4.54129C21.1349 5.28486 21.1563 6.51037 20.3902 7.2756L20.0745 7.59133C20.2934 8.01433 20.4761 8.45455 20.6209 8.90781H21.0668C22.1327 8.90781 23 9.77505 23 10.841V12.159C23 13.225 22.1327 14.0922 21.0668 14.0922H20.6209C20.4761 14.5454 20.2934 14.9857 20.0745 15.4087L20.3905 15.7247C21.1561 16.4894 21.1349 17.7151 20.3902 18.459L19.4586 19.3905C18.7138 20.1363 17.4882 20.155 16.7244 19.3903L16.4087 19.0746C15.9857 19.2934 15.5454 19.4762 15.0922 19.621V20.0669C15.0922 21.1328 14.225 22 13.159 22ZM8.79699 17.7824C9.38462 18.1299 10.0171 18.3924 10.6768 18.5627C10.9485 18.6328 11.1383 18.8778 11.1383 19.1584V20.0668C11.1383 20.4543 11.4536 20.7695 11.841 20.7695H13.159C13.5465 20.7695 13.8618 20.4543 13.8618 20.0668V19.1584C13.8618 18.8778 14.0516 18.6328 14.3233 18.5627C14.983 18.3924 15.6154 18.1299 16.2031 17.7824C16.4448 17.6394 16.7527 17.6783 16.9513 17.8769L17.5948 18.5204C17.8722 18.7982 18.3177 18.7917 18.5883 18.5207L19.5205 17.5886C19.7904 17.3189 19.7995 16.8733 19.5207 16.595L18.877 15.9512C18.6784 15.7526 18.6395 15.4448 18.7824 15.203C19.13 14.6154 19.3925 13.983 19.5627 13.3232C19.6329 13.0515 19.8779 12.8618 20.1584 12.8618H21.0668C21.4543 12.8618 21.7696 12.5465 21.7696 12.159V10.841C21.7696 10.4536 21.4543 10.1383 21.0668 10.1383H20.1584C19.8778 10.1383 19.6329 9.9485 19.5627 9.67686C19.3925 9.01712 19.1299 8.38466 18.7824 7.79707C18.6395 7.55532 18.6784 7.24746 18.877 7.04886L19.5205 6.40537C19.7986 6.12753 19.7914 5.6821 19.5207 5.41176L18.5886 4.47968C18.3185 4.20914 17.8729 4.20123 17.595 4.47944L16.9513 5.12318C16.7527 5.32182 16.4448 5.3607 16.2031 5.21772C15.6155 4.87019 14.983 4.60765 14.3233 4.4374C14.0516 4.3673 13.8618 4.12227 13.8618 3.84169V2.93319C13.8618 2.54571 13.5465 2.23047 13.159 2.23047H11.8411C11.4536 2.23047 11.1383 2.54571 11.1383 2.93319V3.8416C11.1383 4.12219 10.9485 4.36722 10.6768 4.43731C10.0171 4.60757 9.38466 4.87011 8.79703 5.21764C8.5552 5.36058 8.24738 5.32169 8.04878 5.1231L7.40533 4.4796C7.1279 4.20184 6.68234 4.20828 6.41176 4.47931L5.4796 5.41144C5.20964 5.68107 5.20061 6.12663 5.47936 6.40504L6.1231 7.04878C6.32169 7.24738 6.36058 7.55524 6.21764 7.79699C5.87011 8.38458 5.60761 9.01704 5.43736 9.67677C5.36722 9.94846 5.12219 10.1382 4.84164 10.1382H3.93323C3.54576 10.1383 3.23047 10.4535 3.23047 10.841V12.159C3.23047 12.5465 3.54576 12.8617 3.93323 12.8617H4.8416C5.12219 12.8617 5.36718 13.0515 5.43731 13.3232C5.60757 13.9829 5.87011 14.6154 6.2176 15.203C6.36054 15.4447 6.32165 15.7526 6.12305 15.9512L5.47956 16.5947C5.20139 16.8725 5.20865 17.3179 5.47931 17.5883L6.41139 18.5204C6.68156 18.7909 7.12716 18.7988 7.405 18.5206L8.0487 17.8769C8.19504 17.7306 8.4995 17.6064 8.79699 17.7824Z"
            fill="#333333" />
    <path
            d="M12.4998 16.0691C9.98034 16.0691 7.93066 14.0194 7.93066 11.5C7.93066 8.98058 9.98034 6.93086 12.4998 6.93086C15.0193 6.93086 17.0689 8.98058 17.0689 11.5C17.0689 14.0194 15.0193 16.0691 12.4998 16.0691ZM12.4998 8.16133C10.6588 8.16133 9.16113 9.65906 9.16113 11.5C9.16113 13.3409 10.6589 14.8387 12.4998 14.8387C14.3407 14.8387 15.8385 13.3409 15.8385 11.5C15.8385 9.65906 14.3408 8.16133 12.4998 8.16133Z"
            fill="#333333" />
</svg>
    