<svg
        width="14"
        height="18"
        viewBox="0 0 14 18"
        fill="none"
        xmlns="http://www.w3.org/2000/svg">
    <path
            d="M12.4053 17.6C11.7453 17.6 11.2053 17.06 11.2053 16.4V1.59999C11.2053 0.939994 11.7453 0.399994 12.4053 0.399994C13.0653 0.399994 13.6053 0.939994 13.6053 1.59999V16.4C13.6053 17.06 13.0653 17.6 12.4053 17.6ZM8.20527 16.4V6.48C8.20527 5.82 7.66527 5.28 7.00527 5.28C6.34527 5.28 5.80527 5.82 5.80527 6.48V16.4C5.80527 17.06 6.34527 17.6 7.00527 17.6C7.66527 17.6 8.20527 17.06 8.20527 16.4ZM2.80527 16.4V11.36C2.80527 10.7 2.26527 10.16 1.60527 10.16C0.945273 10.16 0.405273 10.7 0.405273 11.36V16.4C0.405273 17.06 0.945273 17.6 1.60527 17.6C2.26527 17.6 2.80527 17.06 2.80527 16.4Z"
            fill="current"
            stroke="current"
            stroke-linecap="round"
            stroke-linejoin="round" />
</svg>