<svg width="16" height="18" viewBox="0 0 16 18" fill="none" xmlns="http://www.w3.org/2000/svg">
<path d="M7.29297 16.5618C7.29297 16.9286 6.9957 17.2258 6.62891 17.2258H2.81055C1.34585 17.2258 0.154297 16.0343 0.154297 14.5696V2.88208C0.154297 1.41738 1.34585 0.22583 2.81055 0.22583H10.9749C12.4395 0.22583 13.6311 1.41738 13.6311 2.88208V9.92114C13.6311 10.2879 13.3337 10.5852 12.9671 10.5852C12.6003 10.5852 12.303 10.2879 12.303 9.92114V2.88208C12.303 2.1498 11.7072 1.55396 10.9749 1.55396H2.81055C2.07826 1.55396 1.48242 2.1498 1.48242 2.88208V14.5696C1.48242 15.3019 2.07826 15.8977 2.81055 15.8977H6.62891C6.9957 15.8977 7.29297 16.195 7.29297 16.5618ZM15.117 11.0414C14.8188 10.8279 14.404 10.8966 14.1905 11.1947L10.9173 15.7668C10.8279 15.8705 10.7159 15.8928 10.656 15.8968C10.594 15.9008 10.4741 15.893 10.3713 15.7951L8.25223 13.7604C7.98777 13.5064 7.56741 13.5149 7.31333 13.7794C7.05925 14.044 7.06781 14.4644 7.3324 14.7183L9.45351 16.7551C9.77127 17.0575 10.1953 17.2258 10.6316 17.2258C10.6691 17.2258 10.7067 17.2245 10.7443 17.2221C11.2195 17.1904 11.6632 16.9593 11.9616 16.5878C11.9693 16.5784 11.9768 16.5685 11.9839 16.5585L15.2704 11.9678C15.4839 11.6696 15.4153 11.2548 15.117 11.0414ZM10.3108 4.21021H3.47098C3.10419 4.21021 2.80692 4.50748 2.80692 4.87427C2.80692 5.24106 3.10419 5.53833 3.47098 5.53833H10.3108C10.6775 5.53833 10.9749 5.24106 10.9749 4.87427C10.9749 4.50748 10.6775 4.21021 10.3108 4.21021ZM10.9749 7.53052C10.9749 7.16373 10.6775 6.86646 10.3108 6.86646H3.47098C3.10419 6.86646 2.80692 7.16373 2.80692 7.53052C2.80692 7.89731 3.10419 8.19458 3.47098 8.19458H10.3108C10.6775 8.19458 10.9749 7.89731 10.9749 7.53052ZM3.47098 9.52271C3.10419 9.52271 2.80692 9.81998 2.80692 10.1868C2.80692 10.5536 3.10419 10.8508 3.47098 10.8508H7.625C7.99179 10.8508 8.28906 10.5536 8.28906 10.1868C8.28906 9.81998 7.99179 9.52271 7.625 9.52271H3.47098Z" fill="currentColor"/>
</svg>
