<svg width="12" height="13" viewBox="0 0 12 13" fill="none" xmlns="http://www.w3.org/2000/svg">
<path d="M10.3229 4.78719L9.90954 12.4938C9.8962 12.7738 9.65621 13.0005 9.3762 13.0005H2.61619C2.33619 13.0005 2.09619 12.7738 2.08286 12.4938L1.66953 4.78719C1.6562 4.49386 1.88287 4.24051 2.1762 4.22718C2.46954 4.21385 2.72286 4.44052 2.7362 4.73385L3.12287 11.9339H8.86953L9.2562 4.73385C9.26954 4.44052 9.52286 4.21385 9.8162 4.22718C10.1095 4.24051 10.3362 4.49386 10.3229 4.78719ZM11.7362 3.00052C11.7362 3.29385 11.4962 3.53385 11.2029 3.53385H0.802865C0.509531 3.53385 0.269531 3.29385 0.269531 3.00052C0.269531 2.70719 0.509531 2.46719 0.802865 2.46719H3.7362V1.26719C3.7362 1.01385 3.90952 0.867188 4.16286 0.867188H7.84287C8.0962 0.867188 8.26953 1.01385 8.26953 1.26719V2.46719H11.2029C11.4962 2.46719 11.7362 2.70719 11.7362 3.00052ZM4.66953 2.46719H7.3362V1.80052H4.66953V2.46719ZM4.89619 11.1339C5.16286 11.1339 5.36286 10.8805 5.36286 10.6272L5.22953 4.86719C5.22953 4.61385 5.01619 4.40052 4.74953 4.40052C4.49619 4.40052 4.28286 4.61385 4.29619 4.88052L4.42952 10.6539C4.42952 10.9072 4.64286 11.1339 4.89619 11.1339ZM7.09619 11.1339C7.34952 11.1339 7.56286 10.9205 7.56286 10.6672L7.69619 4.90719C7.69619 4.65386 7.4962 4.42718 7.24287 4.42718C6.9762 4.42718 6.77619 4.62718 6.76286 4.88052L6.62953 10.6405C6.61619 10.9072 6.82952 11.1339 7.09619 11.1339C7.08286 11.1339 7.08286 11.1339 7.09619 11.1339Z" fill="currentColor"/>
</svg>
