<svg width="24" height="24" viewBox="0 0 24 24" fill="none" xmlns="http://www.w3.org/2000/svg">
<path d="M9.05619 5.8816L5.12125 7.87593L3.32636 5.42139C2.67054 4.52011 3.01571 3.33119 4.09724 2.78467C5.17878 2.23815 6.60548 2.52578 7.26131 3.42705L9.05619 5.8816Z" stroke="#333333" stroke-width="1.5" stroke-linecap="round" stroke-linejoin="round"/>
<path d="M11.2967 9.22997L7.66086 11.0709C5.54382 12.1448 4.89949 14.3117 5.92349 16.0375L8.28216 20.0453C9.04154 21.3397 10.8825 21.7903 12.3552 21.0329L19.7533 17.284C21.2376 16.5361 21.5942 14.9733 20.5702 13.8131L17.3832 10.2272C16.0025 8.6739 13.4137 8.15611 11.2967 9.22997Z" stroke="#333333" stroke-width="1.5" stroke-linecap="round" stroke-linejoin="round"/>
<path d="M10.0769 5.33412L4.18066 8.32617L6.57431 11.6018L12.4705 8.60979L10.0769 5.33412Z" stroke="#333333" stroke-width="1.5" stroke-linecap="round" stroke-linejoin="round"/>
<path d="M14.1641 16.5645L16.0625 19.1628" stroke="#333333" stroke-width="1.5" stroke-linecap="round" stroke-linejoin="round"/>
<path d="M11.2188 18.0615L13.1172 20.6599" stroke="#333333" stroke-width="1.5" stroke-linecap="round" stroke-linejoin="round"/>
<path d="M17.1074 15.0674L19.0059 17.6658" stroke="#333333" stroke-width="1.5" stroke-linecap="round" stroke-linejoin="round"/>
</svg>
