<svg width="16" height="16" viewBox="0 0 16 16" fill="none" xmlns="http://www.w3.org/2000/svg">
<path d="M2.22566 0.810468C1.83513 0.419948 1.20197 0.419948 0.811445 0.810468C0.420925 1.201 0.420925 1.83416 0.811445 2.22469L6.58616 7.99939L0.811505 13.7741C0.420985 14.1646 0.420985 14.7978 0.811505 15.1883C1.20203 15.5788 1.83519 15.5788 2.22571 15.1883L8.00036 9.41359L13.7751 15.1883C14.1656 15.5788 14.7988 15.5788 15.1893 15.1883C15.5798 14.7978 15.5798 14.1646 15.1893 13.7741L9.41456 7.99939L15.1894 2.22469C15.5799 1.83416 15.5799 1.201 15.1894 0.810468C14.7989 0.419948 14.1657 0.419948 13.7752 0.810468L8.00036 6.58519L2.22566 0.810468Z" fill="black"/>
</svg>
