<svg width="20" height="20" viewBox="0 0 20 20" fill="none" xmlns="http://www.w3.org/2000/svg">
<path d="M10.0009 19.999C11.1054 19.999 12.0008 19.1036 12.0008 17.9991C12.0008 16.8946 11.1054 15.9992 10.0009 15.9992C8.89636 15.9992 8.00098 16.8946 8.00098 17.9991C8.00098 19.1036 8.89636 19.999 10.0009 19.999Z" fill="#323759" fill-opacity="0.7"/>
<path d="M10.0009 3.9998C11.1054 3.9998 12.0008 3.10442 12.0008 1.9999C12.0008 0.895387 11.1054 0 10.0009 0C8.89636 0 8.00098 0.895387 8.00098 1.9999C8.00098 3.10442 8.89636 3.9998 10.0009 3.9998Z" fill="#323759" fill-opacity="0.7"/>
<path d="M4.34365 17.6561C5.44817 17.6561 6.34356 16.7608 6.34356 15.6562C6.34356 14.5517 5.44817 13.6563 4.34365 13.6563C3.23914 13.6563 2.34375 14.5517 2.34375 15.6562C2.34375 16.7608 3.23914 17.6561 4.34365 17.6561Z" fill="black" fill-opacity="0.5"/>
<path d="M15.6571 6.3427C16.7616 6.3427 17.657 5.44731 17.657 4.3428C17.657 3.23828 16.7616 2.3429 15.6571 2.3429C14.5526 2.3429 13.6572 3.23828 13.6572 4.3428C13.6572 5.44731 14.5526 6.3427 15.6571 6.3427Z" fill="#323759" fill-opacity="0.5"/>
<path d="M2.0009 12.0004C3.10597 12.0004 4.0018 11.1046 4.0018 9.99951C4.0018 8.89444 3.10597 7.9986 2.0009 7.9986C0.895834 7.9986 0 8.89444 0 9.99951C0 11.1046 0.895834 12.0004 2.0009 12.0004Z" fill="#323759" fill-opacity="0.3"/>
<path d="M17.9999 11.9994C19.1044 11.9994 19.9998 11.104 19.9998 9.99951C19.9998 8.895 19.1044 7.99961 17.9999 7.99961C16.8954 7.99961 16 8.895 16 9.99951C16 11.104 16.8954 11.9994 17.9999 11.9994Z" fill="black" fill-opacity="0.3"/>
<path d="M4.34365 6.34368C5.44817 6.34368 6.34356 5.44829 6.34356 4.34377C6.34356 3.23926 5.44817 2.34387 4.34365 2.34387C3.23914 2.34387 2.34375 3.23926 2.34375 4.34377C2.34375 5.44829 3.23914 6.34368 4.34365 6.34368Z" fill="#323759"/>
<path d="M15.6571 17.6571C16.7616 17.6571 17.657 16.7618 17.657 15.6572C17.657 14.5527 16.7616 13.6573 15.6571 13.6573C14.5526 13.6573 13.6572 14.5527 13.6572 15.6572C13.6572 16.7618 14.5526 17.6571 15.6571 17.6571Z" fill="#323759"/>
</svg>
